<svg width="39" height="50" viewBox="0 0 39 50" fill="none" xmlns="http://www.w3.org/2000/svg">
<path d="M37.793 17.6627C37.403 16.7727 36.583 16.1127 35.683 15.9227C35.773 14.7527 35.713 13.1127 34.933 11.8027C34.403 10.9227 33.273 10.4127 32.313 10.3227C32.083 9.66269 31.583 8.83266 31.333 8.54266C30.583 7.69266 29.303 6.79266 27.973 6.79266C27.433 6.79266 26.923 6.94266 26.473 7.22266C24.973 8.18266 24.343 10.8527 23.883 12.8127C23.843 12.9727 23.813 13.1327 23.773 13.2727C23.603 13.0627 23.433 12.8627 23.283 12.6927C21.863 11.1027 20.393 10.4227 18.373 10.4227C18.033 10.4227 17.673 10.4427 17.283 10.4827C16.173 10.5927 14.943 11.0427 14.133 11.6227C13.583 12.0127 13.133 12.5127 12.803 13.0927C12.393 12.9727 11.963 12.8927 11.463 12.8927C11.293 12.8927 11.123 12.8927 10.953 12.9227C10.163 13.0127 9.52299 13.3027 8.96299 13.5627C8.74299 13.6627 8.54299 13.7527 8.33299 13.8327C7.93299 13.9927 7.58299 14.0627 7.26299 14.0627C6.68299 14.0627 6.22298 13.7927 5.64298 13.4527C5.04298 13.0927 4.35299 12.6927 3.40299 12.5027H3.35299C3.15299 12.4527 2.82298 12.3927 2.50298 12.3927C1.79298 12.3927 1.44299 12.7127 1.27299 12.9827C1.18299 13.1227 1.11299 13.2427 0.902993 14.4227C0.822993 14.8927 0.722981 15.5127 0.702981 15.7327C0.682981 15.9127 0.642987 16.4327 0.942987 16.8727C0.792987 17.1827 0.812981 17.4627 0.842981 17.6227C0.762981 18.0027 0.642994 18.4127 0.512994 18.8427C0.332994 19.4427 0.142982 20.0627 0.0629819 20.6927C-0.0270181 21.3427 -0.0370163 21.6527 0.142984 21.9627C0.162984 22.0027 0.192986 22.0427 0.222986 22.0727C0.522986 22.4227 0.902979 22.4927 1.12298 22.5127C1.19298 22.5727 1.29298 22.6627 1.37298 22.7227C1.65298 22.9627 1.83299 23.1227 2.01299 23.2227C2.63299 23.5627 3.36299 23.7427 4.21299 23.7427C5.27299 23.7427 6.34299 23.4727 7.21299 23.2027C7.07299 24.6827 7.27298 26.0327 7.81298 27.3027C8.36298 28.5827 9.48298 30.0927 10.483 30.8927C10.683 31.0527 10.893 31.1827 11.083 31.2927V31.3127C11.023 31.5727 10.973 31.8227 10.903 32.0627C10.773 32.0627 10.663 32.0827 10.563 32.1127C9.86298 32.3227 9.57299 33.0827 9.26299 34.0627C9.23299 34.1627 9.20299 34.2527 9.18299 34.3027C9.13299 34.4427 9.07298 34.6027 9.00298 34.7627C8.82298 35.2127 8.62298 35.7227 8.53298 36.2327C8.50298 36.4127 8.43298 36.7827 8.62298 37.1827C8.70298 37.3527 9.04299 37.7927 9.04299 37.7927C9.05299 37.8027 9.06299 37.8227 9.07299 37.8327C9.01299 38.0427 8.95299 38.2427 8.90299 38.4527C8.86299 38.6127 8.82298 38.7526 8.78298 38.9026C8.59298 39.5726 8.37299 40.2727 8.16299 40.9427C7.75299 42.2727 7.33298 43.6527 7.00298 45.0327C7.00298 45.0527 6.99298 45.0727 6.98298 45.1027C6.74298 46.0827 6.66299 46.7927 7.05299 47.2927C7.25299 47.5527 7.55299 47.7027 7.88299 47.7127C8.87299 48.0327 13.743 49.5127 20.143 49.5127C21.793 49.5127 23.433 49.4127 25.013 49.2127C25.303 49.2127 25.563 49.0827 25.763 48.8727C26.173 48.4427 26.183 47.8027 26.153 47.1227C26.153 47.0827 26.153 47.0427 26.153 47.0127C26.153 46.5927 26.113 46.1727 26.083 45.7627C26.053 45.3627 26.023 44.9827 26.023 44.6127C26.023 44.5727 26.033 44.4927 26.043 44.4227C26.063 44.3127 26.083 44.1827 26.083 44.0327C26.083 43.8327 26.063 43.6327 26.043 43.4427C26.043 43.4427 26.043 43.4427 26.043 43.4327C26.323 43.3527 26.533 43.1927 26.683 42.9527C26.873 42.6427 26.983 42.1627 27.073 40.3727V40.3227C27.113 39.6127 27.153 38.7327 27.133 38.0427C27.113 37.2727 26.823 36.9127 26.463 36.7027V36.5727C26.573 36.5127 26.693 36.4627 26.773 36.4127C27.013 36.2827 27.153 36.2226 27.253 36.1526C28.803 35.1326 30.353 32.8327 31.023 31.1827C31.083 31.0327 31.143 30.8327 31.223 30.5227C31.243 30.4527 31.263 30.3627 31.293 30.2727C31.363 30.2327 31.423 30.1827 31.493 30.1227C31.903 29.7527 32.333 29.3927 32.753 29.0427C33.853 28.1227 34.983 27.1727 35.893 25.9727C37.153 24.2927 38.883 20.0726 37.833 17.6526L37.793 17.6627Z" fill="#FAE9BC"/>
<path d="M10.463 37.2427L7.993 46.7927C7.993 46.7927 15.683 49.4727 24.953 48.3027L24.913 41.7127C24.913 41.7127 23.103 41.2627 20.453 40.6427C17.803 40.0227 13.403 38.4427 13.403 38.4427L10.473 37.2627L10.463 37.2427Z" fill="#FAE9BC"/>
<path d="M22.253 13.8127L22.693 14.3527L22.183 16.0227C22.693 16.2327 22.843 14.7827 22.993 14.7927C23.423 15.1427 23.713 15.9927 23.563 16.5227C23.373 17.1427 22.013 18.7627 21.503 19.2027C21.393 19.3027 21.043 19.5727 20.913 19.5927C20.553 19.6527 19.943 19.3327 19.523 19.4627L19.553 19.7227L21.923 20.5327C24.473 21.6827 27.233 23.3027 28.963 25.5727C29.113 25.7627 29.703 26.7627 29.823 26.7927C29.893 26.8127 29.953 26.7927 30.013 26.7427C30.383 26.4327 29.563 25.5127 29.423 25.1827L28.613 24.1427C28.963 23.9927 29.433 23.8327 29.743 23.6127C29.903 23.5027 30.303 23.0027 30.463 23.0427C30.593 23.4327 31.913 24.8927 32.293 24.2727C32.513 23.9127 32.043 23.9727 31.873 23.9127C31.613 23.8127 30.803 22.8327 30.843 22.5627C30.883 22.2527 31.293 21.9627 31.443 21.7327C31.543 21.5827 32.033 20.5127 32.103 20.5027C32.343 20.9427 33.443 21.8527 33.933 21.6227C34.423 21.3927 33.773 21.2827 33.643 21.2327C33.443 21.1427 33.003 20.8727 32.853 20.7227C32.553 20.4127 32.503 20.0526 32.413 19.6526C32.713 19.3126 32.893 18.8927 33.173 18.5327C33.843 17.7027 35.203 16.8627 36.093 17.8627C36.683 18.5227 36.603 19.6327 36.473 20.4527C36.293 21.5427 35.403 23.9227 34.773 24.8227C34.313 25.4727 33.483 26.3427 32.883 26.8527C32.143 27.4927 30.673 28.4527 30.123 29.1727C29.973 29.3727 30.003 29.5827 29.913 29.7927C29.003 31.9327 27.173 34.9727 24.733 35.5227C23.633 35.7727 22.213 35.6827 21.183 35.2427C20.873 35.1127 20.053 34.3927 20.203 35.1827C20.263 35.5227 20.733 35.7027 21.033 35.8527C22.343 36.4827 23.723 36.4427 25.123 36.1427C25.033 36.4327 25.073 37.3227 24.763 37.3727C22.943 37.3927 21.133 37.2427 19.353 36.8727L19.143 36.7527C19.253 36.5627 19.413 36.0926 19.283 35.9026C19.213 35.8026 18.083 35.2326 17.893 35.1526C17.313 34.9026 16.493 34.6127 15.893 34.4327C15.573 34.3427 14.653 34.0627 14.373 34.0627C14.023 34.0627 13.963 34.6727 13.553 34.6327C13.323 34.4427 11.963 33.7127 11.973 33.4727C11.993 33.1527 12.243 32.7126 12.323 32.4026C12.423 31.9926 12.453 31.5627 12.523 31.1427C12.613 31.0427 14.173 31.8827 14.073 31.3127C14.033 31.1027 12.703 30.5727 12.433 30.4127C11.873 30.0827 10.753 29.1627 10.373 28.6427C10.343 28.6027 10.133 28.2227 10.113 28.1827C10.063 28.0627 10.163 28.1027 10.203 28.0827C10.423 28.0127 10.663 28.0427 10.873 27.9727C11.173 27.8827 12.123 27.2727 11.953 26.9127C11.803 26.5927 11.423 27.1227 11.203 27.2627C10.863 27.4627 9.983 27.6327 9.653 27.4627C9.583 27.4327 9.29299 26.8727 9.33299 26.8427C9.55299 26.8327 9.793 26.8627 10.013 26.8427C10.343 26.8027 11.283 26.4027 11.143 25.9827C11.033 25.6527 10.683 26.0826 10.543 26.1526C10.253 26.3026 9.33299 26.4327 9.08299 26.2527C8.77299 26.0327 8.703 24.2327 8.683 23.8027C8.833 23.9027 8.943 24.0427 9.103 24.1327C9.533 24.3727 10.373 24.4427 10.823 24.2327C11.253 24.0327 11.493 23.4927 11.703 23.0927C12.083 23.2627 12.493 23.5626 12.903 23.6526C13.163 23.7126 14.003 23.6527 14.073 23.9827C14.093 24.0827 13.993 24.1126 13.923 24.1526C13.613 24.3226 12.563 24.5327 12.513 24.9527C12.483 25.1927 12.673 25.2127 12.853 25.1627C13.213 25.0727 13.753 24.7727 14.123 24.6727C17.603 23.7227 20.453 25.4727 21.893 28.6127C22.003 28.8427 22.183 29.8927 22.543 29.5927C22.663 29.4927 22.633 29.3827 22.623 29.2527C22.533 28.4827 21.813 27.1927 21.363 26.5427C20.613 25.4627 19.643 24.6827 18.423 24.2227C17.553 23.8927 16.683 23.7727 15.753 23.7427C15.693 23.6827 16.113 23.1327 16.183 23.0327C16.913 22.0227 17.763 21.1327 18.423 20.0827C18.993 19.1727 19.183 18.6827 19.053 17.5527C19.023 17.2627 18.913 16.9527 18.863 16.6727L20.863 16.8627L20.903 16.6727C20.733 16.3027 18.733 16.1826 18.313 16.1526C18.123 16.1326 17.933 16.0227 17.723 16.0227C17.193 16.0227 16.293 16.3527 15.703 16.4127C15.393 16.4427 14.703 16.4727 14.413 16.4127C14.163 16.3627 13.753 15.6927 13.733 15.4727C13.713 15.1127 13.763 14.4527 13.943 14.1327C14.013 13.9927 14.283 13.5927 14.383 13.4627C14.433 13.4027 14.763 13.0527 14.803 13.0427C14.913 12.9927 15.033 13.4127 15.103 13.5227C15.423 13.9827 16.083 14.2927 16.613 14.4727C17.243 14.6927 17.913 14.6827 18.483 14.2727C18.963 13.9327 19.163 12.8827 18.913 12.3627C18.813 12.1627 18.633 12.0727 18.593 11.8727C18.713 11.8727 18.823 11.8727 18.943 11.8727C19.373 11.9227 20.123 12.1927 20.523 12.3727C20.753 12.4827 21.603 13.0627 21.713 13.2627C21.813 13.4327 21.793 14.2027 21.773 14.4327C21.753 14.6427 21.433 15.3027 21.683 15.3727C22.103 15.5027 22.293 14.0927 22.233 13.8127H22.253ZM24.223 25.3427C23.263 24.0027 21.813 22.4627 20.303 21.7627C20.133 21.6827 19.563 21.3927 19.463 21.6327L19.543 21.8127C21.223 22.7027 22.623 24.0027 23.743 25.5327C24.523 26.5827 25.403 28.0527 25.933 29.2427C26.033 29.4627 26.343 30.5127 26.473 30.5927C26.543 30.6327 26.643 30.6427 26.723 30.6227C26.923 30.4827 26.523 29.5527 26.433 29.3327C25.883 27.9527 25.073 26.5427 24.223 25.3427ZM16.283 25.6227C16.283 25.6227 16.903 25.6827 17.013 25.7127C17.393 25.8027 17.923 26.1527 18.213 26.2027C18.503 26.2527 18.563 26.1027 18.393 25.8827C18.123 25.5327 16.473 24.8527 16.293 25.3427C16.273 25.3927 16.263 25.5827 16.293 25.6227H16.283ZM20.753 28.3527C20.963 27.7727 19.653 26.5427 19.173 26.6027C19.033 26.6227 18.873 26.7727 18.973 26.9327C19.033 27.0227 19.543 27.3227 19.693 27.4527C19.843 27.5827 20.043 27.7927 20.183 27.9427C20.363 28.1527 20.343 28.4627 20.763 28.3627L20.753 28.3527ZM17.543 30.6927C17.403 30.7327 17.403 31.5727 17.413 31.7427C17.453 32.1227 17.933 33.9627 18.433 33.8627C18.803 33.7927 18.393 33.2927 18.313 33.0927C18.113 32.5927 17.923 31.9627 17.833 31.4327C17.793 31.1827 17.933 30.7027 17.533 30.6927H17.543ZM16.533 30.9627C16.533 30.9627 16.333 30.9627 16.273 30.9927C16.003 31.1527 16.203 32.2427 16.303 32.5127C16.403 32.7827 16.573 33.1627 16.913 33.1027C16.943 32.6827 16.683 32.3727 16.603 31.9527C16.573 31.7927 16.553 30.9927 16.513 30.9627H16.533ZM25.543 32.2627C25.413 32.3027 25.393 32.4927 25.253 32.5627C24.943 32.7227 24.423 32.9127 24.083 33.0127C23.883 33.0727 23.223 33.0627 23.293 33.3727C23.323 33.4427 23.383 33.5127 23.463 33.5327C23.943 33.6727 24.953 33.3327 25.373 33.0627C25.703 32.8527 26.173 32.5527 25.653 32.2427H25.533L25.543 32.2627ZM26.383 33.1427C26.253 33.2627 25.503 33.8027 25.593 33.9427C25.853 34.2127 26.333 33.8127 26.573 33.6127C26.753 33.4627 27.653 32.5327 27.153 32.3827C26.943 32.3227 26.903 32.6227 26.803 32.7227C26.683 32.8527 26.513 33.0127 26.393 33.1427H26.383ZM24.183 34.2127C23.833 34.2527 23.413 34.3927 23.063 34.3927C22.773 34.3927 21.873 34.1327 21.923 34.5527C21.953 34.8127 22.793 34.9227 23.023 34.9327C23.313 34.9427 24.883 34.8027 24.493 34.2527C24.423 34.1527 24.283 34.1927 24.183 34.2127Z" fill="#FAE9BC"/>
<path d="M4.383 14.4227C5.403 14.9727 5.87299 15.5227 7.16299 15.5727C8.69299 15.6227 9.78299 14.4327 11.253 14.3327C11.923 14.2827 12.423 14.4027 13.043 14.6227L13.103 14.7027C13.103 15.1027 13.153 15.6727 13.303 16.0627C13.513 16.6227 14.103 17.0927 14.713 17.1327C14.853 17.1327 14.963 17.0727 15.083 17.0727C15.353 17.0727 15.613 17.2427 15.903 17.0027L15.353 19.0827C14.873 20.2727 14.083 21.2827 13.273 22.2627C12.573 21.6127 11.543 21.1927 10.593 21.0427C8.33299 20.6827 6.21299 22.2927 3.92299 22.1927C3.04299 22.1527 2.31299 21.4727 1.55299 21.1127L2.39299 17.6827C2.88299 17.6027 3.37299 17.4827 3.86299 17.3927C4.12299 17.3427 4.743 17.4627 4.743 17.0227C4.743 16.7327 3.95299 16.4127 3.69299 16.3127C3.21299 16.1227 2.71299 15.9827 2.20299 15.9527L2.53299 13.9427C3.15299 13.9027 3.843 14.1227 4.383 14.4227ZM5.11299 15.3727C4.76299 15.3727 4.483 15.0627 4.183 14.9027C3.853 14.7327 3.03299 14.2027 3.11299 14.9027C3.43299 15.0227 4.853 15.9727 5.103 15.6827V15.3727H5.11299ZM9.14299 16.1427C9.24299 16.3127 10.043 15.8427 10.243 15.7927C10.823 15.6227 11.483 15.6027 12.083 15.6827C12.553 15.3427 11.963 15.2127 11.633 15.1827C10.933 15.1027 10.073 15.2227 9.47299 15.6027C9.25299 15.7427 9.06299 15.8327 9.14299 16.1427ZM3.383 18.5727C3.633 18.3227 4.18299 18.5727 4.50299 18.6027C6.48299 18.8027 7.26299 17.8227 9.09299 17.5827L10.633 17.7427C10.743 17.6127 10.733 17.4827 10.583 17.3927C10.453 17.3127 9.37299 17.1327 9.17299 17.1227C7.58299 17.0427 6.653 18.1627 5.213 18.1727C4.543 18.1727 3.21299 17.7127 2.78299 18.3927C2.61299 18.6627 2.47299 19.5027 2.72299 19.7527C3.01299 20.0427 4.96299 20.2227 5.23299 19.9627L5.30299 19.8027L5.14299 19.5927C4.45299 19.7127 3.79299 19.4927 3.11299 19.3927C3.07299 19.1227 3.21299 18.7627 3.39299 18.5727H3.383ZM11.883 18.0827L14.323 18.9127C14.573 18.8927 14.673 18.7527 14.493 18.5527C14.333 18.3827 12.923 17.8627 12.643 17.8027C12.433 17.7627 11.433 17.7227 11.883 18.0827ZM9.19299 18.8927C8.94299 18.9127 8.29299 19.0827 8.08299 19.2127C7.92299 19.3127 7.793 19.5027 7.653 19.6227C7.903 19.9727 8.21299 19.6227 8.53299 19.5327C9.00299 19.3927 9.663 19.3627 10.153 19.4027C10.373 19.4227 11.253 19.7127 11.353 19.4327L11.333 19.2027C10.643 19.0327 9.93299 18.8327 9.20299 18.9027L9.19299 18.8927ZM3.64299 21.2627C3.92299 21.5727 4.69299 21.5627 5.08299 21.5427C6.17299 21.4727 6.863 20.9327 7.823 20.5827C8.183 20.4527 8.633 20.4127 8.963 20.2927C9.183 20.2127 9.103 20.0127 8.853 19.9827C7.543 19.8227 5.673 21.3027 4.323 21.0727C4.123 21.0427 3.94299 20.8927 3.73299 20.9127C3.50299 20.9327 3.503 21.1227 3.633 21.2727L3.64299 21.2627ZM12.963 21.2027C12.963 21.2027 13.023 21.0127 13.013 20.9527C12.893 20.4927 11.113 19.8627 10.683 19.9927C10.573 20.0227 10.423 20.2227 10.543 20.3127C11.053 20.4827 11.563 20.6527 12.063 20.8627C12.263 20.9527 12.793 21.3227 12.963 21.2127V21.2027Z" fill="#FAE9BC"/>
<path d="M30.213 9.61269C30.623 10.0927 30.813 10.9627 30.953 11.5627C29.333 12.8127 28.983 14.9727 28.313 16.7927C27.643 18.6127 26.773 19.9027 25.103 21.0427C25.023 21.1027 24.843 21.2127 24.753 21.2027L22.513 20.0727C22.433 20.0427 21.503 19.9027 21.633 19.7127C21.703 19.6327 21.843 19.6327 21.903 19.5627C22.463 19.0227 23.003 18.4927 23.463 17.8527C23.593 17.6727 23.633 17.4527 23.833 17.3827C23.983 17.6827 25.143 18.5827 25.413 18.4127L25.383 18.1027C24.863 17.8027 24.433 17.4227 24.063 16.9527C24.543 15.7427 25.173 14.5427 25.283 13.2327C25.943 13.9527 26.873 14.1727 27.803 13.9427C27.823 13.8327 27.833 13.6727 27.703 13.6327C27.433 13.6027 27.153 13.6527 26.873 13.6127C26.483 13.5627 25.523 13.0927 25.473 12.6727C25.423 12.3227 25.923 11.3827 25.893 10.9527C26.213 10.0927 26.803 8.24268 27.963 8.29268C28.183 8.29268 28.993 8.6227 29.193 8.7527C29.363 8.8627 30.063 9.46269 30.183 9.61269H30.213Z" fill="#FAE9BC"/>
<path d="M33.563 17.2727C32.663 18.1027 32.193 18.7327 31.673 19.8327C31.023 21.2027 30.373 22.4127 29.123 23.3227C28.983 23.4227 28.393 23.8227 28.263 23.8027C27.903 23.5827 27.633 23.2027 27.303 22.9327C26.663 22.3927 25.973 21.8927 25.223 21.5327L25.263 21.4027C25.923 21.1127 26.523 20.5827 27.073 20.1127C27.693 21.0127 28.743 21.3027 29.763 20.8827C29.903 20.2927 29.303 20.6127 28.963 20.6227C28.563 20.6327 28.063 20.3827 27.763 20.1427C27.123 19.6127 27.703 19.4527 28.023 18.9327C28.343 18.4127 28.613 17.7227 28.793 17.1327C29.413 17.5827 30.233 17.6027 30.923 17.3227C30.993 16.7127 30.683 17.0227 30.373 17.0627C30.073 17.1027 28.993 16.8927 28.983 16.5127C29.483 15.1927 29.953 12.8527 31.233 12.0827C31.793 11.7427 32.173 11.7727 32.783 12.0027C33.253 12.1727 33.493 12.4727 33.683 12.9227C33.913 13.4627 34.133 14.4427 34.113 15.0227C34.103 15.4827 34.013 16.5327 33.883 16.9427C33.783 17.2727 33.693 17.1427 33.543 17.2827L33.563 17.2727Z" fill="#FAE9BC"/>
<path d="M17.083 20.8527C16.533 21.6127 15.923 22.3527 15.413 23.1027C15.193 23.4327 14.983 24.2927 14.493 23.7227C14.353 23.5627 13.913 22.4627 13.963 22.3027C14.523 21.5127 15.173 20.8127 15.653 19.9627L16.563 16.8827C17.243 16.6227 18.313 16.4327 18.423 17.4327C18.433 17.5627 18.423 18.1927 18.403 18.3527C18.313 19.5427 17.733 19.9527 17.093 20.8427L17.083 20.8527Z" fill="#FAE9BC"/>
<path d="M18.613 36.6726L15.413 35.7027C15.073 35.8027 14.843 37.0626 14.653 37.3526C14.113 37.0726 13.713 37.0827 13.573 37.7627C13.453 38.3627 13.803 38.6327 14.323 38.8027C14.133 39.1427 13.903 40.1427 14.123 40.4627C14.243 40.6327 15.513 41.1727 15.783 41.2727C16.213 41.4327 16.653 41.5726 17.113 41.6626L17.053 41.9527C16.863 42.0827 15.223 41.7727 14.893 41.7027C14.473 41.6127 13.503 41.3927 13.193 41.1327C12.943 40.9227 13.143 40.1327 13.163 39.8127C13.213 38.9427 13.243 38.0226 13.433 37.1626C13.623 36.3026 14.153 35.3827 14.393 34.5227C14.463 34.5027 14.533 34.5227 14.593 34.5227C15.353 34.7027 16.703 35.1927 17.453 35.4927C17.633 35.5627 18.713 36.0926 18.723 36.2226L18.603 36.6427L18.613 36.6726Z" fill="#FAE9BC"/>
<path d="M17.303 12.0127C17.473 12.0027 17.833 11.9427 17.963 12.0227C18.423 12.6627 18.653 13.6126 17.703 13.9126C17.223 14.0626 16.563 13.8326 16.133 13.6026C15.793 13.4226 15.463 13.1426 15.333 12.7826C15.303 12.7126 15.363 12.6926 15.403 12.6526C15.703 12.3326 16.863 12.0527 17.303 12.0227V12.0127Z" fill="#FAE9BC"/>
<path d="M18.093 39.3927C17.873 39.5827 14.483 38.5327 14.073 38.1827C14.103 38.0727 14.023 37.5527 14.203 37.6027L18.093 38.9727C18.223 39.0627 18.093 39.2527 18.093 39.3927Z" fill="#FAE9BC"/>
<path d="M8.893 22.5227C9.643 22.3227 10.473 22.3726 11.143 22.8026C10.863 23.6526 10.333 24.0327 9.433 23.6827C8.943 23.4927 8.883 22.9927 8.893 22.5227Z" fill="#FAE9BC"/>
<path d="M11.983 35.8426C12.113 35.9726 12.103 36.4427 11.933 36.5727C11.563 36.8027 11.073 36.6627 11.083 36.1827C11.083 36.0827 11.203 35.7727 11.283 35.7227C11.413 35.6427 11.883 35.7427 11.983 35.8327V35.8426Z" fill="#FAE9BC"/>
<path d="M20.483 39.2826C20.893 39.6926 20.123 40.4127 19.713 39.9527C19.203 39.3727 20.163 38.9626 20.483 39.2826Z" fill="#FAE9BC"/>
<path d="M22.753 39.6726C23.003 39.9326 22.953 40.5027 22.483 40.5027C21.493 40.5027 22.273 39.1526 22.753 39.6726Z" fill="#FAE9BC"/>
<path d="M24.893 39.8027C25.443 40.3027 24.433 41.0727 24.243 40.2927C24.143 39.9027 24.623 39.5527 24.893 39.8027Z" fill="#FAE9BC"/>
<path d="M15.033 12.6127C15.033 12.6127 16.883 11.6427 17.553 11.7027C18.223 11.7627 18.293 11.8727 18.463 12.2027C18.633 12.5327 18.463 14.1826 17.993 14.2826C17.523 14.3826 15.713 13.7427 15.713 13.7427L15.213 13.0727L15.043 12.6026L15.033 12.6127Z" fill="#D6A078"/>
<path d="M9.16299 22.1027C9.26299 22.1027 10.773 22.0327 10.973 22.1727C11.173 22.3127 11.513 22.4727 11.473 22.6427C11.433 22.8127 11.343 23.2827 11.003 23.5127C10.663 23.7427 9.86299 24.0527 9.86299 24.0527L8.993 23.7527C8.993 23.7527 8.79299 23.6527 8.72299 23.4527C8.65299 23.2527 8.52299 22.5827 8.59299 22.4427C8.66299 22.3027 8.59299 21.8427 8.72299 21.8727C8.85299 21.9027 9.16299 22.1027 9.16299 22.1027Z" fill="#D6A078"/>
<path d="M11.103 34.9727C11.943 35.4627 12.883 34.9227 12.583 35.9627C12.283 37.0027 12.533 37.3426 11.993 37.1526C11.453 36.9626 10.903 36.6627 10.903 36.6627C10.903 36.6627 10.653 36.4627 10.653 36.2127C10.653 35.9627 11.103 34.9727 11.103 34.9727Z" fill="#D6A078"/>
<path d="M22.283 41.2527C23.9785 41.2527 25.353 40.6752 25.353 39.9627C25.353 39.2503 23.9785 38.6727 22.283 38.6727C20.5875 38.6727 19.213 39.2503 19.213 39.9627C19.213 40.6752 20.5875 41.2527 22.283 41.2527Z" fill="#D6A078"/>
<path d="M24.953 42.1427C24.113 41.9927 19.463 41.3527 18.973 41.3527C18.653 41.3527 17.573 41.3127 16.853 41.2827C16.903 41.2927 16.943 41.3027 16.993 41.3127C17.503 41.4127 17.383 42.2527 16.873 42.2027C16.313 42.1527 15.593 42.0527 14.933 41.8327C14.923 41.8327 14.913 41.8327 14.893 41.8327C14.423 41.7927 13.903 41.7527 13.503 41.4727C13.013 41.1327 12.843 40.4927 12.823 39.8727C12.773 39.8227 12.733 39.7627 12.683 39.7027C12.503 39.4527 12.633 39.2127 12.853 39.1027C12.853 39.0627 12.853 39.0227 12.863 38.9827C12.863 38.9127 12.893 38.8527 12.923 38.8027L12.493 38.4827L11.113 37.8927L10.323 37.6927L10.023 39.1727C10.023 39.1727 12.543 40.9027 12.793 41.0027C13.043 41.1027 12.493 42.1427 13.283 42.4827C14.073 42.8327 16.793 43.3727 17.343 43.2227C17.883 43.0727 18.283 42.6827 18.283 42.6827C18.283 42.6827 22.383 43.7727 24.663 43.5727C24.663 43.5727 25.803 42.2827 24.963 42.1427H24.953Z" fill="#D6A078"/>
<path d="M16.553 16.8827C16.553 16.8827 15.453 19.5327 15.403 19.6227C15.353 19.7127 13.423 22.4427 13.253 22.4627C13.083 22.4827 12.273 22.6727 11.483 22.2527C10.693 21.8327 9.073 21.3927 8.903 21.4127C8.733 21.4327 4.343 22.5127 4.243 22.5127C4.143 22.5127 2.31299 22.1027 2.31299 22.1027L1.09299 21.3127L2.14299 17.4927L4.073 16.8727L2.043 16.2327C2.043 16.2327 1.853 15.9227 1.903 15.7527C1.953 15.5827 2.33299 13.6027 2.33299 13.6027C2.33299 13.6027 4.743 14.0127 5.513 14.6727C6.283 15.3327 7.80299 15.2927 8.33299 15.0527C8.86299 14.8127 10.053 13.9827 11.363 14.0227C12.673 14.0627 13.513 14.4327 13.513 14.4327C13.513 14.4327 12.913 15.7027 13.723 16.2227C14.533 16.7427 13.983 16.7727 15.343 16.7227C16.703 16.6727 16.543 16.8727 16.543 16.8727L16.553 16.8827Z" fill="#D6A078"/>
<path d="M18.623 8.10268C18.933 7.82268 19.183 7.4627 19.433 7.1227C20.203 6.0827 21.193 4.64273 22.063 3.71273C22.113 3.65273 22.523 3.3127 22.553 3.3127C22.593 3.3127 23.023 3.50269 23.013 3.61269L22.843 7.28267C22.643 8.05267 22.673 8.90269 22.503 9.67269C22.363 10.3127 21.913 10.2327 21.933 9.5627C21.963 8.3527 22.163 6.97268 22.263 5.73268C22.303 5.21268 22.463 4.67272 22.453 4.14272L18.913 8.69271C18.763 8.86271 18.583 8.99271 18.333 8.94271L16.443 0.702716C15.953 2.57272 15.333 4.41272 14.803 6.27272C14.713 6.59272 14.463 8.01272 14.203 8.14272C13.903 8.29272 13.813 8.00267 13.653 7.84267C13.493 7.68267 13.473 7.62269 13.363 7.49269C12.093 6.00269 10.973 4.31267 9.82299 2.72267C9.80299 3.97267 9.95299 5.25272 9.99299 6.52272C10.013 7.24272 10.053 8.01268 10.063 8.73268C10.063 8.96268 10.023 9.47272 9.79299 9.58272L4.86298 6.82271C4.79298 6.89271 5.19299 7.67271 5.26299 7.82271C5.63299 8.61271 5.98298 9.43269 6.34298 10.2427C6.63298 10.9127 7.24299 11.9427 7.43299 12.6027C7.51299 12.8927 7.34299 13.0527 7.10299 12.8727C7.08299 12.8527 6.83299 12.4727 6.79299 12.4027C6.19299 11.3827 5.66299 10.0027 5.16299 8.90267C4.86299 8.25267 4.08298 6.98272 4.22298 6.27272C4.32298 5.72272 5.44298 6.41271 5.73298 6.57271C6.26298 6.85271 6.79298 7.27267 7.36298 7.47267L9.40299 8.77272C9.47299 8.68272 9.28299 7.83271 9.27299 7.63271C9.23299 6.94271 9.33299 6.1327 9.32299 5.4327C9.31299 4.6427 9.08299 2.94271 9.29299 2.26271C9.32299 2.17271 9.43298 2.12269 9.45298 2.05269C9.45298 1.99269 9.34299 1.64271 9.57299 1.69271C9.60299 1.69271 9.95299 1.99269 9.99299 2.05269C10.193 2.27269 10.513 2.72268 10.703 2.98268C11.743 4.36268 12.683 5.89272 13.803 7.20272C13.843 7.25272 13.803 7.32267 13.953 7.28267L15.273 2.53267C15.653 1.88267 15.703 0.852684 16.053 0.232684C16.293 -0.187316 16.783 0.00267464 16.913 0.472675C17.513 2.62267 17.893 4.81268 18.383 6.98268C18.463 7.33268 18.753 7.74271 18.623 8.13271V8.10268Z" fill="#1A1A1A"/>
<path d="M31.473 11.2826C32.313 11.0126 33.703 11.5027 34.163 12.2627C34.933 13.5527 34.923 15.4327 34.653 16.8627C35.573 16.5227 36.603 17.1627 36.973 18.0227C37.813 19.9627 36.353 23.8127 35.143 25.4327C33.933 27.0527 32.313 28.1527 30.863 29.4627C30.783 29.5427 30.553 29.6327 30.523 29.6727C30.433 29.8127 30.263 30.5926 30.163 30.8426C29.553 32.3426 28.103 34.4926 26.733 35.4026C26.553 35.5226 25.613 35.9527 25.583 36.0627L25.503 37.2727C26.013 37.4927 26.193 37.4427 26.213 38.0727C26.233 38.7027 26.193 39.6027 26.153 40.2727C26.133 40.6927 26.063 42.1927 25.893 42.4627C25.753 42.6927 25.173 42.4127 25.113 42.7327C25.043 43.0927 25.173 43.6327 25.173 44.0227C25.173 44.1927 25.113 44.3927 25.113 44.6127C25.123 45.4027 25.233 46.2227 25.243 47.0127C25.243 47.3127 25.343 48.3126 24.953 48.2826C24.563 48.1526 24.673 47.5827 24.643 47.2927C24.533 46.3727 24.543 45.9427 24.563 45.0427C24.583 44.2027 24.543 43.4027 24.603 42.5627C23.833 42.5927 23.063 42.6627 22.293 42.6327C21.363 42.5927 20.313 42.3926 19.393 42.2226C18.793 42.1126 18.193 41.9426 17.593 41.8526C17.563 42.2326 17.303 42.5027 16.913 42.5027C15.993 42.4827 14.223 42.1527 13.373 41.8127C13.253 41.7627 12.933 41.6227 12.853 41.5527C12.463 41.1927 12.663 39.9027 12.573 39.3927C12.243 39.0927 11.813 38.9626 11.463 38.7226C11.283 38.6026 10.773 38.0627 10.673 38.0227C10.573 37.9827 10.483 38.2527 10.463 38.3327C9.893 40.8427 8.993 43.3027 8.323 45.8027C8.263 46.0127 8.24299 46.7226 8.00299 46.7826C7.42299 46.9226 7.81299 45.5327 7.88299 45.2327C8.37299 43.1827 9.073 41.1527 9.653 39.1427C9.793 38.6427 9.90299 38.1327 10.093 37.6427C10.093 37.4227 9.83299 37.3227 9.75299 37.2327C9.71299 37.1827 9.45299 36.8227 9.44299 36.7927C9.38299 36.6627 9.40299 36.5227 9.42299 36.3827C9.53299 35.7927 9.83299 35.1526 10.033 34.5926C10.163 34.2226 10.453 33.0726 10.813 32.9726C11.003 32.9126 11.453 33.0326 11.513 32.9726C11.843 32.3126 11.933 31.5727 12.123 30.8627C11.783 30.6127 11.393 30.4427 11.063 30.1727C10.143 29.4327 9.12299 28.0127 8.66299 26.9227C7.95299 25.2827 7.96298 23.5727 8.37298 21.8627C8.25298 21.7527 7.40299 22.1727 7.22299 22.2327C5.80299 22.6827 3.85299 23.1826 2.47299 22.4126C2.24299 22.2826 1.67299 21.7227 1.49299 21.6427C1.32299 21.5727 1.08299 21.6427 0.942991 21.4827C0.902991 21.4127 0.962985 20.9227 0.982985 20.8027C1.12298 19.7727 1.60299 18.6726 1.78299 17.6626C1.80299 17.5426 1.71299 17.4227 1.78299 17.2627C1.89299 17.0427 2.40298 17.1627 2.62298 17.1327C2.95298 17.0927 3.24299 16.9627 3.56299 16.9427L2.64299 16.5926C2.00299 16.5426 1.55298 16.6227 1.62298 15.8127C1.65298 15.5027 1.96299 13.6327 2.06299 13.4627C2.24299 13.1827 2.93299 13.3427 3.24299 13.3927C5.41299 13.8127 6.08299 15.6827 8.67299 14.6727C9.47299 14.3627 10.163 13.9227 11.063 13.8227C11.923 13.7327 12.513 13.9427 13.293 14.2027C13.553 13.4627 14.013 12.8327 14.663 12.3627C15.393 11.8427 16.483 11.4727 17.373 11.3827C19.623 11.1627 21.093 11.6027 22.613 13.2927C23.163 13.9027 23.783 14.6927 23.973 15.5027C24.173 14.9627 24.413 14.4427 24.563 13.8827C24.973 12.3127 25.553 8.88265 26.973 7.98265C28.223 7.18265 29.803 8.17269 30.663 9.14269C30.933 9.44269 31.483 10.4827 31.533 10.8727C31.553 11.0227 31.543 11.1526 31.473 11.2826ZM30.213 9.61266C30.093 9.47266 29.383 8.87267 29.223 8.75267C29.023 8.62267 28.213 8.30265 27.993 8.29265C26.833 8.24265 26.243 10.0827 25.923 10.9527C25.943 11.3827 25.453 12.3127 25.503 12.6727C25.563 13.0827 26.523 13.5627 26.903 13.6127C27.173 13.6427 27.453 13.5927 27.733 13.6327C27.863 13.6727 27.853 13.8227 27.833 13.9427C26.893 14.1727 25.963 13.9627 25.313 13.2327C25.193 14.5527 24.573 15.7427 24.093 16.9527C24.453 17.4227 24.893 17.8026 25.413 18.1026L25.443 18.4126C25.163 18.5826 24.013 17.6827 23.863 17.3827C23.663 17.4527 23.623 17.6726 23.493 17.8526C23.023 18.4926 22.493 19.0227 21.933 19.5627C21.863 19.6327 21.723 19.6327 21.663 19.7127C21.533 19.9027 22.463 20.0427 22.543 20.0727L24.783 21.2027C24.873 21.2027 25.053 21.0927 25.133 21.0427C26.803 19.8927 27.663 18.6827 28.343 16.7927C29.023 14.9027 29.363 12.8127 30.983 11.5627C30.843 10.9627 30.643 10.0927 30.243 9.61266H30.213ZM33.563 17.2727C33.713 17.1327 33.803 17.2627 33.903 16.9327C34.033 16.5127 34.113 15.4627 34.133 15.0127C34.153 14.4327 33.923 13.4626 33.703 12.9126C33.513 12.4526 33.283 12.1627 32.803 11.9927C32.193 11.7727 31.823 11.7427 31.253 12.0727C29.973 12.8427 29.503 15.1927 29.003 16.5027C29.003 16.8727 30.093 17.0827 30.393 17.0527C30.703 17.0127 31.003 16.6927 30.943 17.3127C30.243 17.5927 29.433 17.5727 28.813 17.1227C28.633 17.7127 28.373 18.4027 28.043 18.9227C27.713 19.4427 27.143 19.6127 27.783 20.1327C28.083 20.3827 28.583 20.6327 28.983 20.6127C29.323 20.6027 29.923 20.2827 29.783 20.8727C28.773 21.2927 27.713 21.0026 27.093 20.1026C26.543 20.5726 25.933 21.1027 25.283 21.3927L25.243 21.5227C25.993 21.8727 26.683 22.3827 27.323 22.9227C27.653 23.1927 27.913 23.5727 28.283 23.7927C28.403 23.8127 29.003 23.4127 29.143 23.3127C30.383 22.4027 31.043 21.1927 31.693 19.8227C32.213 18.7327 32.683 18.1027 33.583 17.2627L33.563 17.2727ZM22.253 13.8127C22.313 14.0827 22.123 15.4927 21.703 15.3727C21.463 15.3027 21.773 14.6427 21.793 14.4327C21.813 14.1927 21.833 13.4327 21.733 13.2627C21.623 13.0727 20.773 12.4827 20.543 12.3727C20.143 12.1927 19.393 11.9227 18.963 11.8727C18.843 11.8627 18.733 11.8727 18.613 11.8727C18.653 12.0727 18.833 12.1627 18.933 12.3627C19.173 12.8827 18.983 13.9327 18.503 14.2727C17.933 14.6727 17.273 14.6926 16.633 14.4726C16.103 14.2826 15.443 13.9827 15.123 13.5227C15.053 13.4227 14.933 13.0027 14.823 13.0427C14.783 13.0627 14.453 13.4027 14.403 13.4627C14.313 13.5827 14.043 13.9927 13.963 14.1327C13.783 14.4627 13.733 15.1226 13.753 15.4726C13.773 15.7026 14.183 16.3726 14.433 16.4126C14.723 16.4626 15.403 16.4326 15.723 16.4126C16.313 16.3526 17.213 16.0227 17.743 16.0227C17.953 16.0227 18.143 16.1326 18.333 16.1526C18.753 16.1926 20.763 16.3027 20.923 16.6727L20.883 16.8627L18.883 16.6727C18.923 16.9627 19.033 17.2727 19.073 17.5527C19.203 18.6827 19.013 19.1827 18.443 20.0827C17.783 21.1427 16.933 22.0226 16.203 23.0326C16.133 23.1326 15.713 23.6827 15.773 23.7427C16.703 23.7627 17.573 23.8926 18.443 24.2226C19.663 24.6826 20.633 25.4627 21.383 26.5427C21.833 27.1927 22.553 28.4827 22.643 29.2527C22.663 29.3927 22.683 29.4926 22.563 29.5926C22.203 29.8926 22.013 28.8427 21.913 28.6127C20.463 25.4727 17.623 23.7227 14.143 24.6727C13.773 24.7727 13.243 25.0626 12.873 25.1626C12.693 25.2126 12.503 25.1927 12.533 24.9527C12.583 24.5327 13.633 24.3226 13.943 24.1526C14.003 24.1126 14.113 24.0827 14.093 23.9827C14.023 23.6627 13.183 23.7126 12.923 23.6526C12.513 23.5626 12.103 23.2626 11.723 23.0926C11.513 23.4926 11.273 24.0227 10.843 24.2327C10.393 24.4527 9.55298 24.3727 9.12298 24.1327C8.96298 24.0427 8.85299 23.9027 8.70299 23.8027C8.73299 24.2327 8.79299 26.0327 9.10299 26.2527C9.35299 26.4327 10.273 26.3026 10.563 26.1526C10.693 26.0826 11.043 25.6527 11.163 25.9827C11.303 26.4027 10.363 26.8026 10.033 26.8426C9.81299 26.8726 9.58299 26.8426 9.35299 26.8426C9.32299 26.8726 9.61299 27.4227 9.67299 27.4627C10.003 27.6327 10.893 27.4627 11.223 27.2627C11.453 27.1227 11.833 26.5926 11.973 26.9126C12.143 27.2726 11.183 27.8826 10.893 27.9726C10.673 28.0326 10.433 28.0127 10.223 28.0827C10.173 28.0927 10.083 28.0627 10.133 28.1827C10.153 28.2227 10.363 28.6027 10.393 28.6427C10.763 29.1627 11.893 30.0826 12.453 30.4126C12.723 30.5726 14.053 31.1027 14.093 31.3127C14.193 31.8827 12.633 31.0427 12.543 31.1427C12.473 31.5527 12.443 31.9926 12.343 32.4026C12.263 32.7226 12.003 33.1626 11.993 33.4726C11.983 33.7126 13.333 34.4427 13.573 34.6327C13.983 34.6727 14.043 34.0627 14.393 34.0627C14.673 34.0627 15.593 34.3327 15.913 34.4327C16.523 34.6127 17.333 34.9026 17.913 35.1526C18.103 35.2326 19.233 35.8126 19.303 35.9026C19.443 36.0926 19.283 36.5527 19.163 36.7527L19.373 36.8727C21.153 37.2427 22.963 37.3927 24.783 37.3727C25.093 37.3127 25.053 36.4227 25.143 36.1427C23.743 36.4427 22.363 36.4726 21.053 35.8526C20.753 35.7126 20.283 35.5227 20.223 35.1827C20.073 34.3927 20.893 35.1127 21.203 35.2427C22.233 35.6827 23.663 35.7727 24.753 35.5227C27.183 34.9727 29.013 31.9327 29.933 29.7927C30.023 29.5827 29.983 29.3727 30.143 29.1727C30.693 28.4527 32.163 27.4826 32.903 26.8526C33.503 26.3426 34.333 25.4727 34.793 24.8227C35.423 23.9227 36.313 21.5427 36.493 20.4527C36.623 19.6327 36.703 18.5227 36.113 17.8627C35.223 16.8627 33.863 17.7026 33.193 18.5326C32.913 18.8826 32.733 19.3026 32.433 19.6526C32.513 20.0426 32.573 20.4026 32.873 20.7226C33.023 20.8726 33.463 21.1427 33.663 21.2327C33.793 21.2927 34.463 21.3927 33.953 21.6227C33.443 21.8527 32.363 20.9427 32.123 20.5027C32.053 20.5027 31.563 21.5727 31.463 21.7327C31.313 21.9627 30.913 22.2627 30.863 22.5627C30.823 22.8327 31.633 23.8126 31.893 23.9126C32.063 23.9726 32.533 23.9127 32.313 24.2727C31.933 24.8927 30.613 23.4327 30.483 23.0427C30.323 23.0027 29.923 23.5027 29.763 23.6127C29.453 23.8327 28.983 23.9927 28.633 24.1427L29.443 25.1827C29.583 25.5127 30.403 26.4327 30.033 26.7427C29.983 26.7927 29.923 26.8127 29.843 26.7927C29.723 26.7627 29.123 25.7627 28.983 25.5727C27.263 23.3027 24.493 21.6826 21.943 20.5326L19.573 19.7226L19.543 19.4627C19.973 19.3327 20.573 19.6526 20.933 19.5926C21.053 19.5726 21.413 19.3027 21.523 19.2027C22.033 18.7627 23.393 17.1527 23.583 16.5227C23.743 15.9927 23.453 15.1427 23.013 14.7927C22.863 14.7927 22.713 16.2427 22.203 16.0227L22.713 14.3526L22.273 13.8127H22.253ZM17.303 12.0127C16.863 12.0427 15.703 12.3227 15.403 12.6427C15.363 12.6827 15.303 12.7027 15.333 12.7727C15.463 13.1427 15.793 13.4126 16.133 13.5926C16.573 13.8226 17.233 14.0526 17.703 13.9026C18.653 13.6026 18.423 12.6527 17.963 12.0127C17.833 11.9327 17.463 11.9927 17.303 12.0027V12.0127ZM4.38299 14.4227C3.83299 14.1327 3.15299 13.9127 2.53299 13.9427L2.20299 15.9527C2.71299 15.9827 3.21299 16.1127 3.69299 16.3127C3.95299 16.4127 4.74299 16.7327 4.74299 17.0227C4.74299 17.4627 4.13299 17.3427 3.86299 17.3927C3.37299 17.4827 2.88299 17.6027 2.39299 17.6827L1.55299 21.1127C2.31299 21.4727 3.04299 22.1527 3.92299 22.1927C6.21299 22.2827 8.32299 20.6827 10.593 21.0427C11.543 21.1927 12.573 21.6127 13.273 22.2627C14.083 21.2827 14.873 20.2727 15.353 19.0827L15.903 17.0027C15.623 17.2427 15.353 17.0827 15.083 17.0727C14.953 17.0727 14.853 17.1327 14.713 17.1327C14.103 17.0927 13.523 16.6227 13.303 16.0627C13.153 15.6827 13.103 15.1127 13.103 14.7027L13.043 14.6227C12.423 14.4027 11.923 14.2827 11.253 14.3327C9.78299 14.4327 8.69299 15.6227 7.16299 15.5727C5.87299 15.5227 5.40299 14.9727 4.38299 14.4227ZM17.083 20.8526C17.723 19.9626 18.303 19.5427 18.393 18.3627C18.403 18.2027 18.423 17.5727 18.413 17.4427C18.303 16.4327 17.243 16.6227 16.553 16.8927L15.643 19.9726C15.163 20.8226 14.513 21.5227 13.953 22.3127C13.913 22.4827 14.343 23.5727 14.483 23.7327C14.983 24.3027 15.183 23.4427 15.403 23.1127C15.913 22.3527 16.533 21.6127 17.073 20.8627L17.083 20.8526ZM8.89299 22.5227C8.89299 22.9927 8.943 23.4927 9.433 23.6827C10.333 24.0327 10.853 23.6527 11.143 22.8027C10.483 22.3727 9.64299 22.3227 8.89299 22.5227ZM18.613 36.6727L18.733 36.2527C18.723 36.1227 17.643 35.5927 17.463 35.5227C16.713 35.2227 15.373 34.7227 14.603 34.5527C14.533 34.5327 14.463 34.5227 14.403 34.5527C14.163 35.4127 13.633 36.3327 13.443 37.1927C13.253 38.0527 13.213 38.9726 13.173 39.8426C13.153 40.1726 12.953 40.9526 13.203 41.1626C13.513 41.4226 14.483 41.6427 14.903 41.7327C15.233 41.8027 16.873 42.1127 17.063 41.9827L17.123 41.6927C16.673 41.5927 16.233 41.4627 15.793 41.3027C15.523 41.2027 14.253 40.6627 14.133 40.4927C13.913 40.1727 14.133 39.1727 14.333 38.8327C13.813 38.6627 13.463 38.3827 13.583 37.7927C13.723 37.1027 14.123 37.1027 14.663 37.3827C14.853 37.0927 15.083 35.8227 15.423 35.7327L18.623 36.7027L18.613 36.6727ZM11.983 35.8426C11.883 35.7426 11.413 35.6527 11.283 35.7327C11.203 35.7827 11.083 36.0827 11.083 36.1927C11.063 36.6727 11.563 36.8127 11.933 36.5827C12.103 36.4527 12.113 35.9826 11.983 35.8526V35.8426ZM18.093 39.3927C18.103 39.2627 18.233 39.0726 18.093 38.9726L14.203 37.6026C14.023 37.5526 14.103 38.0627 14.073 38.1827C14.483 38.5327 17.873 39.5727 18.093 39.3927ZM20.483 39.2826C20.163 38.9626 19.203 39.3727 19.713 39.9527C20.123 40.4127 20.883 39.6926 20.483 39.2826ZM22.753 39.6727C22.273 39.1527 21.483 40.5027 22.483 40.5027C22.953 40.5027 23.003 39.9327 22.753 39.6727ZM24.893 39.8027C24.613 39.5527 24.143 39.9027 24.243 40.2927C24.433 41.0727 25.443 40.2927 24.893 39.8027Z" fill="#1A1A1A"/>
<path d="M9.403 44.7827C9.373 44.6627 9.33299 44.5727 9.35299 44.4427C9.40299 44.0227 9.733 42.8427 9.933 42.4827C10.083 42.2227 10.313 42.3527 10.323 42.6027C10.323 42.7227 10.033 43.8927 9.97299 44.0827C9.92299 44.2327 9.643 44.9427 9.403 44.7827Z" fill="#1A1A1A"/>
<path d="M23.423 43.7527L23.713 43.8127C23.943 44.5627 23.713 45.3427 23.803 46.1027C23.473 46.5527 23.323 45.8127 23.293 45.5327C23.273 45.3227 23.353 43.8027 23.433 43.7527H23.423Z" fill="#1A1A1A"/>
<path d="M22.893 45.8327V48.2527L22.683 48.3527L22.543 48.2327C22.483 48.1027 22.483 46.4327 22.513 46.1827C22.543 45.9327 22.653 45.6927 22.893 45.8327Z" fill="#1A1A1A"/>
<path d="M21.983 43.6227C22.013 43.7727 21.933 43.9026 21.923 44.0426C21.913 44.3826 22.053 45.6026 21.923 45.7826C21.853 45.8826 21.663 45.8226 21.593 45.7226C21.453 45.5226 21.493 43.8127 21.683 43.6127C21.783 43.5027 21.873 43.6027 21.973 43.6127L21.983 43.6227Z" fill="#1A1A1A"/>
<path d="M11.343 41.9327C11.413 42.0027 10.963 43.7126 10.813 43.9026C10.753 43.9826 10.703 44.0427 10.593 44.0027C10.393 43.9427 10.643 42.9927 10.693 42.8127C10.733 42.6727 10.973 41.9627 11.053 41.9427C11.133 41.9227 11.243 41.9427 11.333 41.9427L11.343 41.9327Z" fill="#1A1A1A"/>
<path d="M11.213 39.5227C11.213 40.1927 10.843 40.7927 10.703 41.4327L10.473 41.4627C10.103 40.8927 10.733 40.2627 10.803 39.6727C10.863 39.5227 11.063 39.5227 11.213 39.5227Z" fill="#1A1A1A"/>
<path d="M24.223 25.3427C25.083 26.5327 25.883 27.9527 26.433 29.3327C26.523 29.5527 26.923 30.4827 26.723 30.6227C26.643 30.6427 26.543 30.6427 26.473 30.5927C26.353 30.5227 26.033 29.4627 25.933 29.2427C25.393 28.0427 24.513 26.5827 23.743 25.5327C22.623 24.0027 21.223 22.7127 19.543 21.8127L19.463 21.6327C19.563 21.3827 20.143 21.6827 20.303 21.7627C21.813 22.4627 23.263 24.0027 24.223 25.3427Z" fill="#1A1A1A"/>
<path d="M17.543 30.6927C17.943 30.6927 17.793 31.1827 17.843 31.4327C17.933 31.9627 18.123 32.5927 18.323 33.0927C18.403 33.2927 18.813 33.7927 18.443 33.8627C17.933 33.9627 17.463 32.1127 17.423 31.7427C17.403 31.5827 17.403 30.7427 17.553 30.6927H17.543Z" fill="#1A1A1A"/>
<path d="M25.543 32.2627H25.663C26.173 32.5627 25.703 32.8627 25.383 33.0727C24.963 33.3427 23.953 33.6827 23.473 33.5427C23.393 33.5227 23.333 33.4527 23.303 33.3827C23.223 33.0727 23.893 33.0827 24.093 33.0227C24.433 32.9227 24.953 32.7327 25.263 32.5727C25.403 32.5027 25.413 32.3127 25.553 32.2727L25.543 32.2627Z" fill="#1A1A1A"/>
<path d="M24.183 34.2127C24.283 34.2027 24.423 34.1527 24.493 34.2527C24.873 34.8027 23.313 34.9427 23.023 34.9327C22.793 34.9227 21.953 34.8027 21.923 34.5527C21.883 34.1427 22.773 34.4027 23.063 34.3927C23.413 34.3927 23.833 34.2527 24.183 34.2127Z" fill="#1A1A1A"/>
<path d="M20.753 28.3526C20.333 28.4526 20.353 28.1427 20.173 27.9327C20.043 27.7827 19.843 27.5727 19.683 27.4427C19.523 27.3127 19.023 27.0127 18.963 26.9227C18.863 26.7727 19.023 26.6126 19.163 26.5926C19.643 26.5326 20.953 27.7626 20.743 28.3426L20.753 28.3526Z" fill="#1A1A1A"/>
<path d="M16.283 25.6227C16.283 25.6227 16.273 25.4026 16.283 25.3426C16.463 24.8526 18.113 25.5327 18.383 25.8827C18.553 26.1027 18.483 26.2527 18.203 26.2027C17.923 26.1527 17.383 25.8027 17.003 25.7127C16.893 25.6827 16.303 25.6627 16.273 25.6227H16.283Z" fill="#1A1A1A"/>
<path d="M26.383 33.1427C26.513 33.0227 26.673 32.8526 26.793 32.7226C26.883 32.6226 26.933 32.3227 27.143 32.3827C27.643 32.5327 26.743 33.4627 26.563 33.6127C26.323 33.8127 25.853 34.2127 25.583 33.9427C25.493 33.7927 26.253 33.2627 26.373 33.1427H26.383Z" fill="#1A1A1A"/>
<path d="M16.533 30.9627C16.533 30.9627 16.593 31.7927 16.623 31.9527C16.703 32.3727 16.963 32.6926 16.933 33.1026C16.593 33.1626 16.423 32.7927 16.323 32.5127C16.223 32.2327 16.023 31.1427 16.293 30.9927C16.353 30.9627 16.503 30.9327 16.553 30.9627H16.533Z" fill="#1A1A1A"/>
<path d="M3.383 18.5727C3.193 18.7627 3.063 19.1327 3.103 19.3927C3.783 19.5027 4.443 19.7126 5.133 19.5926L5.29301 19.8026L5.223 19.9627C4.953 20.2227 2.993 20.0427 2.713 19.7527C2.473 19.5027 2.603 18.6627 2.773 18.3927C3.203 17.7127 4.54299 18.1726 5.20299 18.1726C6.64299 18.1726 7.583 17.0527 9.163 17.1227C9.373 17.1327 10.443 17.3127 10.573 17.3927C10.723 17.4827 10.733 17.6227 10.623 17.7427L9.083 17.5827C7.253 17.8327 6.473 18.8026 4.493 18.6026C4.173 18.5726 3.62299 18.3127 3.37299 18.5727H3.383Z" fill="#1A1A1A"/>
<path d="M3.64299 21.2627C3.50299 21.1127 3.513 20.9226 3.743 20.9026C3.953 20.8826 4.13299 21.0327 4.33299 21.0627C5.68299 21.2927 7.54299 19.8126 8.86299 19.9726C9.11299 20.0026 9.19299 20.2126 8.97299 20.2826C8.64299 20.4026 8.19299 20.4427 7.83299 20.5727C6.87299 20.9227 6.18299 21.4626 5.09299 21.5326C4.70299 21.5626 3.933 21.5627 3.653 21.2527L3.64299 21.2627Z" fill="#1A1A1A"/>
<path d="M9.19299 18.8927C9.92299 18.8227 10.633 19.0227 11.323 19.1927L11.343 19.4227C11.253 19.7027 10.363 19.4227 10.143 19.3927C9.65299 19.3527 8.99299 19.3927 8.52299 19.5227C8.203 19.6127 7.89299 19.9727 7.64299 19.6127C7.78299 19.4927 7.913 19.3027 8.073 19.2027C8.283 19.0727 8.933 18.9027 9.183 18.8827L9.19299 18.8927Z" fill="#1A1A1A"/>
<path d="M9.14299 16.1427C9.06299 15.8327 9.25299 15.7527 9.47299 15.6027C10.063 15.2127 10.933 15.1027 11.633 15.1827C11.963 15.2227 12.553 15.3427 12.083 15.6827C11.483 15.5927 10.833 15.6227 10.243 15.7927C10.043 15.8527 9.24299 16.3127 9.14299 16.1427Z" fill="#1A1A1A"/>
<path d="M12.963 21.2027C12.793 21.3127 12.263 20.9426 12.063 20.8526C11.563 20.6426 11.053 20.4826 10.543 20.3026C10.423 20.2126 10.573 20.0226 10.683 19.9826C11.113 19.8526 12.893 20.4827 13.013 20.9427C13.033 21.0027 13.003 21.1727 12.963 21.1927V21.2027Z" fill="#1A1A1A"/>
<path d="M11.883 18.0827C11.443 17.7227 12.443 17.7627 12.643 17.8027C12.923 17.8527 14.333 18.3827 14.493 18.5527C14.683 18.7527 14.573 18.8927 14.323 18.9127L11.883 18.0827Z" fill="#1A1A1A"/>
<path d="M5.11299 15.3727V15.6827C4.86299 15.9727 3.43299 15.0127 3.11299 14.9027C3.03299 14.2027 3.853 14.7327 4.183 14.9027C4.483 15.0627 4.75299 15.3627 5.11299 15.3727Z" fill="#1A1A1A"/>
</svg>
