<svg width="50" height="36" viewBox="0 0 50 36" fill="none" xmlns="http://www.w3.org/2000/svg">
<path d="M49.1807 31.7119C49.1207 31.3719 48.9707 30.9819 48.8207 30.6119C48.7707 30.4819 48.7207 30.3619 48.7007 30.2819C48.5707 29.8919 48.4107 29.5219 48.2607 29.1519C48.0807 28.7119 47.9007 28.3019 47.8107 27.9619C47.7707 27.8119 47.7007 27.6719 47.6207 27.5419C47.3507 27.1519 47.1507 26.622 46.9407 26.062C46.8207 25.732 46.6907 25.3819 46.5307 25.0419C46.3607 24.6619 46.1807 24.2819 46.0007 23.9119C45.4707 22.7819 44.9607 21.7119 44.6107 20.6119C44.5207 20.3319 44.3607 20.1219 44.2507 20.0119C43.9807 19.4819 43.7407 18.9219 43.4807 18.3419C43.2007 17.7119 42.9207 17.0619 42.6007 16.4219C42.5007 16.2319 42.3907 16.0919 42.2907 15.9919C42.2907 15.9719 42.2807 15.952 42.2707 15.942C42.2107 15.752 42.1307 15.5219 42.0207 15.3019C41.7307 14.7119 41.3807 14.0719 41.0507 13.4519C40.9007 13.1819 40.7607 12.9119 40.6207 12.6519C40.3607 12.1619 40.1207 11.6719 39.8707 11.1619C39.5507 10.5019 39.2107 9.81191 38.8307 9.14191C38.4907 8.54191 38.0507 7.77191 37.6307 7.21191C37.5707 7.12191 37.5607 7.12195 37.5307 7.06195C37.5007 7.01195 37.4607 6.94191 37.4007 6.83191C37.3107 6.68191 37.2007 6.55191 37.1007 6.46191C37.0507 6.34191 36.9807 6.21191 36.8807 6.08191C36.7307 5.88191 36.5607 5.74194 36.4007 5.61194C36.3707 5.58194 36.3207 5.54191 36.2907 5.52191C36.1807 5.39191 36.0507 5.22193 35.9207 5.04193C35.7907 4.87193 35.6707 4.69191 35.5307 4.52191L35.5007 4.48193C35.2907 4.22193 35.1807 4.10195 35.0807 4.00195C34.9207 3.85195 34.7607 3.7619 34.6307 3.7019C34.5307 3.5719 34.3707 3.40191 34.1307 3.27191C34.0307 3.22191 33.9807 3.19195 33.3907 3.00195C32.8307 2.82195 32.7207 2.79192 32.5407 2.78192C32.4807 2.78192 32.4307 2.78192 32.3707 2.78192C31.5807 2.78192 30.6107 3.12194 29.9907 3.61194C29.5607 3.95194 28.9607 4.7619 28.7607 5.2019C28.2007 6.4019 27.6307 7.5719 27.0307 8.8219C26.9207 9.0519 26.8107 9.28194 26.7007 9.49194C26.3707 10.1519 26.0607 10.7819 25.7607 11.5419C25.5507 12.0819 25.3107 12.612 25.0807 13.132C24.8207 12.462 24.5307 11.7719 24.2007 11.0419C24.1507 10.9319 24.0907 10.7719 24.0307 10.6019C23.8407 10.1019 23.6307 9.54192 23.2807 9.09192C23.1307 8.90192 22.9607 8.77196 22.8307 8.69196C22.7507 8.57196 22.6407 8.41192 22.4607 8.28192C22.2307 8.11192 21.5007 7.81193 21.4507 7.79193C21.2207 7.71193 20.9807 7.68195 20.7407 7.68195C20.2607 7.68195 19.7907 7.83195 19.3407 8.12195C19.2707 8.17195 19.1907 8.22193 18.7707 8.60193C18.3707 8.97193 18.2707 9.07195 18.1707 9.25195C18.1407 9.29195 18.1307 9.3219 18.1307 9.3219C18.1307 9.3219 18.1207 9.33192 18.1107 9.34192C18.0507 9.23192 17.9807 9.11195 17.9107 9.00195C17.7807 8.77195 17.6907 8.66194 17.6007 8.55194C17.5707 8.52194 17.5607 8.50191 17.5307 8.46191C17.5007 8.42191 17.4407 8.28196 17.3907 8.19196C17.3107 8.02196 17.2207 7.83191 17.0907 7.64191C16.8407 7.25191 15.9707 5.96193 15.2507 5.35193C15.1507 5.24193 14.9207 4.99192 14.5207 4.84192C14.1207 4.69192 13.2607 4.66193 13.1507 4.66193C13.0907 4.66193 13.0407 4.66193 12.9907 4.66193C12.5607 4.70193 12.2607 4.90191 12.1107 5.02191C11.0407 5.54191 10.5207 6.30192 10.0107 7.03192C9.9307 7.14192 9.86072 7.25195 9.78072 7.37195C9.75072 7.42195 9.72073 7.47191 9.69073 7.52191C8.26073 10.2419 7.09073 13.0619 5.97073 15.7919C5.34073 17.3319 4.68072 18.9119 3.99072 20.4719C3.76072 20.9919 3.56071 21.5119 3.36071 22.0219C3.30071 22.1819 3.24072 22.3319 3.18072 22.4919C2.92072 23.1519 2.71071 23.8219 2.51071 24.4719C2.33071 25.0419 2.16072 25.5819 1.96072 26.1019C1.83072 26.4419 1.70072 26.7819 1.56072 27.1419C1.03072 28.5119 0.480719 29.9219 0.180719 31.4019C0.120719 31.5419 0.0207262 31.762 0.000726204 32.062C0.000726204 32.172 -0.0192799 32.3919 0.15072 32.9819C0.30072 33.5319 0.420725 33.7419 0.530725 33.8919C0.900725 34.4019 1.9607 34.9519 2.6007 34.9619C2.6307 34.9619 2.67071 34.9619 2.70071 34.9619C2.87071 34.9619 3.04071 34.9619 3.20071 34.9519C3.34071 34.9519 3.4707 34.942 3.5707 34.942H3.6007C3.8607 34.942 4.13071 34.9419 4.39071 34.9619C4.80071 34.9619 5.2207 34.9819 5.6307 34.9819C5.9907 34.9819 6.31071 34.9819 6.61071 34.9619C6.61071 34.9619 6.6207 34.9619 6.6307 34.9619C6.7707 35.0019 6.99073 35.0519 7.25073 35.0519C7.27073 35.0519 7.28071 35.0519 7.30071 35.0519C7.49071 35.0519 7.67071 35.0319 7.83071 35.0119C7.97071 34.9919 8.10072 34.9819 8.21072 34.9819C8.26072 34.9819 8.30071 34.9819 8.33071 34.9819C8.68071 35.0319 9.01071 35.062 9.36071 35.062C9.57071 35.062 9.77072 35.0619 9.96072 35.0419C10.1507 35.0419 10.3407 35.0219 10.5607 35.0219C11.2807 35.0219 12.0307 35.0219 12.8407 35.0219C14.7007 35.0219 16.5907 35.0319 18.3607 35.0419C18.4507 35.0419 18.6407 35.042 18.7507 35.062C18.8407 35.082 18.9307 35.0919 19.0207 35.0919C19.1607 35.0919 19.3007 35.0719 19.4307 35.0219C19.7207 35.0419 20.0407 35.0419 20.4107 35.0419C20.6507 35.0419 20.8807 35.0419 21.1107 35.0419C21.3407 35.0419 21.5507 35.0419 21.7707 35.0419H21.8607C24.0207 35.0419 26.2607 35.062 28.4407 35.062H28.4507C28.6007 35.062 28.7407 35.0619 28.8607 35.0519C28.9607 35.0519 29.0507 35.0519 29.1207 35.0519C29.1207 35.0519 29.1307 35.0519 29.1407 35.0519C29.1607 35.0519 29.1907 35.0619 29.2107 35.0719C29.3507 35.1019 29.5507 35.1419 29.7807 35.1419C29.9707 35.1419 30.1507 35.1119 30.3207 35.0519C33.2007 35.1019 36.0607 35.1019 38.7207 35.1019C39.4307 35.1019 40.1407 35.1019 40.8507 35.1019C41.5607 35.1019 42.2807 35.1019 43.0007 35.1019H43.5407H43.5907C44.2607 35.1019 44.8907 35.1019 45.5207 35.1519C45.5807 35.1519 45.6407 35.1519 45.7307 35.1519C45.9307 35.1519 46.8707 35.1119 47.2207 35.0419C47.9207 34.8819 48.5107 34.3619 48.8807 33.5819C49.1707 32.9619 49.2807 32.2719 49.1707 31.7019L49.1807 31.7119Z" fill="#FAE9BC"/>
<path d="M15.2207 8.48193C15.9807 9.70193 16.5507 11.0419 17.3207 12.2319C17.3807 12.3219 17.7607 12.8919 17.8007 12.9219C17.9507 13.0319 18.2507 13.0419 18.3807 12.9119C18.4907 12.8019 18.4807 12.6919 18.5607 12.5819C18.9507 12.0019 19.3107 11.432 19.7507 10.882C19.9707 10.602 20.3307 10.112 20.6307 9.94196C21.0407 9.72196 21.4907 9.97191 21.7107 10.3319L22.8807 13.0119C22.6607 13.2619 22.6407 13.5619 22.5007 13.8319C22.4407 13.9519 22.2507 14.2019 22.2007 14.3319C22.0707 14.6219 22.0707 14.9219 21.9007 15.2019C21.6407 15.6519 21.6907 15.2119 21.4707 15.0219C21.4307 14.7219 21.3807 14.6819 21.2507 14.4819C20.9207 13.9919 20.6807 13.182 19.9207 13.632C19.5407 14.192 19.2807 14.8019 19.0307 15.4219C18.8407 15.8919 18.5807 16.4919 18.4307 16.9519C18.3707 17.1419 18.4207 17.4219 18.2507 17.5819C18.1907 17.2419 17.9307 16.9719 17.7907 16.6719C17.5907 16.2419 17.4607 15.732 17.2307 15.312C17.0807 15.032 16.8707 14.7419 16.5207 14.7019C16.3907 14.6819 16.2707 14.742 16.1407 14.752L16.1807 14.8419C15.6907 15.3919 15.2107 16.1319 14.8607 16.7919C14.7907 16.9219 14.8307 17.1819 14.6207 17.1819C14.6207 17.0919 14.5507 17.0319 14.5307 16.9519C14.4207 16.3019 14.0907 15.692 13.9307 15.062C13.8007 14.552 13.7707 13.8919 13.6407 13.3719C13.6407 13.3419 13.3707 12.7919 13.3507 12.7619C13.0507 12.3819 12.6607 12.682 12.4007 12.942C12.0007 13.342 11.5507 13.9719 11.2007 14.4519C11.0307 14.6819 10.9207 15.0019 10.6707 15.1619C10.6707 14.9019 10.5307 14.6619 10.4707 14.4219C10.3307 13.8319 10.2507 13.1919 10.1207 12.5919C9.99072 11.9419 10.2207 11.7919 10.4507 11.2719C10.8707 10.3219 11.2907 9.34191 11.8407 8.46191C11.9107 8.34191 12.0807 8.21191 12.1207 8.14191C12.2607 7.88191 12.3407 7.6919 12.5507 7.4519C12.8307 7.1219 13.4507 6.85193 13.8707 6.98193C14.2707 7.10193 14.7407 7.80192 14.9807 8.15192C15.0507 8.25192 15.1707 8.42195 15.2207 8.50195V8.48193Z" fill="#FAE9BC"/>
<path d="M44.4707 25.6019C44.5307 25.6219 44.9107 26.5019 44.9707 26.6419C45.2307 27.2319 45.4807 27.8619 45.6907 28.4919C45.7107 28.5519 45.8807 28.6319 45.9007 28.6919C45.9507 28.8319 45.9307 29.0119 45.9907 29.1519C46.0107 29.2019 46.1707 29.3119 46.2307 29.4319C46.5407 30.1019 46.7907 30.8619 46.9807 31.5719C47.0407 31.7819 47.1407 31.7819 47.0907 32.0919C47.0307 32.4919 46.8307 32.6419 46.5007 32.8119C46.1707 32.9819 46.0207 32.9819 45.6607 32.9919C44.2607 33.0119 42.8807 32.9019 41.4807 32.9119C41.2907 32.9119 41.1007 33.0619 40.8507 32.8919L40.8007 32.9919C40.2807 32.9519 39.7507 32.9619 39.2307 32.9419C39.1407 32.9419 39.0207 33.0219 38.9307 32.9919C38.8507 32.9619 38.8507 32.8119 38.7707 32.7419C38.7007 32.6719 38.5907 32.6719 38.5207 32.5919C38.2307 32.2619 38.1307 31.5019 38.0307 31.0619C38.0307 31.0219 37.9407 31.0219 37.9307 30.9819C37.8507 30.6319 37.9307 29.5819 37.7007 29.3919C37.4007 29.1419 36.6707 29.5719 36.3607 29.6719C35.9707 29.7919 35.3207 29.9719 34.9207 29.9419C34.6607 29.9219 34.4607 29.8219 34.5407 29.5219C34.6707 29.0619 36.0007 28.7519 36.4407 28.6819C36.5507 28.6619 36.6507 28.7219 36.7307 28.7119C36.8307 28.7019 37.2507 28.5919 37.3207 28.5519C37.5907 28.3819 37.4707 27.9819 37.1807 27.8819C36.6607 27.7119 35.7307 27.9519 35.1907 28.0919C34.9607 28.1519 34.0007 28.6619 33.9307 28.2419C33.8807 27.9719 35.1607 27.5419 35.3907 27.4919C35.6707 27.4219 36.4107 27.3919 36.5707 27.3019C36.7907 27.1819 36.8407 26.8419 36.6407 26.7019C36.4507 26.5719 35.8007 26.7119 35.5707 26.7519C35.4707 26.7719 35.3707 26.7519 35.2707 26.7519C34.7307 26.8619 34.2407 27.2019 33.6707 27.2319C33.6007 27.2319 33.5807 27.2719 33.5207 27.1819C33.9407 26.5619 34.6307 26.1919 35.3307 25.9519C37.1607 25.3319 40.1207 26.2119 40.9707 28.0919C41.0407 28.3519 41.2507 28.5919 41.3607 28.8119C41.4107 28.9119 41.3707 29.0219 41.4607 29.1619C41.5107 29.2419 41.8407 29.5019 41.9107 29.5119C41.9807 29.5119 42.3307 29.3719 42.3507 29.2619C42.5507 28.7219 42.6707 28.1819 42.8607 27.6419C43.0807 27.0319 43.4507 26.4419 43.9307 25.9819C44.0107 25.9019 44.3707 25.5519 44.4607 25.5819L44.4707 25.6019Z" fill="#FAE9BC"/>
<path d="M28.7807 14.5319C29.0607 14.7519 29.4007 14.4919 29.6007 14.2919C30.1707 13.6919 30.6107 12.9519 31.0707 12.2719C31.1107 12.2119 31.4307 11.5019 31.5507 11.6119C31.6107 11.9619 31.8107 12.2519 31.9307 12.5719C32.2907 13.5519 32.5807 14.5519 33.0007 15.5119C33.0807 15.6919 33.2307 16.0519 33.3207 16.2119C33.4507 16.4319 33.8507 16.412 33.9907 16.252C34.0707 16.172 34.2807 15.2719 34.3307 15.0719C34.5907 13.9819 34.6507 12.532 34.9707 11.502C35.0107 11.362 34.9407 11.082 35.2607 11.382C35.5407 11.652 35.8007 12.302 36.0707 12.632C36.1907 12.782 36.4607 13.0219 36.6107 13.1719C36.7107 13.2819 36.8607 13.5619 37.0107 13.5819C37.2307 13.6019 37.4807 13.402 37.5307 13.192C37.5807 12.942 37.6407 12.2619 37.6607 11.9819C37.6707 11.8119 37.6007 11.6219 37.6607 11.4519C38.0707 11.9419 38.2607 12.5819 38.5507 13.1419C39.4307 14.8219 40.2807 16.5619 41.1307 18.2619C41.5707 19.1319 41.9807 19.9719 42.3807 20.8619C42.9007 22.0119 43.3307 23.192 43.9107 24.302C43.9907 24.452 44.0507 24.662 44.1507 24.812C44.1007 24.992 43.8507 25.0319 43.7807 25.0919C43.0507 25.6919 42.8807 25.932 42.3907 26.742C42.3107 26.872 42.1107 27.0619 42.0707 27.1719C42.0107 27.3019 42.0607 27.752 41.8907 27.932L41.1507 26.8219C40.9107 26.6919 40.7907 26.4119 40.5807 26.2619C40.0507 25.8719 38.9907 25.392 38.3607 25.252C38.2107 25.222 38.0007 25.2619 37.8307 25.2019C37.9007 25.0019 38.0807 24.6119 38.0907 24.4119C38.1107 23.7019 38.0307 22.6419 37.7407 21.9719C37.6007 21.6319 37.3607 21.3219 36.9807 21.2619C36.2407 21.1419 35.3407 21.2119 34.6107 21.2919C34.2707 21.3319 33.7807 21.3319 33.4607 21.4119C33.2307 21.4619 33.0707 21.7719 33.0707 21.9819C33.0607 22.3019 33.2707 22.8519 33.2707 23.2019C33.2707 23.7719 32.5107 24.982 32.2407 25.502C32.0407 25.892 31.6707 26.462 31.5807 26.872C31.5307 27.082 31.4707 27.9619 31.5107 28.1619C31.5407 28.3819 31.7307 28.6319 31.9507 28.6719C32.2107 28.7219 32.6707 28.7319 32.9707 28.7619C33.0907 28.7719 33.2007 28.722 33.3507 28.752C33.5307 28.792 33.6707 29.1519 33.9407 29.1019C33.9907 29.2819 33.8007 29.4319 33.7907 29.5819C33.7907 29.6419 33.8307 30.0119 33.8507 30.0719C33.9107 30.3219 34.4507 30.6719 34.6907 30.7019C34.7807 30.7119 34.8807 30.6619 34.9807 30.6619C35.3207 30.6619 35.6407 30.642 35.9807 30.552C36.3607 30.452 36.7007 30.2519 37.0807 30.1619C37.0707 30.8619 37.3007 31.5319 37.4507 32.2019L37.8907 32.9519L10.8307 32.9019C10.9307 32.7019 11.0507 32.4819 11.2907 32.4219C11.3807 32.4019 11.4607 32.4319 11.5307 32.4219C12.1407 32.2819 12.9307 32.182 13.4807 31.932C13.7607 31.802 14.6807 31.1619 14.7707 30.8919C14.9107 30.4819 14.7407 30.232 14.4207 29.992C14.4207 29.922 14.7207 29.5819 14.7707 29.4819C14.8907 29.2119 14.6607 28.702 14.4107 28.552C14.2807 28.472 13.9907 28.5119 13.9207 28.4219C13.9207 27.9219 14.0207 27.682 13.5707 27.372C12.9407 26.932 11.4807 27.0219 10.7207 27.1519C10.6507 27.1619 10.5907 27.232 10.5107 27.242L10.4407 27.1619C10.5107 26.9319 10.1707 26.3419 10.3307 26.2119C10.3807 26.1719 10.9807 25.952 11.0707 25.942C11.7007 25.842 12.4707 25.952 13.0907 25.992C14.0707 26.042 15.3007 25.602 16.1007 25.052C16.2507 24.952 16.3307 24.8019 16.4007 24.6419C16.6507 24.0019 16.3807 23.202 16.2907 22.562C16.2707 22.402 16.3107 22.1419 16.2807 21.9619C16.1807 21.3819 15.9707 20.742 15.4807 20.382C15.2107 20.182 15.0707 20.162 14.7507 20.252C14.3607 20.372 13.9407 20.5519 13.5507 20.6619C13.3707 20.7119 13.1407 20.702 12.9807 20.752C12.7007 20.852 12.7807 20.8619 12.4307 20.9119C11.3607 21.0719 9.65073 20.9319 8.78073 21.6119C8.41073 21.9019 8.48071 22.092 8.54071 22.502C8.60071 22.912 8.73071 23.4119 8.82071 23.8519C9.03071 24.9219 9.24072 26.012 9.52072 27.002C9.56072 27.152 9.61073 27.302 9.69073 27.432L9.65073 27.4819C9.15073 27.7419 8.60073 27.9119 8.09073 28.1519C8.02073 28.1819 8.03072 28.2519 7.96072 28.2819C7.47072 28.5219 6.94072 28.672 6.58072 29.132C6.46072 29.082 6.33073 28.5519 6.25073 28.3919C6.04073 27.9719 5.69072 27.6819 5.39072 27.3219L4.22073 26.7919C4.27073 26.6219 4.34072 26.4519 4.39072 26.2719C4.46072 26.0019 4.53072 25.882 4.61072 25.632C5.47072 23.092 6.50073 20.6319 7.53073 18.1619C8.02073 16.9819 8.56073 15.7919 9.03073 14.5919C9.13073 14.3319 9.18072 14.1719 9.27072 13.9119C9.33072 13.7319 9.51072 13.5519 9.55072 13.3519C9.63072 13.3519 9.62071 13.4819 9.63071 13.5419C9.82071 14.3419 9.90073 15.182 10.1207 15.992C10.2707 16.552 10.6407 16.6819 11.0507 16.2619C11.3507 15.9619 11.7007 15.272 11.9807 14.882C12.1207 14.692 12.3507 14.492 12.4907 14.312C12.5807 14.192 12.6607 13.9619 12.8207 13.8419C12.9407 13.8919 12.9807 14.442 13.0107 14.562C13.0507 14.772 13.0707 15.0119 13.1107 15.1719C13.1407 15.3019 13.3007 15.4519 13.3407 15.6519C13.4907 16.3719 13.7807 17.4719 14.1607 18.0919C14.2807 18.2819 14.2507 18.4919 14.5607 18.5419C15.1107 18.6419 15.0807 18.2819 15.2607 17.9519C15.5407 17.4419 15.8807 16.8519 16.1907 16.3419C16.2407 16.2619 16.4607 15.6719 16.6007 15.7719C16.6107 15.9219 16.7407 16.0319 16.7907 16.1719C17.0707 16.8719 17.4307 17.782 17.8107 18.442C17.9407 18.672 18.0807 18.9219 18.4007 18.9219C18.5707 18.9219 18.7907 18.712 18.8607 18.562C18.9507 18.372 18.9107 18.2119 18.9607 18.0519C19.0407 17.8019 19.1307 17.5419 19.2207 17.2919C19.5407 16.3519 20.0107 15.5019 20.3107 14.5519C20.3807 14.4919 20.5407 14.7719 20.5707 14.8219C20.7707 15.1919 20.8607 15.5019 21.1107 15.9019C21.3107 16.2319 21.3207 16.5219 21.8607 16.5219C21.8807 16.5219 21.8807 16.452 21.9207 16.432C22.8807 15.942 22.7107 14.8819 23.3507 14.1519C23.3207 14.4019 23.5107 14.612 23.5807 14.812C23.8807 15.632 24.0507 16.4819 24.4207 17.2719L24.3207 17.3219C24.6207 17.6819 24.5407 18.2619 24.9507 18.5219C25.3707 18.5119 25.3407 18.162 25.4707 17.872C26.3907 15.912 27.2907 13.9819 28.1807 12.0319C28.2007 11.9819 28.4507 11.1719 28.5207 11.2719C28.5607 11.4219 28.4707 11.5719 28.4707 11.7019C28.4807 12.2919 28.5507 12.8919 28.6207 13.4819C28.6507 13.7519 28.5907 14.3519 28.8407 14.5519L28.7807 14.5319ZM39.1207 16.4019C39.0007 16.2119 38.6307 15.3119 38.3407 15.7819C38.2807 15.8819 38.2907 15.9119 38.3007 16.0219C38.3407 16.3519 38.8107 17.3219 39.0007 17.6019C39.3207 18.0519 39.8407 17.7719 39.5607 17.1419C39.4507 16.8919 39.2407 16.6219 39.1107 16.4019H39.1207ZM8.47073 17.562C8.39073 17.602 8.35072 17.6519 8.30072 17.7219C8.19072 17.8719 8.01073 18.2719 7.93073 18.4619C7.73073 18.9119 7.59072 19.4019 7.39072 19.8519C7.32072 20.1719 7.71073 20.5419 7.90073 20.1519C8.17073 19.6119 8.41071 18.8419 8.60071 18.2619C8.67071 18.0419 8.86071 17.8819 8.73071 17.5819C8.69071 17.5219 8.53073 17.532 8.47073 17.562ZM39.1907 20.3619C39.2707 20.2319 39.2707 20.0619 39.2307 19.9119C39.1307 19.5919 38.5307 18.3719 38.3307 18.0719C38.2107 17.8819 37.9807 17.8419 37.8607 18.0419C37.8207 18.1019 37.9307 18.5519 37.9607 18.6519C38.0607 18.9719 38.4007 19.782 38.5707 20.062C38.7007 20.272 38.9307 20.5419 39.1907 20.3619ZM40.1207 18.5519C40.1007 18.6419 40.0507 18.7519 40.0407 18.8419C40.0307 19.0419 40.4907 20.322 40.6107 20.552C40.7107 20.752 41.0507 21.3219 41.2507 21.3319C41.5307 21.3519 41.5607 21.1419 41.5107 20.9119C41.4407 20.5619 40.8907 19.4619 40.7107 19.0819C40.5707 18.8019 40.4907 18.4819 40.1107 18.5419L40.1207 18.5519ZM29.0507 19.4219C28.3007 19.5919 27.5807 19.8419 26.8407 20.0419C26.5607 20.1119 25.4907 20.2619 25.3807 20.4519C25.2707 20.6419 25.2407 21.352 25.5507 21.382C26.0107 21.432 27.3507 21.002 27.8907 20.882C28.1807 20.822 29.0207 20.7519 29.2207 20.6419C29.2607 20.6219 29.4507 20.3719 29.4707 20.3319C29.5307 20.1219 29.3307 19.4219 29.0607 19.4219H29.0507ZM23.4807 20.7919C23.3607 20.6419 22.5407 20.5519 22.3007 20.5219C21.7707 20.4719 21.2007 20.462 20.6807 20.442C20.2807 20.432 19.8207 20.362 19.4207 20.382C18.9307 20.402 18.8907 20.9619 19.0007 21.3419C19.0807 21.6219 19.7907 21.662 20.0707 21.682C20.4707 21.702 20.8607 21.622 21.2307 21.632C21.5807 21.632 22.0207 21.7219 22.3707 21.7119C22.6407 21.7119 23.2407 21.712 23.4307 21.552C23.5807 21.422 23.5807 20.9219 23.4707 20.7819L23.4807 20.7919ZM6.76071 21.752C6.69071 21.752 6.62071 21.822 6.57071 21.872C6.28071 22.162 5.85071 23.222 5.70071 23.632C5.62071 23.862 5.31072 24.8019 5.39072 24.9719C5.54072 25.2919 5.86072 25.0019 5.96072 24.7619C6.19072 24.2019 6.35071 23.512 6.57071 22.932C6.65071 22.712 7.26071 21.712 6.76071 21.752ZM29.4107 24.812C29.8307 24.502 30.3307 23.8919 30.5607 23.4119C30.7507 23.0019 30.8407 22.542 31.0007 22.122C31.0007 21.572 29.8307 21.8919 29.5307 21.9219C28.2307 22.0219 26.8507 22.0319 25.5507 22.2119C25.3007 22.2419 24.9107 22.4119 24.6807 22.4119C24.3707 22.4119 23.9407 22.312 23.6207 22.312C22.5607 22.312 21.4707 22.3619 20.4307 22.3619C19.7807 22.3619 18.3707 22.2719 17.8107 22.4719C17.5407 22.5719 17.4807 22.7019 17.5807 22.9819C17.8007 23.5419 18.1007 24.2119 18.4907 24.6719C18.5407 24.7319 18.6607 24.752 18.7107 24.802C18.7607 24.852 18.7607 24.9419 18.8607 25.0319C19.0807 25.2219 19.7907 25.512 20.0907 25.562C20.3907 25.612 21.6907 25.4619 21.7707 25.5419C21.8007 25.7619 21.7407 26.322 21.8907 26.492C22.5407 27.072 23.7007 27.4619 24.5807 27.3619C25.1707 27.2919 26.0007 27.0419 26.4107 26.6019C26.6507 26.3419 26.8507 25.852 26.7907 25.492C27.1707 25.532 27.7907 25.5719 28.1607 25.4719C28.4307 25.4019 29.1807 24.9919 29.4107 24.8219V24.812ZM7.84073 21.8519C7.84073 21.8519 7.64071 21.8319 7.60071 21.8519C7.55071 21.8819 7.19072 22.6719 7.14072 22.7919C7.05072 23.0319 6.65073 24.1419 7.25073 23.9619C7.39073 23.9219 7.60071 23.3219 7.66071 23.1619C7.80071 22.7919 7.88072 22.4019 7.99072 22.0219L7.84073 21.992V21.8519ZM30.8207 26.7319C31.1607 26.2019 30.7207 25.9219 30.2107 26.1419C29.9507 26.2519 29.7907 26.4719 29.6007 26.5919C28.9907 26.9719 28.0407 27.202 27.3507 27.432C25.8307 27.942 23.1407 28.2019 21.6007 27.7619C21.0707 27.6119 20.3707 27.262 19.8207 27.252C19.5507 27.252 19.6207 27.3719 19.4907 27.5319C19.5707 27.8519 19.9107 27.9519 20.1707 28.0719C21.3007 28.6119 22.3907 28.8619 23.6207 28.8219C25.6707 28.7519 28.4607 28.3319 30.1807 27.2219C30.2707 27.1619 30.7907 26.7819 30.8207 26.7219V26.7319ZM26.9807 30.0319C26.1607 30.3619 24.5107 30.402 23.6307 30.192C23.3407 30.122 22.7807 29.7619 22.5307 30.0719C22.3607 30.2819 22.5507 30.492 22.7407 30.622C23.4807 31.172 25.5307 31.2019 26.4107 30.9519C26.7107 30.8619 27.2807 30.6419 27.5107 30.4219C27.8907 30.0719 27.7707 29.512 27.2907 29.752C27.1907 29.802 27.0107 30.0219 26.9907 30.0319H26.9807Z" fill="#FAE9BC"/>
<path d="M5.75073 29.8319C5.47073 30.0319 4.85071 30.6419 4.85071 30.9819C4.85071 31.3419 5.27072 31.1919 5.46072 31.0319C5.78072 30.7719 6.12073 30.3619 6.47073 30.0719C7.56073 29.1819 9.29073 28.2019 10.6807 27.8419C11.1707 27.7119 12.5207 27.6119 12.9807 27.7619C13.0807 27.7919 13.3307 27.9419 13.2507 28.0619C13.1607 28.2019 12.2207 28.2419 12.0307 28.2819C11.5807 28.3719 10.2607 28.6919 9.90073 28.8919C9.71073 28.9919 9.67072 29.1419 9.71072 29.3619C9.79072 29.7719 10.3607 29.4119 10.5707 29.3619C11.5107 29.1219 12.8207 28.9519 13.7907 29.0919C13.8807 29.1019 14.0007 29.1619 14.0707 29.2119C14.1107 29.4119 13.5907 29.5419 13.4307 29.5819C12.8507 29.7319 12.0507 29.7419 11.5207 29.9019C11.4507 29.9219 11.0507 30.2119 11.0407 30.2819C11.0407 30.9719 11.6707 30.6219 12.0807 30.5519C12.4307 30.4919 13.1207 30.3719 13.4407 30.3919C13.6207 30.4019 13.7607 30.5319 13.8507 30.6719C13.8507 30.7219 13.7407 30.9419 13.7007 30.9919C13.4707 31.2119 12.1307 31.4119 11.7207 31.5219C11.3507 31.6219 11.0107 31.8119 10.6307 31.8519C10.4807 31.9219 10.1507 32.5719 10.0407 32.7319C9.88071 32.9719 9.51073 32.8619 9.25073 32.8619C8.97073 32.8619 8.71072 32.8519 8.42072 32.8619C8.17072 32.8619 8.04073 32.9419 7.87073 32.9419C7.20073 32.9419 6.46071 32.8419 5.79071 32.8419L5.75073 32.9319C4.78073 32.7719 3.45072 33.1619 2.58072 32.6019C2.55072 32.5819 2.36071 32.3219 2.35071 32.2819C2.25071 31.9519 2.42073 31.9319 2.47073 31.7319C2.64073 31.0019 2.83073 30.2919 3.09073 29.5819C3.28073 29.0619 3.55073 28.4819 3.72073 27.9719C3.77073 27.8319 3.82072 27.5419 3.92072 27.4619C4.39072 27.4419 4.90073 27.8819 5.18073 28.2319C5.57073 28.7019 5.78073 29.2119 5.75073 29.8319Z" fill="#FAE9BC"/>
<path d="M35.0307 7.07192C35.3707 7.44192 36.0207 8.38193 36.2907 8.83193C36.7807 9.67193 36.8507 10.3819 36.8207 11.3419C36.8207 11.6019 36.6707 11.8219 36.7707 12.0719C36.6007 12.0019 36.5907 11.772 36.5007 11.632C36.1807 11.142 35.7907 10.6419 35.3507 10.2719C35.1707 10.1119 35.2007 9.96194 34.8607 9.90194C34.1407 9.78194 34.2507 10.6019 34.1707 11.0219C34.0207 11.8319 33.8707 12.632 33.7407 13.422C33.6907 13.762 33.7307 14.1119 33.5707 14.4519C33.2707 14.2919 33.2907 13.812 33.1907 13.542C32.9907 12.982 32.7307 12.402 32.4907 11.852C32.2907 11.402 32.2107 11.1219 31.9207 10.7219C31.7307 10.4519 31.2607 10.402 31.0507 10.672C30.9107 10.842 30.8507 11.192 30.7607 11.352C30.6207 11.602 30.2907 11.9019 30.1207 12.1519C29.8707 12.5319 29.7007 13.1119 29.2607 13.3419C29.2407 13.3219 29.1707 12.842 29.1607 12.752C29.1007 12.042 29.0407 11.2519 29.0507 10.5319C29.0707 9.44194 29.7507 8.45192 30.2407 7.51192C30.4907 7.03192 30.7307 6.55193 30.9907 6.08193C31.2507 5.61193 31.2207 5.43196 31.7507 5.17196C32.1607 4.97196 32.4107 4.93196 32.8407 5.11196C33.0107 5.18196 33.8307 5.82194 33.9607 5.96194C34.3007 6.33194 34.6607 6.70192 35.0007 7.07192H35.0307Z" fill="#FAE9BC"/>
<path d="M36.4207 21.8919L36.9307 21.9619C37.4107 22.8819 37.5507 24.0919 37.1707 25.0719C36.6807 25.1419 36.1807 25.072 35.7007 25.192C35.2907 25.302 34.7707 25.642 34.3707 25.732C34.1907 25.772 34.4707 25.482 34.4907 25.442C34.5307 25.302 34.5407 25.1419 34.3707 25.1419C34.1307 25.1419 33.9907 25.512 33.8807 25.672C33.6807 25.952 33.4507 26.2519 33.2407 26.5219C32.8807 27.0019 32.5907 27.592 33.3407 27.872L33.2807 28.062L32.1707 28.0219C32.1707 28.0219 32.2007 27.402 32.2207 27.292C32.4607 26.002 34.2707 24.062 34.0207 22.812C34.0007 22.702 33.9207 22.692 33.9007 22.622C33.8707 22.532 33.9207 22.2419 33.8407 22.1019L34.4307 22.0219C34.5407 22.0419 34.6207 22.622 34.6307 22.752C34.6607 23.042 34.6807 23.4719 34.6507 23.7619C34.6307 23.9619 34.3107 24.482 34.7607 24.432C34.9207 24.412 34.9707 24.2119 35.0107 24.0819C35.1707 23.5619 35.1407 22.6919 35.0307 22.1519C35.0207 22.0819 34.9607 22.0319 34.9407 21.9619C35.1707 22.0419 35.6107 21.7419 35.7807 21.9119C35.8607 21.9919 36.0107 22.6219 36.0307 22.7719C36.0707 23.0419 36.0407 23.722 35.9907 23.992C35.9507 24.182 35.7407 24.3619 35.7607 24.5219L35.8307 24.6519C35.9407 24.7419 36.0607 24.692 36.1607 24.622C36.6807 24.272 36.7107 22.4519 36.4207 21.9119V21.8919Z" fill="#FAE9BC"/>
<path d="M15.6307 24.4719C15.5707 24.5419 15.4007 24.5219 15.3607 24.5419C14.9707 24.7219 14.5807 24.9219 14.1307 25.0219C12.9407 25.2919 11.8907 24.8619 10.5707 25.3619C10.1507 25.5219 10.0607 25.8819 9.97073 25.1619C9.97073 25.1119 10.0107 25.0419 10.0007 24.9719C9.96073 24.6819 9.57073 24.4819 10.0007 24.2919C11.5107 23.6219 12.9907 23.8419 14.5807 23.5519L15.5807 23.1619C15.5107 23.3619 15.6707 23.5819 15.6707 23.7419C15.6707 23.9419 15.5907 24.2419 15.6207 24.4719H15.6307Z" fill="#FAE9BC"/>
<path d="M12.0407 21.742C12.3507 21.682 12.6107 21.7519 12.9107 21.6719C13.5607 21.5119 14.1607 21.2119 14.7907 21.0719C14.8607 21.0519 14.9407 20.9719 14.9907 20.9819C15.3007 21.2019 15.2407 21.5019 15.3007 21.7919C15.3407 21.9519 15.4707 22.1219 15.4607 22.3219L14.4707 22.8219C13.9807 22.9219 13.4907 22.9819 13.0207 23.0119C12.8507 23.0219 12.3107 23.1519 12.2507 22.9719L12.0407 21.742Z" fill="#FAE9BC"/>
<path d="M10.5107 21.6519C10.6007 21.7419 10.6107 22.1519 10.7607 22.1919L11.4907 22.0419L10.9807 22.6719C11.1007 22.8719 11.3007 22.9219 11.3407 23.2019L10.4707 23.0619C10.3007 23.1219 9.90073 23.5919 9.75073 23.5619C9.54073 23.5219 9.94071 22.9219 9.85071 22.7519C9.76071 22.5719 9.26072 22.7019 9.21072 22.4219C9.24072 22.2919 9.81073 22.2719 9.97073 22.1619C10.1107 22.0619 10.1407 21.7319 10.2807 21.6019C10.3407 21.5619 10.4707 21.6019 10.5207 21.6419L10.5107 21.6519Z" fill="#FAE9BC"/>
<path d="M41.4407 9.09192C40.9407 8.46192 41.1307 7.61193 41.3407 6.91193C41.5207 6.89193 41.5607 6.72192 41.6707 6.65192" fill="#1A1A1A"/>
<path d="M29.9807 22.6519C29.8907 22.7719 29.9007 22.9219 29.8407 23.0419C29.5307 23.7119 28.3407 24.6919 27.5707 24.7219C27.1707 24.7419 26.3007 24.5319 25.9307 24.3419C25.5607 24.1519 25.2707 23.8119 25.0307 23.5219C24.9707 23.4519 24.7207 23.2219 24.7107 23.1719C24.6707 22.9619 25.3407 22.9619 25.4907 22.9619L25.5507 23.002C25.6107 23.722 26.3107 24.0319 26.9707 24.0219C27.4007 24.0219 27.8407 23.7719 28.0907 23.4119C28.2507 23.1919 28.2207 23.0519 28.1607 22.8019C28.7607 22.6719 29.3607 22.6419 29.9807 22.6519Z" fill="#FAE9BC"/>
<path d="M23.7507 23.1619C23.7507 23.1619 23.5307 23.6519 23.4707 23.7219C23.2307 24.0219 22.3407 24.3719 21.9807 24.5219C21.6207 24.6719 20.6207 24.8119 20.2207 24.7619C19.7407 24.7119 19.0807 24.1619 18.7907 23.7919C18.7307 23.7119 18.5107 23.4019 18.4907 23.3319C18.4507 23.2419 18.5107 23.2619 18.5607 23.2519C18.7407 23.2319 20.0107 23.2419 20.1207 23.3019C20.2407 23.4519 20.3607 23.8719 20.4907 23.9619C20.5107 23.9719 20.9207 24.1419 20.9507 24.1519C21.2307 24.2119 21.8207 24.1319 22.0507 23.9619C22.0907 23.9319 22.5107 23.5019 22.5207 23.4719C22.5807 23.3619 22.5607 23.1719 22.6107 23.1419C22.8107 22.9919 23.4807 23.2119 23.7507 23.1419V23.1619Z" fill="#FAE9BC"/>
<path d="M25.8607 25.9819C25.7707 26.0919 25.3607 26.322 25.2207 26.372C24.5907 26.622 23.8207 26.5619 23.1807 26.3319C23.1007 26.3019 22.6407 26.0719 22.6007 26.0319C22.4307 25.8319 22.7507 25.2519 22.9807 25.2019C23.0807 25.1719 23.4107 25.1219 23.5307 25.1119C23.9407 25.0719 24.8907 25.1119 25.2907 25.2019C25.4107 25.2319 25.9207 25.402 25.9607 25.492C26.0307 25.632 25.9607 25.8719 25.8707 25.9819H25.8607Z" fill="#FAE9BC"/>
<path d="M24.7607 24.4219C24.5007 24.3519 24.3307 24.3519 24.0707 24.3719C23.8707 24.3819 24.2607 23.9119 24.3207 23.9219L24.7507 24.4219H24.7607Z" fill="#FAE9BC"/>
<path d="M37.6007 10.3919C37.6007 10.3919 37.1507 13.0019 37.1207 13.0819C37.0907 13.1619 35.7107 11.1719 35.6007 11.0319C35.4907 10.9019 34.7007 10.6819 34.7007 10.6819L33.5807 15.7119C33.5807 15.7119 32.3807 12.7819 32.3007 12.7019C32.2207 12.6219 31.3407 11.002 31.3407 11.002L28.8407 14.2719L28.6507 10.2019L25.0607 17.8619L23.2507 13.3419C23.2507 13.3419 22.0507 15.5219 22.0307 15.6019C22.0007 15.6819 21.5007 15.9719 21.5007 15.9719C21.5007 15.9719 20.3007 13.9519 20.2207 13.8419C20.1407 13.7319 18.3607 18.3119 18.2807 18.3619C18.2007 18.4119 16.4707 15.1719 16.4707 15.1719L14.6107 17.8019L13.0107 13.0419L10.4607 15.7019L9.50074 12.2219L4.85072 23.0219L4.18073 26.752C4.18073 26.752 3.92073 26.9019 4.08073 26.9319C4.24073 26.9619 4.51073 27.2219 4.61073 27.3319C4.72073 27.4419 5.30074 27.922 5.59074 28.312C5.88074 28.712 6.15073 29.7719 6.15073 29.7719C6.15073 29.7719 6.81074 29.2419 6.97074 29.0519C7.13074 28.8619 9.60073 27.752 9.71073 27.692C9.82073 27.632 11.7007 27.2619 12.0207 27.1819C12.3407 27.1019 13.0807 27.4719 13.0807 27.4719C13.0807 27.4719 13.5307 27.842 13.5307 28.132C13.5307 28.422 13.0207 28.5819 13.0207 28.5819C13.0207 28.5819 14.1407 28.7119 14.2407 28.7719C14.3407 28.8319 14.3207 28.9819 14.2907 29.2219C14.2607 29.4619 13.9207 30.1019 13.9207 30.1019C13.9207 30.1019 14.0507 30.6919 14.0307 30.9519C14.0007 31.2219 13.3407 31.542 13.2107 31.692C13.0807 31.852 11.3007 32.062 11.3007 32.062L10.2907 32.9619L38.2907 33.1719C38.2907 33.1719 37.7307 31.9719 37.7307 31.8919C37.7307 31.8119 37.5207 29.7919 37.5207 29.7919C37.5207 29.7919 36.5607 30.1419 35.6307 30.2419C34.7007 30.3519 35.0407 30.3219 34.5107 30.3219C33.9807 30.3219 34.1407 29.502 34.1407 29.502C34.1407 29.502 33.4007 28.3819 33.3407 28.3019C33.2807 28.2219 32.4907 28.302 32.3607 28.382C32.2307 28.462 31.8007 27.8519 31.8007 27.8519L32.0407 26.8419C32.0407 26.8419 32.7307 25.5919 32.8607 25.2419C32.9907 24.8919 33.5007 23.722 33.5807 23.562C33.6607 23.402 33.3707 22.2019 33.2307 21.9919C33.0907 21.7819 33.8707 21.7219 34.4307 21.5419C34.9907 21.3619 36.9307 21.4619 37.0407 21.4619C37.1507 21.4619 37.5507 22.6619 37.5707 22.8719C37.6007 23.0819 37.5207 24.5719 37.4907 24.7619C37.4607 24.9519 36.9607 25.422 37.3607 25.502C37.7607 25.582 39.3307 25.7719 39.9107 25.9519C40.5007 26.1419 41.7507 28.562 41.8207 28.692C41.9007 28.822 42.3807 27.4419 42.4307 27.3619C42.4807 27.2819 43.3907 26.1619 43.3907 26.1619L44.5607 24.752L37.5707 10.3419L37.6007 10.3919ZM15.8207 24.442C15.3707 25.232 14.3307 25.372 13.5207 25.442C13.0807 25.482 12.6307 25.4719 12.1907 25.5219C11.6607 25.5819 11.1407 25.7919 10.6007 25.7419C10.2507 25.7119 10.0107 25.5719 9.84074 25.3519C9.79074 25.3519 9.74074 25.3619 9.69074 25.3619C9.42074 25.3819 9.26072 25.0419 9.39072 24.8319C9.43072 24.7619 9.48074 24.692 9.53074 24.632C9.45074 24.562 9.37073 24.4719 9.30073 24.3719C8.98073 23.8919 8.82073 23.2319 8.83073 22.6519C8.86073 21.4419 10.1507 21.2719 11.1207 21.1419C11.8407 21.0519 12.5707 21.092 13.2907 21.002C13.9807 20.912 14.8307 20.3419 15.5007 20.7319C15.7507 20.8719 15.7207 21.2519 15.4707 21.3619C15.8507 21.7919 15.9907 22.4419 15.8907 23.0519C16.0407 23.4919 16.0907 23.9419 15.8107 24.4219L15.8207 24.442ZM30.0507 22.9819C29.6807 23.8219 28.8007 24.5419 27.9307 24.8019C27.3307 24.9819 26.7307 24.8019 26.1707 24.5519C25.8107 24.4419 25.4807 24.2619 25.1907 24.0419C24.9607 23.8619 25.0907 23.5819 25.3007 23.4819C24.8107 23.5419 24.3307 23.6219 23.8707 23.7219C23.7507 23.7519 23.6307 23.7819 23.5207 23.8219C23.1207 24.2619 22.3707 24.532 21.9007 24.692C21.4407 24.852 20.9607 24.9519 20.4707 24.8619C19.8407 24.7419 19.3107 24.3619 18.7807 24.0219C18.6407 23.9319 18.6007 23.772 18.6307 23.632C18.2707 23.442 18.4507 22.8219 18.8707 22.9719C19.5707 23.2219 20.3407 23.1119 21.0707 23.0719C21.8707 23.0219 22.6607 22.8919 23.4607 22.8419C23.5907 22.8419 23.7107 22.9219 23.7707 23.0319C23.8607 23.0119 23.9507 22.9919 24.0407 22.9819C24.9707 22.8419 25.9207 22.7119 26.8607 22.6219C27.8007 22.5319 28.7407 22.6619 29.6707 22.4619C29.9907 22.3919 30.1907 22.7019 30.0707 22.9819H30.0507Z" fill="#D6A078"/>
<path d="M26.8107 0.731925C26.9507 0.841925 26.9807 1.13193 26.8207 1.24193C26.7607 1.27193 26.7007 1.30193 26.6407 1.30193C25.7707 1.37193 25.2407 1.5619 24.5307 2.0819C24.4107 2.1719 24.4007 2.30194 24.1607 2.31194C23.6607 2.32194 23.6907 1.77191 23.5307 1.46191C23.4607 1.33191 22.7107 0.851932 22.5607 0.801932C22.3207 0.721932 21.8007 0.701915 21.5407 0.721915C21.3707 0.731915 21.2107 0.911895 21.0507 0.701895C20.8207 0.391895 21.2307 0.1419 21.5007 0.0819003C22.5607 -0.1681 23.7507 0.141937 24.2307 1.18194C24.3307 1.21194 24.9707 0.851932 25.1107 0.801932C25.3107 0.741932 25.8507 0.601891 26.0507 0.571891C26.2007 0.551891 26.7107 0.641935 26.8207 0.741935L26.8107 0.731925Z" fill="#FAE9BC"/>
<path d="M22.9607 3.72191C23.1607 3.88191 23.0407 4.2019 22.7507 4.2119C22.4407 4.2319 22.0807 4.21191 21.7807 4.35191C21.6507 4.41191 21.6507 4.52193 21.6107 4.55193C21.5707 4.58193 20.9907 4.82192 20.8407 4.92192C20.3907 5.20192 20.3007 5.57191 19.7507 5.10191C19.3007 4.72191 19.1407 4.50193 18.4507 4.43193C18.1607 4.40193 17.5007 4.6919 17.6407 4.0919C17.6807 3.9119 18.1007 3.63192 18.2707 3.61192C18.4207 3.60192 19.0607 3.70194 19.2207 3.75194C19.2907 3.77194 19.6507 3.91194 19.7007 3.94194C19.8107 4.00194 20.0407 4.28192 20.1807 4.29192C20.3407 4.30192 20.8407 3.87191 21.0207 3.78191C21.4407 3.57191 22.5907 3.4119 22.9807 3.7119L22.9607 3.72191Z" fill="#FAE9BC"/>
<path d="M24.2907 26.8919C25.4229 26.8919 26.3407 26.4039 26.3407 25.8019C26.3407 25.2 25.4229 24.7119 24.2907 24.7119C23.1585 24.7119 22.2407 25.2 22.2407 25.8019C22.2407 26.4039 23.1585 26.8919 24.2907 26.8919Z" fill="#FAE9BC"/>
<path d="M34.3207 4.99193C34.3807 5.04193 34.5707 5.28193 34.6407 5.37193C34.9107 5.70193 35.1807 6.11192 35.4507 6.42192C35.5707 6.56192 35.8507 6.75194 35.9507 6.88194C36.0407 6.99194 36.0407 7.18189 36.1107 7.27189C36.1607 7.34189 36.3107 7.39188 36.3907 7.51188C36.5407 7.76188 36.5107 7.76188 36.7007 8.01188C37.0807 8.51188 37.4907 9.23191 37.8107 9.79191C38.4607 10.9419 38.9707 12.1319 39.5907 13.2819C40.0607 14.1519 40.5707 15.0819 40.9807 15.9019C41.1107 16.1619 41.2007 16.5319 41.3007 16.7419C41.3407 16.8319 41.4807 16.8819 41.5607 17.0419C42.1707 18.2519 42.6607 19.5519 43.2707 20.7519C43.3207 20.8419 43.4507 20.9419 43.4807 21.0419C43.9807 22.6019 44.7607 24.1019 45.4507 25.6219C45.8507 26.5019 46.1007 27.5219 46.6607 28.3219C46.8607 29.0619 47.2907 29.9119 47.5807 30.7319C47.6907 31.0619 47.9507 31.6419 48.0107 31.9719C48.1207 32.5719 47.7107 33.6419 47.0607 33.7819C46.8907 33.8219 45.9607 33.8719 45.7707 33.8619C45.0807 33.8019 44.4007 33.8019 43.6907 33.8019C39.1407 33.8019 34.6807 33.8219 30.1607 33.7519C29.9707 33.9519 29.6407 33.7619 29.3507 33.7519C29.1007 33.7519 28.8407 33.7719 28.5807 33.7719C26.4007 33.7719 24.1707 33.7619 22.0007 33.7519C21.0607 33.7519 20.1107 33.8019 19.1607 33.7019V33.8019C18.9507 33.7619 18.7207 33.7519 18.5007 33.7519C15.9107 33.7319 13.2807 33.7219 10.6807 33.7319C9.88073 33.7319 9.46071 33.8219 8.66071 33.7019C8.21071 33.6319 7.79072 33.7419 7.39072 33.7519C7.21072 33.7519 6.96071 33.6419 6.79071 33.6519C5.80071 33.7119 4.77073 33.6519 3.75073 33.6519C3.44073 33.6519 3.07071 33.6819 2.76071 33.6819C2.54071 33.6819 1.86071 33.3219 1.73071 33.1519C1.64071 33.0319 1.45071 32.3219 1.45071 32.1619C1.45071 32.0519 1.56072 31.9219 1.58072 31.8019C1.92072 30.0219 2.69071 28.2819 3.32071 26.6019C3.76071 25.4219 4.07073 24.1819 4.53073 23.0019C4.79073 22.3419 5.03073 21.6819 5.31073 21.0419C7.25073 16.7019 8.77073 12.3419 10.9707 8.16191C11.5707 7.31191 11.9307 6.62194 12.9007 6.19194C13.0107 6.14194 13.0707 6.01193 13.2207 6.00193C13.3607 5.99193 14.0507 6.06191 14.1807 6.10191C14.3307 6.16191 14.3707 6.26191 14.4907 6.35191C14.9807 6.76191 15.7307 7.80194 16.1107 8.38194C16.2707 8.62194 16.4007 8.99193 16.5707 9.24193C16.7107 9.44193 16.7407 9.43193 16.8907 9.68193C17.2407 10.2819 17.5407 10.8919 17.8407 11.5219C17.8907 11.6319 18.1107 11.7619 18.1207 11.9319C18.1907 11.9819 18.4207 11.3519 18.4807 11.2519C18.6107 11.0419 18.9007 10.6019 19.0607 10.4119C19.2607 10.1719 19.2807 10.1919 19.4307 9.92192C19.4607 9.87192 20.0907 9.29193 20.1707 9.24193C20.4707 9.05193 20.8107 8.94193 21.1607 9.06193C21.1907 9.07193 21.7707 9.34192 21.8007 9.36192C21.8507 9.40192 21.9207 9.59193 22.0107 9.68193C22.1207 9.78193 22.2707 9.80193 22.3707 9.93193C22.7007 10.3519 22.9107 11.1319 23.1307 11.6019C23.8307 13.1619 24.4207 14.6719 24.8707 16.3019L25.1107 16.7419C25.2607 16.3719 25.3907 16.0019 25.5507 15.6319C26.0607 14.4319 26.6307 13.2819 27.1207 12.0419C27.5007 11.0919 27.9007 10.3319 28.3407 9.41191C28.9307 8.19191 29.5107 6.9819 30.0807 5.7819C30.2107 5.4919 30.6907 4.86191 30.9407 4.66191C31.3307 4.35191 32.0807 4.09193 32.5807 4.12193C32.6307 4.12193 33.5707 4.4319 33.6207 4.4619C33.7307 4.5219 33.7807 4.67188 33.8807 4.76188C34.0107 4.87188 34.2007 4.90188 34.3207 5.01188V4.99193ZM35.0307 7.07188C34.6807 6.70188 34.3307 6.3319 33.9907 5.9619C33.8607 5.8119 33.0407 5.18192 32.8707 5.11192C32.4407 4.93192 32.1907 4.97192 31.7807 5.17192C31.2407 5.43192 31.2707 5.63189 31.0207 6.08189C30.7707 6.53189 30.5107 7.03188 30.2707 7.51188C29.7907 8.45188 29.1007 9.4419 29.0807 10.5319C29.0707 11.2619 29.1307 12.0419 29.1907 12.7519C29.1907 12.8419 29.2607 13.3219 29.2907 13.3419C29.7407 13.1119 29.9007 12.5319 30.1507 12.1519C30.3207 11.9019 30.6507 11.6019 30.7907 11.3519C30.8807 11.1919 30.9407 10.8419 31.0807 10.6719C31.3007 10.4019 31.7607 10.4519 31.9507 10.7219C32.2307 11.1219 32.3207 11.4019 32.5207 11.8519C32.7607 12.4019 33.0107 12.9719 33.2207 13.5419C33.3207 13.8119 33.3007 14.2919 33.6007 14.4519C33.7507 14.1219 33.7107 13.7619 33.7707 13.4219C33.8907 12.6219 34.0507 11.8319 34.2007 11.0219C34.2807 10.6119 34.1707 9.7919 34.8907 9.9019C35.2307 9.9619 35.2007 10.1119 35.3807 10.2719C35.8207 10.6419 36.2107 11.1419 36.5307 11.6319C36.6207 11.7719 36.6407 11.9919 36.8007 12.0719C36.7007 11.8219 36.8407 11.6019 36.8507 11.3419C36.8707 10.3819 36.8107 9.68189 36.3207 8.83189C36.0607 8.38189 35.4107 7.44188 35.0607 7.07188H35.0307ZM15.2207 8.48192C15.1707 8.41192 15.0507 8.23194 14.9807 8.13194C14.7407 7.78194 14.2707 7.0819 13.8707 6.9619C13.4507 6.8319 12.8307 7.10193 12.5507 7.43193C12.3407 7.68193 12.2707 7.87193 12.1207 8.12193C12.0807 8.19193 11.9107 8.32194 11.8407 8.44194C11.2907 9.33194 10.8707 10.3019 10.4507 11.2519C10.2207 11.7719 9.99073 11.9219 10.1207 12.5719C10.2407 13.1719 10.3207 13.8119 10.4707 14.4019C10.5307 14.6419 10.6707 14.8819 10.6707 15.1419C10.9307 14.9819 11.0307 14.6619 11.2007 14.4319C11.5507 13.9619 12.0107 13.3219 12.4007 12.9219C12.6607 12.6619 13.0507 12.3619 13.3507 12.7419C13.3707 12.7719 13.6307 13.3119 13.6407 13.3519C13.7707 13.8619 13.8007 14.5319 13.9307 15.0419C14.0907 15.6719 14.4207 16.2819 14.5307 16.9319C14.5407 17.0119 14.6107 17.0819 14.6207 17.1619C14.8307 17.1619 14.7907 16.9019 14.8607 16.7719C15.2107 16.1119 15.6807 15.3719 16.1807 14.8219L16.1407 14.7319C16.2707 14.7319 16.3807 14.6619 16.5207 14.6819C16.8707 14.7219 17.0807 15.0119 17.2307 15.2919C17.4607 15.7119 17.6007 16.2219 17.7907 16.6519C17.9307 16.9619 18.1807 17.2219 18.2507 17.5619C18.4107 17.4019 18.3707 17.1219 18.4307 16.9319C18.5807 16.4719 18.8407 15.8719 19.0307 15.4019C19.2807 14.7819 19.5407 14.1719 19.9207 13.6119C20.6807 13.1619 20.9207 13.9719 21.2507 14.4619C21.3807 14.6619 21.4407 14.7019 21.4707 15.0019C21.6807 15.1919 21.6307 15.6319 21.9007 15.1819C22.0607 14.9019 22.0707 14.6019 22.2007 14.3119C22.2607 14.1819 22.4507 13.9319 22.5007 13.8119C22.6307 13.5419 22.6607 13.2319 22.8807 12.9919L21.7107 10.3119C21.4907 9.95193 21.0307 9.70192 20.6307 9.92192C20.3207 10.0819 19.9707 10.5819 19.7507 10.8619C19.3107 11.4119 18.9507 11.9819 18.5607 12.5619C18.4907 12.6719 18.4907 12.7919 18.3807 12.8919C18.2507 13.0219 17.9507 13.0119 17.8007 12.9019C17.7707 12.8819 17.3807 12.3119 17.3207 12.2119C16.5507 11.0219 15.9807 9.6819 15.2207 8.4619V8.48192ZM28.7807 14.5319C28.5307 14.3319 28.5907 13.7319 28.5607 13.4619C28.4907 12.8719 28.4307 12.2819 28.4107 11.6819C28.4107 11.5519 28.5007 11.4019 28.4607 11.2519C28.3907 11.1519 28.1407 11.9619 28.1207 12.0119C27.2307 13.9719 26.3407 15.8919 25.4107 17.8519C25.2807 18.1319 25.3107 18.4919 24.8907 18.5019C24.4807 18.2419 24.5607 17.6719 24.2607 17.3019L24.3607 17.2519C24.0007 16.4619 23.8207 15.6119 23.5207 14.7919C23.4507 14.5919 23.2607 14.3919 23.2907 14.1319C22.6607 14.8619 22.8207 15.9319 21.8607 16.4119C21.8207 16.4319 21.8207 16.5019 21.8007 16.5019C21.2607 16.5019 21.2607 16.2119 21.0507 15.8819C20.8007 15.4819 20.7107 15.1719 20.5107 14.8019C20.4807 14.7519 20.3207 14.4719 20.2507 14.5319C19.9507 15.4719 19.4807 16.3319 19.1607 17.2719C19.0807 17.5219 18.9807 17.7819 18.9007 18.0319C18.8507 18.1919 18.8907 18.3519 18.8007 18.5419C18.7307 18.6919 18.5107 18.9019 18.3407 18.9019C18.0207 18.9019 17.8807 18.6619 17.7507 18.4219C17.3707 17.7619 17.0107 16.8519 16.7307 16.1519C16.6807 16.0219 16.5507 15.9119 16.5407 15.7519C16.4007 15.6519 16.1907 16.2419 16.1307 16.3219C15.8207 16.8319 15.4807 17.4219 15.2007 17.9319C15.0207 18.2719 15.0507 18.6219 14.5007 18.5219C14.1907 18.4719 14.2207 18.2619 14.1007 18.0719C13.7207 17.4519 13.4307 16.3619 13.2807 15.6319C13.2407 15.4319 13.0807 15.2819 13.0507 15.1519C13.0107 14.9919 12.9907 14.7519 12.9507 14.5419C12.9207 14.4219 12.8807 13.8719 12.7607 13.8219C12.6007 13.9419 12.5207 14.1719 12.4307 14.2919C12.2907 14.4719 12.0607 14.6719 11.9207 14.8619C11.6407 15.2419 11.2907 15.9419 10.9907 16.2419C10.5807 16.6519 10.2107 16.5219 10.0607 15.9719C9.84073 15.1619 9.76071 14.3119 9.57071 13.5219C9.56071 13.4619 9.57072 13.3219 9.49072 13.3319C9.45072 13.5319 9.27072 13.7119 9.21072 13.8919C9.12072 14.1519 9.08073 14.3019 8.97073 14.5719C8.50073 15.7619 7.96073 16.9619 7.47073 18.1419C6.45073 20.6119 5.42072 23.0719 4.55072 25.6119C4.47072 25.8619 4.40072 25.9819 4.33072 26.2519C4.28072 26.4219 4.22071 26.5919 4.16071 26.7719L5.33072 27.3019C5.63072 27.6519 5.98073 27.9519 6.19073 28.3719C6.27073 28.5219 6.40072 29.0619 6.52072 29.1119C6.88072 28.6619 7.41073 28.5119 7.90073 28.2619C7.97073 28.2319 7.96073 28.1619 8.03073 28.1319C8.54073 27.8919 9.09073 27.7219 9.59073 27.4619L9.63071 27.4119C9.55071 27.2819 9.50072 27.1319 9.46072 26.9819C9.19072 25.9819 8.98071 24.9019 8.76071 23.8319C8.67071 23.4019 8.54071 22.9119 8.48071 22.4819C8.42071 22.0519 8.36073 21.8719 8.72073 21.5919C9.59073 20.9019 11.3007 21.0519 12.3707 20.8919C12.7207 20.8419 12.6407 20.8319 12.9207 20.7319C13.0807 20.6719 13.3207 20.6919 13.4907 20.6419C13.8807 20.5319 14.3107 20.3419 14.6907 20.2319C15.0107 20.1319 15.1507 20.1519 15.4207 20.3619C15.9107 20.7219 16.1207 21.3719 16.2207 21.9419C16.2507 22.1319 16.2207 22.3919 16.2307 22.5419C16.3207 23.1819 16.5907 23.9919 16.3407 24.6219C16.2707 24.7919 16.1907 24.9319 16.0407 25.0319C15.2407 25.5819 14.0107 26.0219 13.0307 25.9719C12.4007 25.9419 11.6407 25.8319 11.0107 25.9219C10.9207 25.9319 10.3207 26.1519 10.2707 26.1919C10.1107 26.3219 10.4507 26.9219 10.3807 27.1419L10.4507 27.2219C10.5307 27.2219 10.5907 27.1419 10.6607 27.1319C11.4207 27.0019 12.8807 26.9119 13.5107 27.3519C13.9607 27.6619 13.8607 27.9019 13.8607 28.4019C13.9307 28.4919 14.2207 28.4519 14.3507 28.5319C14.6007 28.6819 14.8407 29.1919 14.7107 29.4619C14.6607 29.5719 14.3607 29.9019 14.3607 29.9719C14.6807 30.2219 14.8507 30.4619 14.7107 30.8719C14.6207 31.1419 13.7007 31.7819 13.4207 31.9119C12.8707 32.1619 12.0807 32.2619 11.4707 32.4019C11.3907 32.4219 11.3107 32.3819 11.2307 32.4019C11.0007 32.4719 10.8707 32.6819 10.7707 32.8819L37.8307 32.9319L37.3907 32.1819C37.2407 31.5119 37.0107 30.8419 37.0207 30.1419C36.6407 30.2319 36.2907 30.4319 35.9207 30.5319C35.5807 30.6219 35.2607 30.6419 34.9207 30.6419C34.8207 30.6419 34.7207 30.7019 34.6307 30.6819C34.4007 30.6519 33.8507 30.2919 33.7907 30.0519C33.7707 29.9819 33.7307 29.6119 33.7307 29.5619C33.7307 29.4119 33.9307 29.2619 33.8807 29.0819C33.6107 29.1319 33.4707 28.7719 33.2907 28.7319C33.1507 28.7019 33.0307 28.7519 32.9107 28.7419C32.6107 28.7119 32.1507 28.7019 31.8907 28.6519C31.6707 28.6119 31.4907 28.3619 31.4507 28.1419C31.4207 27.9419 31.4807 27.0619 31.5207 26.8519C31.6207 26.4419 31.9807 25.8719 32.1807 25.4819C32.4507 24.9619 33.2207 23.7519 33.2107 23.1819C33.2107 22.8219 33.0007 22.2819 33.0107 21.9619C33.0107 21.7419 33.1807 21.4419 33.4007 21.3919C33.7207 21.3219 34.2107 21.3119 34.5507 21.2719C35.2907 21.1919 36.1807 21.1119 36.9207 21.2419C37.3007 21.3019 37.5407 21.6119 37.6807 21.9519C37.9707 22.6219 38.0507 23.6819 38.0307 24.3919C38.0307 24.5919 37.8407 24.9819 37.7707 25.1819C37.9307 25.2419 38.1507 25.2019 38.3007 25.2319C38.9307 25.3719 39.9907 25.8519 40.5207 26.2419C40.7207 26.3919 40.8407 26.6719 41.0907 26.8019L41.8307 27.9119C42.0007 27.7319 41.9607 27.2819 42.0107 27.1519C42.0607 27.0419 42.2507 26.8519 42.3307 26.7219C42.8207 25.9219 43.0007 25.6719 43.7207 25.0719C43.7907 25.0219 44.0407 24.9719 44.0907 24.7919C43.9907 24.6419 43.9307 24.4319 43.8507 24.2819C43.2707 23.1719 42.8407 21.9919 42.3207 20.8419C41.9207 19.9519 41.5007 19.1119 41.0707 18.2419C40.2107 16.5419 39.3707 14.8019 38.4907 13.1219C38.2007 12.5619 38.0007 11.9319 37.6007 11.4319C37.5407 11.6019 37.6107 11.7919 37.6007 11.9619C37.5807 12.2419 37.5207 12.9219 37.4707 13.1719C37.4207 13.3919 37.1707 13.5819 36.9507 13.5619C36.7907 13.5419 36.6407 13.2619 36.5507 13.1519C36.4107 12.9919 36.1407 12.7619 36.0107 12.6119C35.7407 12.2719 35.4807 11.6319 35.2007 11.3619C34.8807 11.0519 34.9607 11.3319 34.9107 11.4819C34.5907 12.5119 34.5307 13.9519 34.2707 15.0519C34.2207 15.2519 34.0107 16.1519 33.9307 16.2319C33.7807 16.3819 33.3907 16.4119 33.2607 16.1919C33.1707 16.0419 33.0207 15.6819 32.9407 15.4919C32.5307 14.5419 32.2307 13.5319 31.8707 12.5519C31.7507 12.2319 31.5507 11.9319 31.4907 11.5919C31.3707 11.4819 31.0507 12.1819 31.0107 12.2519C30.5407 12.9319 30.1107 13.6719 29.5407 14.2719C29.3507 14.4819 29.0007 14.7419 28.7207 14.5119L28.7807 14.5319ZM12.0407 21.7419L12.2507 22.9719C12.3107 23.1519 12.8507 23.0219 13.0207 23.0119C13.5007 22.9819 13.9907 22.9319 14.4707 22.8219L15.4607 22.3219C15.4707 22.1219 15.3407 21.9619 15.3007 21.7919C15.2307 21.5019 15.3007 21.2019 14.9907 20.9819C14.9407 20.9819 14.8607 21.0619 14.7907 21.0719C14.1507 21.2019 13.5507 21.5019 12.9107 21.6719C12.6007 21.7519 12.3507 21.6719 12.0407 21.7419ZM10.5107 21.6519C10.5107 21.6519 10.3307 21.5719 10.2707 21.6119C10.1407 21.7419 10.1107 22.0719 9.96072 22.1719C9.80072 22.2819 9.23071 22.2919 9.20071 22.4319C9.25071 22.7119 9.74073 22.5819 9.84073 22.7619C9.93073 22.9319 9.53072 23.5319 9.74072 23.5719C9.89072 23.6019 10.3007 23.1319 10.4607 23.0719L11.3307 23.2119C11.2907 22.9319 11.0907 22.8819 10.9707 22.6819L11.4807 22.0519L10.7507 22.2019C10.6007 22.1619 10.5907 21.7519 10.5007 21.6619L10.5107 21.6519ZM36.4207 21.8919C36.7107 22.4319 36.6907 24.2519 36.1607 24.6019C36.0507 24.6719 35.9407 24.7219 35.8307 24.6319L35.7607 24.5019C35.7507 24.3519 35.9607 24.1619 35.9907 23.9719C36.0407 23.7019 36.0707 23.0219 36.0307 22.7519C36.0107 22.6119 35.8607 21.9819 35.7807 21.8919C35.6107 21.7219 35.1707 22.0219 34.9407 21.9419C34.9607 22.0119 35.0207 22.0619 35.0307 22.1319C35.1307 22.6719 35.1607 23.5419 35.0107 24.0619C34.9707 24.2019 34.9107 24.4019 34.7607 24.4119C34.3107 24.4619 34.6307 23.9419 34.6507 23.7419C34.6807 23.4619 34.6507 23.0219 34.6307 22.7319C34.6207 22.6019 34.5407 22.0219 34.4307 22.0019L33.8407 22.0819C33.9207 22.2219 33.8707 22.5119 33.9007 22.6019C33.9207 22.6719 34.0007 22.6919 34.0207 22.7919C34.2607 24.0419 32.4607 25.9819 32.2207 27.2719C32.2007 27.3819 32.1507 27.9819 32.1707 28.0019L33.2807 28.0419L33.3407 27.8519C32.5907 27.5719 32.8807 26.9819 33.2407 26.5019C33.4507 26.2319 33.6807 25.9319 33.8807 25.6519C33.9907 25.5019 34.1407 25.1219 34.3707 25.1219C34.5407 25.1219 34.5407 25.2919 34.4907 25.4219C34.4807 25.4619 34.1907 25.7519 34.3707 25.7119C34.7707 25.6219 35.2907 25.2819 35.7007 25.1719C36.1907 25.0419 36.6907 25.1219 37.1707 25.0519C37.5507 24.0719 37.4007 22.8719 36.9307 21.9419L36.4207 21.8719V21.8919ZM15.6307 24.4719C15.6007 24.2419 15.6907 23.9419 15.6807 23.7419C15.6807 23.5819 15.5207 23.3619 15.5907 23.1619L14.5907 23.5519C13.0007 23.8419 11.5107 23.6219 10.0107 24.2919C9.58071 24.4819 9.97071 24.6719 10.0107 24.9719C10.0107 25.0419 9.98071 25.1119 9.98071 25.1619C10.0707 25.8819 10.1507 25.5219 10.5807 25.3619C11.9007 24.8619 12.9507 25.2919 14.1407 25.0219C14.5907 24.9219 14.9807 24.7119 15.3707 24.5419C15.4107 24.5219 15.5807 24.5419 15.6407 24.4719H15.6307ZM44.4707 25.6019C44.3807 25.5719 44.0207 25.9219 43.9407 26.0019C43.4507 26.4619 43.0807 27.0519 42.8707 27.6619C42.6807 28.2019 42.5607 28.7519 42.3607 29.2819C42.3307 29.3919 41.9907 29.5319 41.9207 29.5319C41.8507 29.5319 41.5207 29.2619 41.4707 29.1819C41.3907 29.0419 41.4207 28.9319 41.3707 28.8319C41.2607 28.6019 41.0507 28.3719 40.9807 28.1119C40.1307 26.2319 37.1807 25.3519 35.3407 25.9719C34.6407 26.2019 33.9407 26.5819 33.5307 27.2019C33.5907 27.3019 33.6107 27.2619 33.6807 27.2519C34.2407 27.2219 34.7307 26.8819 35.2807 26.7719C35.3707 26.7519 35.4807 26.7719 35.5807 26.7719C35.8107 26.7319 36.4707 26.5919 36.6507 26.7219C36.8507 26.8619 36.8107 27.2119 36.5807 27.3219C36.4207 27.4019 35.6807 27.4419 35.4007 27.5119C35.1607 27.5719 33.8907 27.9919 33.9407 28.2619C34.0107 28.6819 34.9707 28.1819 35.2007 28.1119C35.7407 27.9619 36.6707 27.7319 37.1907 27.9019C37.4807 27.9919 37.6007 28.3919 37.3307 28.5719C37.2607 28.6119 36.8407 28.7219 36.7407 28.7319C36.6607 28.7419 36.5607 28.6819 36.4507 28.7019C36.0207 28.7719 34.6907 29.0819 34.5507 29.5419C34.4607 29.8319 34.6707 29.9419 34.9307 29.9619C35.3307 29.9819 35.9807 29.8119 36.3707 29.6919C36.6807 29.5919 37.4207 29.1619 37.7107 29.4119C37.9307 29.5919 37.8607 30.6519 37.9407 31.0019C37.9407 31.0419 38.0307 31.0419 38.0407 31.0819C38.1407 31.5119 38.2407 32.2819 38.5307 32.6119C38.6007 32.6919 38.7207 32.7019 38.7807 32.7619C38.8507 32.8319 38.8507 32.9919 38.9407 33.0119C39.0307 33.0419 39.1407 32.9619 39.2407 32.9619C39.7607 32.9819 40.3007 32.9619 40.8107 33.0119L40.8607 32.9119C41.1107 33.0819 41.3007 32.9319 41.4907 32.9319C42.8907 32.9319 44.2707 33.0419 45.6707 33.0119C46.0307 33.0119 46.1907 33.0019 46.5107 32.8319C46.8307 32.6619 47.0507 32.5019 47.1007 32.1119C47.1507 31.8019 47.0407 31.8019 46.9907 31.5919C46.8007 30.8819 46.5607 30.1219 46.2407 29.4519C46.1807 29.3319 46.0307 29.2219 46.0007 29.1719C45.9407 29.0319 45.9607 28.8619 45.9107 28.7119C45.8907 28.6419 45.7207 28.5719 45.7007 28.5119C45.4907 27.8819 45.2307 27.2519 44.9807 26.6619C44.9207 26.5219 44.5407 25.6419 44.4807 25.6219L44.4707 25.6019ZM5.75073 29.8319C5.78073 29.2119 5.57073 28.7019 5.18073 28.2319C4.89073 27.8819 4.39072 27.4419 3.92072 27.4619C3.81072 27.5419 3.76073 27.8319 3.72073 27.9719C3.55073 28.4819 3.29073 29.0619 3.09073 29.5819C2.83073 30.2919 2.64073 31.0019 2.47073 31.7319C2.42073 31.9319 2.25071 31.9519 2.35071 32.2819C2.36071 32.3219 2.55072 32.5819 2.58072 32.6019C3.45072 33.1519 4.77073 32.7719 5.75073 32.9319L5.79071 32.8419C6.46071 32.8419 7.21073 32.9419 7.87073 32.9419C8.04073 32.9419 8.18072 32.8619 8.42072 32.8619C8.71072 32.8619 8.97073 32.8619 9.25073 32.8619C9.51073 32.8619 9.88071 32.9719 10.0407 32.7319C10.1507 32.5719 10.4707 31.9119 10.6307 31.8519C11.0107 31.8119 11.3507 31.6219 11.7207 31.5219C12.1307 31.4119 13.4707 31.2119 13.7007 30.9919C13.7407 30.9519 13.8607 30.7319 13.8507 30.6719C13.7507 30.5319 13.6207 30.4019 13.4407 30.3919C13.1207 30.3719 12.4307 30.5019 12.0807 30.5519C11.6707 30.6119 11.0407 30.9719 11.0407 30.2819C11.0607 30.2119 11.4607 29.9219 11.5207 29.9019C12.0507 29.7319 12.8507 29.7319 13.4307 29.5819C13.5907 29.5419 14.1107 29.4119 14.0707 29.2119C13.9907 29.1619 13.8707 29.1019 13.7907 29.0919C12.8207 28.9619 11.5107 29.1219 10.5707 29.3619C10.3607 29.4119 9.79072 29.7719 9.71072 29.3619C9.67072 29.1519 9.71073 29.0019 9.90073 28.8919C10.2607 28.7019 11.5807 28.3819 12.0307 28.2819C12.2207 28.2419 13.1607 28.2019 13.2507 28.0619C13.3307 27.9419 13.0807 27.8019 12.9807 27.7619C12.5207 27.6019 11.1707 27.7119 10.6807 27.8419C9.29073 28.2019 7.56073 29.1819 6.47073 30.0719C6.12073 30.3619 5.78072 30.7719 5.46072 31.0319C5.27072 31.1919 4.85071 31.3519 4.85071 30.9819C4.85071 30.6119 5.47073 30.0319 5.75073 29.8319Z" fill="#1A1A1A"/>
<path d="M29.4107 24.812C29.1807 24.982 28.4307 25.3919 28.1607 25.4619C27.7907 25.5619 27.1607 25.5319 26.7907 25.4819C26.8507 25.8419 26.6507 26.3319 26.4107 26.5919C26.0107 27.0219 25.1807 27.2819 24.5807 27.3519C23.7007 27.4519 22.5407 27.0619 21.8907 26.4819C21.7507 26.3119 21.8007 25.7619 21.7707 25.5319C21.6907 25.4519 20.3807 25.6019 20.0907 25.5519C19.8007 25.5019 19.0807 25.2119 18.8607 25.0219C18.7607 24.9319 18.7707 24.8519 18.7107 24.7919C18.6507 24.7319 18.5407 24.7219 18.4907 24.6619C18.1007 24.2019 17.7907 23.5219 17.5807 22.9719C17.4707 22.7019 17.5407 22.5619 17.8107 22.4619C18.3707 22.2619 19.7807 22.3519 20.4307 22.3519C21.4707 22.3519 22.5607 22.3019 23.6207 22.3019C23.9407 22.3019 24.3807 22.4019 24.6807 22.4019C24.9107 22.4019 25.3007 22.2419 25.5507 22.2019C26.8507 22.0219 28.2307 22.0119 29.5307 21.9119C29.8207 21.8919 31.0007 21.5719 31.0007 22.1119C30.8407 22.5319 30.7607 22.9919 30.5607 23.4019C30.3307 23.8919 29.8307 24.5019 29.4107 24.8019V24.812ZM29.9807 22.6519C29.3607 22.6419 28.7607 22.6719 28.1607 22.8019C28.2207 23.0519 28.2407 23.1919 28.0907 23.4119C27.8407 23.7719 27.4007 24.0119 26.9707 24.0219C26.3107 24.0319 25.6207 23.722 25.5507 23.002L25.4907 22.9619C25.3407 22.9619 24.6707 22.9619 24.7107 23.1719C24.7107 23.2219 24.9707 23.4519 25.0307 23.5219C25.2707 23.8119 25.5707 24.1519 25.9307 24.3419C26.2907 24.5319 27.1707 24.7419 27.5707 24.7219C28.3407 24.6919 29.5307 23.7019 29.8407 23.0419C29.9007 22.9219 29.8907 22.7719 29.9807 22.6519ZM23.7507 23.1619C23.4807 23.2319 22.8207 23.0019 22.6107 23.1619C22.5707 23.1919 22.5807 23.3819 22.5207 23.4919C22.5007 23.5219 22.0907 23.9519 22.0507 23.9819C21.8107 24.1519 21.2307 24.2319 20.9507 24.1719C20.9207 24.1719 20.5107 24.0019 20.4907 23.9819C20.3607 23.8919 20.2407 23.4619 20.1207 23.3219C20.0107 23.2619 18.7407 23.2519 18.5607 23.2719C18.5107 23.2719 18.4507 23.2619 18.4907 23.3519C18.5207 23.4219 18.7307 23.732 18.7907 23.812C19.0907 24.182 19.7407 24.7319 20.2207 24.7819C20.6207 24.8219 21.6207 24.6919 21.9807 24.5419C22.3407 24.3919 23.2307 24.0319 23.4707 23.7419C23.5307 23.6719 23.7907 23.232 23.7507 23.182V23.1619ZM24.7607 24.4219L24.3307 23.9219C24.2707 23.9119 23.8807 24.382 24.0807 24.372C24.3307 24.362 24.5007 24.3519 24.7707 24.4219H24.7607ZM25.8607 25.9819C25.9607 25.8619 26.0207 25.6319 25.9507 25.4919C25.9107 25.4019 25.4007 25.2319 25.2807 25.2019C24.8807 25.1119 23.9307 25.0719 23.5207 25.1119C23.4107 25.1219 23.0707 25.1719 22.9707 25.2019C22.7407 25.2619 22.4207 25.8319 22.5907 26.0319C22.6307 26.0819 23.0907 26.3019 23.1707 26.3319C23.8107 26.5619 24.5707 26.622 25.2107 26.372C25.3607 26.312 25.7607 26.0819 25.8507 25.9819H25.8607Z" fill="#1A1A1A"/>
<path d="M30.8207 26.7319C30.7907 26.7819 30.2707 27.1719 30.1807 27.2319C28.4607 28.3419 25.6707 28.7619 23.6207 28.8319C22.3807 28.8719 21.3007 28.6219 20.1707 28.0819C19.9107 27.9619 19.5707 27.8619 19.4907 27.5419C19.6207 27.3819 19.5507 27.2619 19.8207 27.2619C20.3707 27.2619 21.0707 27.6119 21.6007 27.7719C23.1307 28.2119 25.8307 27.952 27.3507 27.442C28.0407 27.212 28.9907 26.9819 29.6007 26.6019C29.8007 26.4819 29.9607 26.2619 30.2107 26.1519C30.7207 25.9319 31.1607 26.2119 30.8207 26.7419V26.7319Z" fill="#1A1A1A"/>
<path d="M23.4807 20.7919C23.5907 20.9319 23.5907 21.4319 23.4407 21.5619C23.2507 21.7219 22.6507 21.7219 22.3807 21.7219C22.0207 21.7219 21.5907 21.6419 21.2407 21.6419C20.8707 21.6419 20.4807 21.712 20.0807 21.692C19.8007 21.672 19.0907 21.6419 19.0107 21.3519C18.9007 20.9719 18.9407 20.4119 19.4307 20.3919C19.8307 20.3719 20.2907 20.4319 20.6907 20.4519C21.2107 20.4719 21.7807 20.4719 22.3107 20.5319C22.5507 20.5519 23.3607 20.6519 23.4907 20.8019L23.4807 20.7919Z" fill="#1A1A1A"/>
<path d="M29.0507 19.4219C29.3207 19.4219 29.5207 20.1219 29.4607 20.3319C29.4507 20.3719 29.2507 20.6219 29.2107 20.6419C29.0107 20.7619 28.1707 20.822 27.8807 20.882C27.3407 21.002 26.0007 21.432 25.5407 21.382C25.2307 21.352 25.2607 20.6519 25.3707 20.4519C25.4807 20.2519 26.5607 20.1119 26.8307 20.0419C27.5707 19.8419 28.3007 19.5919 29.0407 19.4219H29.0507Z" fill="#1A1A1A"/>
<path d="M26.9807 30.032C26.9807 30.032 27.1807 29.802 27.2807 29.752C27.7607 29.512 27.8807 30.072 27.5007 30.422C27.2707 30.632 26.7107 30.8619 26.4007 30.9519C25.5307 31.2019 23.4707 31.172 22.7307 30.622C22.5407 30.482 22.3607 30.2819 22.5207 30.0719C22.7607 29.7619 23.3307 30.122 23.6207 30.192C24.5007 30.402 26.1507 30.362 26.9707 30.032H26.9807Z" fill="#1A1A1A"/>
<path d="M6.76073 21.752C7.27073 21.702 6.66072 22.712 6.57072 22.932C6.36072 23.512 6.20074 24.1919 5.96074 24.7619C5.86074 25.0019 5.53073 25.3019 5.39073 24.9719C5.31073 24.8019 5.62073 23.862 5.70073 23.632C5.85073 23.212 6.28072 22.152 6.57072 21.872C6.62072 21.822 6.69073 21.762 6.76073 21.752Z" fill="#1A1A1A"/>
<path d="M40.1207 18.5519C40.5007 18.4819 40.5807 18.8119 40.7207 19.0919C40.9107 19.4719 41.4507 20.5819 41.5207 20.9219C41.5707 21.1519 41.5407 21.3619 41.2607 21.3419C41.0607 21.3319 40.7107 20.7519 40.6207 20.5619C40.5007 20.3219 40.0407 19.0519 40.0507 18.8519C40.0507 18.7619 40.1107 18.6519 40.1307 18.5619L40.1207 18.5519Z" fill="#1A1A1A"/>
<path d="M8.47074 17.562C8.52074 17.542 8.69072 17.5219 8.73072 17.5819C8.86072 17.8919 8.67071 18.0519 8.60071 18.2619C8.41071 18.8319 8.17073 19.6119 7.90073 20.1519C7.71073 20.5419 7.32072 20.1619 7.39072 19.8519C7.59072 19.4019 7.72073 18.9119 7.93073 18.4619C8.01073 18.2719 8.20073 17.8719 8.30073 17.7219C8.35073 17.6519 8.38074 17.592 8.47074 17.562Z" fill="#1A1A1A"/>
<path d="M39.1907 20.3619C38.9307 20.5419 38.7007 20.2819 38.5707 20.0619C38.4007 19.7819 38.0507 18.9619 37.9607 18.6519C37.9307 18.5519 37.8207 18.1019 37.8607 18.0419C37.9907 17.8519 38.2107 17.8919 38.3307 18.0719C38.5207 18.3719 39.1307 19.5919 39.2307 19.9119C39.2707 20.0619 39.2707 20.2219 39.1907 20.3619Z" fill="#1A1A1A"/>
<path d="M39.1207 16.4019C39.2507 16.6219 39.4607 16.8919 39.5707 17.1419C39.8507 17.7719 39.3307 18.0519 39.0107 17.6019C38.8107 17.3219 38.3407 16.3519 38.3107 16.0219C38.3007 15.9119 38.2807 15.8819 38.3507 15.7819C38.6407 15.3119 39.0107 16.2119 39.1307 16.4019H39.1207Z" fill="#1A1A1A"/>
<path d="M7.84073 21.8519V21.9919L7.99072 22.0219C7.88072 22.4019 7.8007 22.7919 7.6607 23.1619C7.6007 23.3319 7.39073 23.9219 7.25073 23.9619C6.66073 24.1419 7.06071 23.0319 7.14071 22.7919C7.18071 22.6719 7.55071 21.8819 7.60071 21.8519C7.64071 21.8319 7.82073 21.8319 7.84073 21.8519Z" fill="#1A1A1A"/>
</svg>
