<svg width="40" height="57" viewBox="0 0 40 57" fill="none" xmlns="http://www.w3.org/2000/svg">
<path d="M35.6685 0.799988C34.7685 0.339988 33.2785 0 32.1085 0C31.6785 0 31.2985 0.0500146 30.9785 0.140015C29.7285 0.490015 28.2385 1.48998 27.2385 2.78998C26.5585 2.01998 25.5185 1.57001 24.2985 1.57001C23.3285 1.57001 22.4185 1.87003 21.7285 2.41003C21.7285 2.41003 21.2385 2.84 21.0785 3.12C21.0085 3.25 20.9485 3.41001 20.8885 3.57001C20.5785 3.65001 20.3285 3.80001 20.1285 3.95001C19.6385 3.08001 18.8885 2.27998 17.8985 1.53998C16.8985 0.799978 15.6885 0.410034 14.3985 0.410034C12.1885 0.410034 9.87853 1.57 8.50853 3.38C7.69853 4.45 7.40852 6.10003 7.70852 7.91003C7.98852 9.58003 8.70853 11.08 9.63853 11.93C10.9485 13.13 12.9785 13.57 14.3585 13.59C14.1385 13.68 13.9085 13.79 13.6785 13.91C13.6185 13.94 13.5485 13.98 13.4985 14C13.3985 14.02 13.2385 14.05 13.0685 14.12C12.8585 14.2 12.6685 14.32 12.4785 14.46C12.3785 14.39 12.2685 14.34 12.1485 14.3C12.0185 14.26 11.8685 14.24 11.7285 14.24C10.9085 14.24 10.3085 14.9 10.1085 15.12C9.49853 15.79 8.88852 16.92 8.90852 18.12C8.47852 18.65 8.17853 19.27 8.00853 19.7C7.25853 19.8 6.40852 20.18 6.01852 20.89C5.49852 21.83 5.45853 22.85 5.82853 23.7C5.26853 23.93 4.77853 24.16 4.63853 24.24C4.36853 24.4 4.16853 24.58 4.02853 24.71C3.97853 24.75 3.92853 24.81 3.89853 24.83C3.86853 24.85 3.76852 24.9 3.70852 24.94C3.48852 25.06 3.25852 25.19 3.06852 25.37C2.30852 26.11 1.54853 28.15 1.43853 28.93C1.40853 29.16 1.41853 29.36 1.41853 29.53C1.22853 29.69 1.03853 29.86 0.898526 30.06C0.748526 30.27 0.178532 31.42 0.108532 31.73C-0.191468 33.03 0.138532 34.43 0.998532 35.56C0.838532 36.71 1.26853 37.92 1.86853 38.73C2.25853 39.26 3.15853 39.91 3.78853 40.1C4.09853 40.2 4.49853 40.25 4.89853 40.25H4.91853C5.43853 40.84 6.19853 41.34 6.88853 41.48C7.13853 41.53 8.12853 41.59 8.30853 41.59C8.36853 41.59 8.45853 41.59 8.55853 41.57C8.63853 41.55 8.72853 41.53 8.82853 41.51C8.77853 41.7 8.72853 41.91 8.68853 42.12C8.60853 42.56 8.41853 43.68 8.55853 44.62C8.57853 44.78 8.63853 44.97 8.75853 45.32C8.77853 45.38 8.79853 45.43 8.80853 45.46C8.80853 45.47 8.80852 45.48 8.81852 45.5C7.71852 46.93 7.33852 48.42 7.65852 50.02L7.47853 51.2C7.37853 51.2 7.27852 51.2 7.17852 51.2C6.15852 51.2 5.29853 51.5 4.61853 52.09C3.76853 52.83 3.63853 53.72 3.61853 54.42C3.60853 54.86 3.67853 55.25 3.82853 55.58C4.08853 56.15 4.58853 56.53 5.19853 56.63C5.69853 56.71 6.25852 56.75 6.90852 56.75C7.45852 56.75 7.99853 56.72 8.52853 56.7C8.92853 56.68 9.29852 56.66 9.65852 56.66C9.68852 56.66 9.70852 56.66 9.73852 56.66C9.93852 56.66 10.1585 56.67 10.3885 56.68C10.6585 56.69 10.9285 56.71 11.2185 56.71C11.7485 56.71 12.1685 56.66 12.5585 56.55C13.0485 56.41 13.3785 56.09 13.5485 55.59C13.6385 55.33 13.7285 55.06 13.8185 54.79C14.2285 53.55 14.6585 52.27 15.2185 51.17C15.6885 50.25 15.8685 49.22 15.7785 48.04C15.8085 48 15.8485 47.96 15.8785 47.92C16.2585 47.43 16.7285 46.62 17.0485 45.9C17.0785 45.96 17.1185 46.01 17.1585 46.06C17.4185 46.38 17.6885 46.75 17.9685 47.17C18.0085 47.23 18.0585 47.3 18.1085 47.35L18.3285 47.58C18.3985 48.56 18.5985 49.73 19.2385 50.75C19.2585 50.79 19.2885 50.83 19.3285 50.88C19.3485 50.96 19.3685 51.04 19.4085 51.11C19.4385 51.18 19.4785 51.25 19.5085 51.3C19.5085 51.31 19.5285 51.33 19.5285 51.35C19.9485 52.62 20.3885 53.86 20.7585 54.94C20.7785 55 20.8085 55.07 20.8485 55.14C20.9485 55.67 21.2685 56.03 21.8385 56.25C22.4285 56.48 23.1785 56.51 23.8985 56.51C24.0985 56.51 24.2885 56.51 24.4785 56.51C24.6385 56.51 24.7985 56.51 24.9385 56.51C25.0385 56.51 25.1285 56.51 25.1985 56.51C25.4385 56.51 25.7385 56.54 26.0585 56.57C26.5585 56.61 27.1285 56.66 27.6785 56.66C28.3785 56.66 28.9185 56.58 29.3785 56.42C30.3285 56.08 30.8285 55.45 30.9485 54.43C31.1285 52.92 30.0585 52.24 29.6085 51.94C28.8485 51.45 27.3285 51.15 26.5485 51.09C26.5485 51.06 26.5485 51.03 26.5485 50.99C26.5385 50.8 26.5085 50.63 26.4785 50.48C26.4585 50.35 26.4385 50.22 26.4385 50.14C26.4385 49.84 26.4685 49.56 26.4985 49.27C26.5585 48.65 26.6285 47.96 26.4385 47.1C26.2485 46.27 25.9185 45.56 25.4185 44.93C25.4185 44.91 25.4185 44.89 25.4185 44.87C25.4185 44.81 25.4385 44.74 25.4485 44.68C25.6185 43.68 25.7585 42.4 25.4085 41.34C25.1585 40.59 24.7685 39.64 24.3785 38.86C24.2185 38.53 24.0085 38.24 23.8285 37.98C23.7285 37.83 23.6285 37.69 23.5485 37.57C23.5585 37.53 23.5785 37.47 23.5885 37.43L23.6085 37.36C23.6785 37.13 23.7785 36.85 23.8785 36.55C24.2285 35.56 24.6285 34.44 24.5485 33.43C24.5485 33.38 24.5385 33.34 24.5285 33.29C24.5385 33.22 24.5485 33.14 24.5485 33.05C24.5485 32.63 24.4885 32.03 24.4285 31.67C24.3985 31.52 24.3685 31.37 24.3285 31.22C24.3985 31.17 24.5085 31.1 24.5985 31.05C24.7885 30.93 25.0085 30.79 25.1985 30.63C25.9585 29.99 26.6185 28.81 26.9285 27.93C27.1785 27.22 27.3285 26.57 27.3985 25.94C27.5185 24.74 27.3985 23.39 27.2985 22.59C27.6185 22.34 28.0185 22.01 28.1985 21.77C28.2585 21.69 28.4085 21.49 28.7285 20.69C29.0685 19.83 29.0785 19.6 29.0785 19.46C29.0785 19.06 28.9785 18.25 28.7585 17.76C28.7385 17.71 28.7085 17.66 28.6785 17.61C29.1385 16.85 29.3485 16.05 29.2885 15.21C29.2385 14.38 28.8085 13.23 28.2985 12.55C28.2085 12.43 28.1185 12.33 28.0285 12.26C28.0585 12.04 28.0885 11.77 28.0985 11.5C29.2685 12.63 30.8685 13.5 32.5385 13.5C32.7385 13.5 32.9485 13.49 33.1485 13.46C34.5685 13.27 36.6285 12.41 37.6385 11.19C38.4285 10.24 38.9285 9.20001 39.1785 8.01001C39.7685 5.13001 38.3585 2.18003 35.7485 0.840027L35.6685 0.799988Z" fill="#FAE9BC"/>
<path d="M14.3085 26.81C17.081 26.81 19.3285 24.6162 19.3285 21.91C19.3285 19.2038 17.081 17.01 14.3085 17.01C11.5361 17.01 9.28853 19.2038 9.28853 21.91C9.28853 24.6162 11.5361 26.81 14.3085 26.81Z" fill="#FAE9BC"/>
<path d="M20.1485 21.86C20.0185 21.92 19.8285 21.96 19.6785 22C19.7785 22.47 19.5485 22.99 19.5485 23.43C19.5485 23.89 19.8885 24.24 20.0785 24.61C20.7285 25.83 21.4985 27.04 22.4285 28.06C22.5885 28.23 22.9585 28.47 23.1485 28.64C23.2685 28.75 23.6885 29.29 23.8085 29.29C23.8585 29.29 23.9685 29.21 24.0085 29.18C25.2485 27.95 25.7085 26.18 25.7185 24.48C25.7185 24 25.7385 23.41 25.7185 22.93C25.6985 22.57 25.4585 21.79 25.6885 21.52C25.7485 21.45 25.9285 21.37 26.0085 21.29C26.1485 21.16 26.3385 20.99 26.4585 20.88C26.8785 20.46 27.3485 19.6 27.2385 18.99C27.2385 18.95 27.0185 18.3701 26.9885 18.2801C26.8885 18.0301 26.6685 17.82 26.6885 17.52C26.7085 17.26 27.1085 16.82 27.2385 16.56C27.6685 15.66 27.5585 14.42 26.8685 13.67C26.6785 13.46 26.1785 13.15 26.1285 12.86C26.0685 12.55 26.3685 11.68 26.3885 11.3C26.4085 10.88 25.9685 9.89002 25.7085 9.56002C25.5985 9.42002 25.0185 8.96001 25.0085 8.86001C25.0085 8.61001 25.3085 8.63001 25.4685 8.55001C25.7085 8.43001 26.1085 8.04001 26.2185 7.80001C26.2285 7.77001 26.3085 7.52003 26.3085 7.51003C26.3085 7.39003 26.1985 7.49001 26.1885 7.49001C25.7085 7.49001 25.2385 7.49001 24.7585 7.49001C24.8585 7.74001 24.7985 8.55001 24.4085 8.30001C24.2585 8.21001 24.2985 7.89006 24.2185 7.72006C24.1985 7.68006 24.0185 7.41002 23.9885 7.37002C23.9085 7.27002 23.4085 7.01002 23.2885 7.00002C22.8885 6.97002 22.6185 7.32001 22.2385 7.24001C21.8185 7.15001 21.9985 6.47004 21.9385 6.14004C21.9185 6.04004 21.7285 5.39001 21.6885 5.36001C21.3985 5.15001 21.1185 5.63001 21.0285 5.86001C20.8785 6.23001 20.8885 6.69002 21.0685 7.06002C21.3285 7.59002 22.5185 8.34001 23.0985 8.42001C23.2785 8.45001 23.7185 8.34003 23.6985 8.63003C23.6785 9.08003 22.8785 8.99005 22.5885 8.90005C21.9085 10.23 21.4885 11.56 22.3385 12.93C22.3685 12.98 22.4685 13.0001 22.5285 13.0901C22.5785 13.1701 22.6885 13.3801 22.6785 13.4701C22.6685 13.6901 22.4985 13.66 22.3985 13.77C21.9285 14.29 21.6785 15.26 21.7385 15.93C21.7585 16.17 21.8685 16.5701 21.9885 16.7801C22.0785 16.9501 22.4285 17.24 22.3985 17.43C22.3585 17.73 20.8485 18.7 20.6585 19.08C21.0685 19.59 21.2685 20.04 21.1285 20.71C21.0385 21.12 20.5485 21.69 20.1585 21.87L20.1485 21.86ZM23.9585 13.82C23.9585 13.82 24.2285 13.26 24.2485 13.24C24.3885 13.11 24.6885 13.16 24.7085 13.36C24.7185 13.46 24.5285 13.83 24.5185 14.04C24.4985 14.31 24.6785 15.1101 24.8185 15.3401C24.9485 15.5701 25.2685 15.68 25.1185 16C25.0585 16.13 24.8285 16.18 24.7185 16.13C24.7085 16.13 24.5385 15.96 24.5185 15.93C24.0885 15.46 23.7785 14.43 23.9585 13.82ZM24.3285 17.96C24.4085 17.94 24.5485 17.91 24.6085 17.95C24.6085 17.95 24.6985 18.1 24.7085 18.12C24.7485 18.35 24.4685 18.47 24.3685 18.63C24.2485 18.83 24.0385 19.75 24.0385 20C24.0385 20.26 24.2985 20.98 23.8485 20.92C23.5285 20.88 23.4285 20.13 23.4285 19.86C23.4385 19.32 23.7585 18.1401 24.3385 17.9701L24.3285 17.96ZM22.8185 23.0901C22.9985 23.3701 23.0785 23.69 23.2385 23.98C23.3585 23.98 23.6485 23.1701 23.6885 23.0301C23.7185 22.9301 23.6985 22.36 23.9885 22.51C24.3685 22.71 23.8885 23.85 23.7485 24.13C23.8385 24.15 23.9385 24.1801 24.0185 24.2201C24.2385 24.3201 25.0785 24.68 25.0485 24.93C25.0085 25.35 24.1785 24.82 23.9785 24.74C23.9085 24.71 23.4685 24.54 23.4485 24.57C23.4585 25.07 23.6385 25.55 23.6885 26.05C23.7085 26.33 23.7985 27.2801 23.3785 27.2801C23.0885 27.2001 23.2585 26.8201 23.2385 26.5901C23.1685 25.6001 22.8385 24.63 22.5385 23.71L21.9085 22.65C22.1585 22.35 22.6585 22.86 22.8085 23.1L22.8185 23.0901Z" fill="#FAE9BC"/>
<path d="M6.65853 38.19C7.06853 38.38 6.46853 38.82 6.23853 38.86C6.77853 39.6 7.88853 39.85 8.76853 39.65C9.06853 39.58 9.75854 39.1 9.93854 39.13C10.0285 39.14 10.3885 39.45 10.5185 39.52C11.0585 39.81 11.6885 39.97 12.2285 40.23C12.6185 40.41 13.0885 40.79 13.5285 40.87C13.7285 40.91 13.9385 40.87 14.1385 40.93L14.1985 40.83C14.1785 40.72 13.8285 40.32 13.7285 40.28C13.6485 40.24 13.5385 40.26 13.4485 40.22C13.3485 40.18 13.2985 40.06 13.2085 40.03C13.0285 39.97 12.6085 39.93 12.4685 39.8C12.3285 39.67 12.2985 39.47 12.4185 39.32C12.6085 39.1 13.0685 39.2799 13.3185 39.2899C13.6385 39.2999 14.2285 39.3199 14.5285 39.2899C14.7485 39.2699 14.9585 39.13 15.1785 39.12C14.9085 38.9 14.3285 38.81 13.9985 38.82C13.6485 38.82 12.1485 39.28 12.3985 38.52C12.4485 38.37 12.6485 38.3 12.7885 38.28C13.1985 38.2 13.6985 38.23 14.0885 38.18C14.2385 38.16 15.5485 38.01 15.0985 37.66C14.8085 37.44 14.2885 37.44 13.9385 37.46C13.5085 37.48 12.8985 37.69 12.5285 37.68C12.1985 37.68 12.1085 37.31 12.3685 37.14C12.4485 37.09 13.1485 36.89 13.2685 36.87C13.4685 36.84 14.8885 36.86 14.8885 36.7C14.5485 36.5 14.1285 36.34 13.7285 36.31C13.3385 36.28 12.8285 36.39 12.4385 36.38C12.3385 36.38 12.2285 36.31 12.1285 36.28C12.0085 35.89 12.3985 35.94 12.5985 35.72C12.6485 35.66 12.9985 35.08 13.0385 35C13.0785 34.91 13.1085 34.84 13.0885 34.74C13.0485 34.7 12.7485 34.87 12.6985 34.9C12.4085 35.09 12.2085 35.36 12.0385 35.64C11.8485 35.95 11.6685 36.59 11.2285 36.62C10.8885 36.64 10.8985 36.44 10.6985 36.28C9.75853 35.54 8.84853 35.37 7.65853 35.47C7.26853 35.5 6.55854 35.88 6.66854 35.17C7.00854 34.96 7.41853 34.86 7.81853 34.82C7.71853 34.43 7.93854 34.05 7.96854 33.64C8.03854 32.37 7.36854 31.5 6.30854 30.94C6.16854 30.86 5.81854 30.85 5.74854 30.63C5.70854 30.5 5.77854 30.3299 5.91854 30.2899C6.12854 30.2299 6.89854 30.52 7.10854 30.63C7.17854 30.67 7.17853 30.74 7.22853 30.77C7.27853 30.8 7.59853 30.91 7.61853 30.93C7.66853 30.97 8.36853 31.86 8.39853 31.92C8.53853 32.2 8.42854 32.41 8.80854 32.56C8.85854 32.58 8.83853 32.64 8.90853 32.56C8.93853 32.52 9.15853 32.07 9.19853 31.98C9.90853 30.44 10.7585 27.98 10.5785 26.3C10.5785 26.24 10.6185 26.17 10.6185 26.11L9.98853 25.37C9.07853 25.06 8.15853 25.07 7.23853 25.32C6.21853 25.6 4.68854 26.51 4.13854 27.39C3.93854 27.72 3.68854 28.29 3.57854 28.67C3.50854 28.88 3.30854 29.57 3.30854 29.74C3.30854 29.92 3.46853 30.14 3.36853 30.34C3.30853 30.46 3.16854 30.41 3.10854 30.45C3.07854 30.47 3.07854 30.5599 3.04854 30.5999C2.19854 31.6199 1.64854 32.98 2.41854 34.24C2.61854 34.57 3.44853 35.21 3.51853 35.46C3.62853 35.85 3.22854 35.87 2.99854 35.67C2.99854 36.12 2.99853 36.51 3.15853 36.94C3.54853 38.01 4.82853 38.75 5.95853 38.42C6.19853 38.35 6.39853 38.1 6.65853 38.23V38.19ZM7.43854 37.16C7.60854 36.94 7.85854 37.24 8.02854 37.31C8.30854 37.43 8.76853 37.57 9.06853 37.58C9.19853 37.58 9.42854 37.5199 9.49854 37.5399C9.70854 37.5899 9.71854 37.86 9.52854 37.99C9.10854 38.27 7.96854 38.06 7.60854 37.71C7.48854 37.59 7.30854 37.33 7.43854 37.17V37.16ZM8.01853 26.71C8.24853 26.67 8.88854 26.64 8.88854 26.95C8.88854 27.28 8.52854 27.16 8.38854 27.18C8.30854 27.19 7.78853 27.42 7.69853 27.47C7.46853 27.6 6.98853 28.11 6.83853 28.33C6.72853 28.49 6.66854 28.87 6.54854 28.96C6.34854 29.11 6.12853 28.93 6.12853 28.69C6.13853 27.8 7.17853 26.85 8.01853 26.7V26.71ZM5.09853 34.63C4.96853 34.84 4.58853 34.58 4.45853 34.47C4.01853 34.09 3.85854 33.37 3.85854 32.82C3.85854 32.58 3.92853 31.91 4.22853 31.89C4.56853 31.86 4.37854 32.57 4.38854 32.82C4.40854 33.28 4.57854 33.82 4.85854 34.19C4.94854 34.31 5.24853 34.39 5.09853 34.63Z" fill="#FAE9BC"/>
<path d="M14.9485 35.95C15.1485 36.05 15.2585 36.18 15.4485 36.27C17.6985 36.26 20.0085 35.79 22.1785 35.22C22.2985 35.19 22.5285 35.24 22.5985 35.11C22.6485 35.04 22.7385 34.36 22.7585 34.21C22.8485 33.57 22.8785 32.56 22.8085 32C22.6785 30.85 22.0485 30.32 21.3785 29.46C20.7685 28.67 20.0085 27.75 19.4785 26.91C19.1585 26.4 18.9385 25.85 18.6285 25.34C18.6185 25.56 18.8285 25.79 18.8785 26.01C18.9385 26.24 18.9785 26.62 18.9885 26.87C19.0885 28.33 18.7785 31.06 17.1085 31.53C16.2985 31.76 15.4485 31.55 14.7285 31.12C13.6885 30.51 12.7185 28.94 12.4185 27.81C12.3885 27.68 12.2785 26.92 12.2485 26.89H12.0085C12.0485 27.11 12.0985 27.41 12.1085 27.64C12.1785 29.28 11.6885 30.59 10.9885 32.03C10.7785 32.47 10.5485 32.91 10.3185 33.34C10.5085 33.54 11.4685 33.69 11.5485 33.85L11.6185 35.16C11.7385 35.19 11.6985 35.14 11.7285 35.1C12.0085 34.69 12.4085 34.21 12.9285 34.07C13.0585 34.04 13.1685 34.07 13.2685 34.05C13.1885 33.95 13.1385 33.81 13.1285 33.68C13.0985 33.37 13.1385 32.43 13.2285 32.14C13.4785 31.3 15.6185 31.68 14.6785 32.67C15.4885 33.21 14.7085 33.86 14.0285 33.95C13.7485 33.99 13.5685 33.99 13.2785 34.05C13.3485 34.14 13.4685 34.16 13.5685 34.27C13.9785 34.71 13.5985 35.24 13.3285 35.65C13.8885 35.64 14.4285 35.7 14.9385 35.96L14.9485 35.95ZM19.3885 31.41C19.6285 31.29 20.0785 31.85 20.1085 31.82C20.1285 31.68 20.3385 30.93 20.4285 30.9C20.5285 30.87 20.6785 31.02 20.6885 31.12C20.7085 31.3 20.4885 31.82 20.4985 32.09C20.4985 32.34 20.9785 33.1 20.7785 33.31C20.6685 33.42 20.5785 33.34 20.4985 33.25C20.2985 33.01 20.2985 32.62 20.1085 32.39C20.0085 32.27 19.8585 32.23 19.7485 32.12C19.6285 31.99 19.1385 31.53 19.3885 31.42V31.41ZM17.9285 32.05C18.0285 32.1 17.9985 32.2 18.0785 32.21C18.0785 31.89 18.8785 31.52 19.1085 31.59C19.2485 31.63 19.2785 31.81 19.1785 31.91C19.0885 32 18.6485 32.16 18.5885 32.26L18.6185 32.45C18.7785 32.37 18.9585 32.38 19.0985 32.33C19.2385 32.28 19.5485 32.03 19.6585 32.26C19.8385 32.63 19.0185 32.78 18.8185 32.97C18.7785 33.09 19.2085 33.98 18.7485 33.85C18.4885 33.78 18.3285 32.87 18.2385 32.62C18.1885 32.5 18.0585 32.42 18.0685 32.26C17.8485 32.46 17.4585 32.47 17.1985 32.59C17.0485 32.66 17.0985 32.64 17.1285 32.79C17.3485 32.79 18.0385 32.54 17.9985 32.91C17.9685 33.07 17.7585 33.12 17.6185 33.16C17.4385 33.22 16.8385 33.22 17.2485 33.56C17.4185 33.7 17.8285 33.41 18.0485 33.44L18.1485 33.59C18.0085 34.06 17.2385 34.35 16.9085 33.9C16.7085 33.63 16.5885 32.94 16.5985 32.61C16.6085 32.22 17.6585 31.91 17.9385 32.04L17.9285 32.05ZM16.2685 32.07C16.3385 32.07 16.5385 32.11 16.5685 32.16C16.7985 32.68 15.7185 32.37 15.6285 32.63C15.5285 32.92 15.8185 32.8 15.9385 32.79C16.1785 32.79 16.5885 32.72 16.4085 33.06L15.6385 33.23C15.6185 33.33 15.6585 33.52 15.7585 33.56C15.9385 33.62 16.8785 33.48 16.5485 33.93C16.4085 34.13 15.4785 34.15 15.2985 33.99C15.0385 33.75 15.1685 32.75 15.0885 32.38C15.1085 32.12 16.0585 32.04 16.2685 32.07Z" fill="#FAE9BC"/>
<path d="M24.5885 50.06C24.7185 50.03 24.7685 49.07 24.6685 48.92L24.7585 48.88C24.7285 48.08 24.6885 47.2 24.2685 46.46C24.1285 46.22 23.9185 46.13 23.7685 45.94C23.7085 45.86 23.4785 45.46 23.4585 45.37C23.4185 45.19 23.5485 45.06 23.5685 44.95C23.6785 44.29 23.6685 43.5601 23.7885 42.9101C23.8685 42.4601 23.5985 41.85 23.4685 41.45C23.3685 41.14 23.3085 40.82 23.1585 40.52L23.0585 40.57C23.0585 40.5 23.0485 40.3901 22.9985 40.3401C22.8685 40.2001 22.7685 40.3801 22.6785 40.4001C22.0185 40.5801 21.7485 40.71 21.1585 41.06C20.4685 41.47 19.5385 42.06 18.9685 42.6C18.8885 42.68 18.3685 43.26 18.3685 43.3C18.3585 43.44 18.5185 43.61 18.5485 43.74C18.6985 44.33 18.8185 44.85 19.1685 45.39C19.3685 45.7 19.6685 45.98 19.8985 46.24C19.9585 46.3 20.3085 46.75 20.3185 46.8C20.3385 46.87 20.2885 46.94 20.3085 47.01C20.3285 47.11 20.4285 47.1901 20.4385 47.2801C20.4585 47.4201 20.3585 47.7301 20.3785 47.9001C20.4185 48.3701 20.6385 49.1 20.8285 49.55C20.9585 49.86 21.2385 50.23 21.3985 50.54C21.7185 50.46 22.0785 50.45 22.3985 50.39C23.0285 50.27 23.6585 50.18 24.2885 50.06C24.3785 50.04 24.4785 50.06 24.5685 50.06H24.5885ZM20.4585 45.1C20.0785 45.2 19.7885 44.37 19.7085 44.1C19.6485 43.89 19.4785 43.12 19.8085 43.1C20.1285 43.07 20.0785 43.67 20.1385 43.86C20.1685 43.98 20.3785 44.42 20.4485 44.57C20.5085 44.7 20.8485 44.99 20.4585 45.1ZM23.3685 49.23C22.9185 49.36 23.0285 48.7 22.9885 48.46C22.9085 48.04 22.7285 47.5801 22.6085 47.1601C22.5785 47.0601 22.4385 46.91 22.5485 46.79C22.5885 46.75 22.6985 46.73 22.7485 46.73C23.0385 46.75 23.0585 47.1 23.1585 47.29C23.2685 47.51 23.4685 47.84 23.5285 48.08C23.5885 48.29 23.6185 49.16 23.3685 49.23Z" fill="#FAE9BC"/>
<path d="M15.3985 42.54C15.1185 42.23 14.6085 41.82 14.2285 41.65C13.7985 41.46 13.4485 41.55 13.0085 41.42L11.3685 40.62C11.2885 41.15 10.9785 41.59 10.8485 42.11C10.7285 42.59 10.5885 43.73 10.6385 44.22C10.6885 44.73 11.0885 45.67 10.8485 46.12C10.7885 46.24 10.6585 46.34 10.5785 46.48C10.1485 47.2 9.59854 48.14 9.54854 48.98C9.54854 49.06 9.60854 49.13 9.60854 49.21C9.60854 49.34 9.53853 49.9 9.58853 49.96L13.5485 50.52C13.6185 50.32 13.7785 50.25 13.8585 50.06C14.1685 49.27 14.1585 47.69 14.0185 46.86C13.9885 46.66 13.8985 46.51 13.8885 46.32C14.0885 46.14 14.2685 46.13 14.4185 46.37C14.4585 46.43 14.5185 46.76 14.6185 46.68C14.7185 46.3 14.9885 46.04 15.1585 45.7C15.5585 44.9 15.6685 44.3 15.6785 43.42C15.6785 43.29 15.7485 43.17 15.7285 43.04C15.7085 42.89 15.5085 42.67 15.4085 42.56L15.3985 42.54ZM11.9185 43.43C11.9485 43.28 12.1085 42.76 12.1985 42.67C12.2285 42.64 12.2685 42.63 12.3185 42.62C12.4085 42.62 12.4985 42.68 12.5385 42.76C12.6185 42.93 12.4185 43.51 12.3885 43.75C12.3585 43.96 12.4485 44.77 12.1185 44.78C11.8785 44.79 11.8085 44.36 11.8085 44.18C11.8085 44.05 11.8885 43.57 11.9185 43.42V43.43ZM12.6185 49.02C12.5785 49.17 12.4585 49.27 12.4585 49.42C12.3085 49.51 12.1685 49.62 11.9785 49.57C11.6785 49.48 11.9585 49.03 12.0085 48.84C12.0785 48.58 12.1485 48.42 12.2185 48.18C12.2785 47.98 12.2385 47.69 12.2885 47.52C12.3385 47.35 12.6485 47.35 12.7485 47.45C12.7685 47.47 12.8485 47.63 12.8485 47.67C12.8785 47.89 12.6885 48.77 12.6185 49.02Z" fill="#FAE9BC"/>
<path d="M13.3785 27.14C13.3085 27.09 12.9185 27.02 12.8585 27.08C12.9885 27.47 13.1085 27.91 13.2685 28.29C13.7685 29.45 14.5585 30.35 15.7085 30.83C16.5085 31.17 17.3485 30.8 17.7685 30.11C18.3385 29.17 18.5285 27.24 18.3685 26.14C18.3585 26.05 18.1485 25.49 18.1085 25.48C17.9485 25.62 17.7485 25.69 17.6585 25.9C17.7085 26.03 17.7885 26.11 17.8285 26.24C18.0885 27.07 17.9885 28.97 17.3385 29.62C16.8285 30.13 16.3085 30.09 15.6685 29.84C14.8985 29.55 14.5185 28.89 13.9685 28.34C13.8185 28.14 13.5085 27.23 13.3685 27.12L13.3785 27.14Z" fill="#FAE9BC"/>
<path d="M31.8685 2.96005C31.2885 2.27005 30.0885 3.01005 29.6185 3.52005C29.1185 4.06005 28.8185 4.91005 29.3785 5.52005C29.8785 6.08005 30.4285 5.93004 30.9885 5.57004C31.5885 5.18004 31.9385 4.46005 32.0385 3.77005C32.0785 3.47005 32.0685 3.20005 31.8585 2.96005H31.8685Z" fill="#FAE9BC"/>
<path d="M23.4185 5.48999C23.4985 5.27999 23.4185 5.15003 23.4285 4.97003C23.4385 4.81003 23.6085 4.19 23.7485 4.13C24.3885 3.84 23.9285 5.19 23.9585 5.38C23.9785 5.5 24.2585 6.00998 24.4285 5.91998C24.5185 5.86998 24.7385 5.48 24.7585 5.37C24.8185 5.09 24.5985 4.07998 25.1285 4.09998C25.4785 4.10998 25.3085 4.85 25.3585 5.13C25.3785 5.25 25.5085 5.64999 25.5785 5.73999C25.5885 5.75999 25.7885 5.96003 25.8085 5.97003C26.0385 6.11003 26.3685 5.66003 26.4285 5.47003C26.5285 5.13003 26.3885 4.18999 26.1385 3.92999C25.8085 3.59999 24.9285 3.29999 24.4685 3.29999C23.3685 3.30999 22.4385 3.96998 22.6685 5.16998C22.7485 5.57998 23.1985 6.08998 23.4385 5.47998L23.4185 5.48999Z" fill="#FAE9BC"/>
<path d="M10.6585 7.04996C10.7385 7.04996 11.1985 6.83 11.2585 6.78C11.6085 6.52 12.2185 5.52996 12.3485 5.10996C12.5085 4.57996 12.4085 3.60996 11.6885 3.66996C11.2785 3.69996 11.0185 3.94 10.7485 4.21C10.2785 4.69 9.82854 5.33996 9.85854 6.04996C9.87854 6.44996 10.2185 7.04996 10.6585 7.04996Z" fill="#FAE9BC"/>
<path d="M26.1385 53.91C25.2985 53.91 24.4485 54.01 23.6185 54.03C23.2885 54.03 22.9285 53.93 22.5985 53.98C22.5285 53.98 22.5185 53.95 22.5285 54.05L22.6685 54.54C22.8685 54.53 23.0585 54.63 23.2285 54.66C23.8485 54.75 24.5185 54.59 25.1085 54.65C25.9285 54.72 26.7585 54.76 27.5785 54.76C27.8585 54.76 28.2385 54.81 28.4885 54.79C28.5785 54.79 29.0485 54.64 29.1085 54.59C29.2685 54.47 29.3285 54.17 29.2985 53.98C28.2485 53.98 27.1885 53.91 26.1385 53.91Z" fill="#FAE9BC"/>
<path d="M22.3085 36.31C22.3785 36.16 22.4085 35.86 22.4885 35.69C21.9885 35.77 21.4985 35.98 20.9885 36.1C19.6385 36.44 17.2685 36.9 15.9285 36.85C15.8085 36.85 15.6885 36.79 15.5685 36.8L15.4685 37.2L15.6985 37.48C16.1985 37.36 16.7285 37.39 17.2385 37.33C18.7185 37.16 20.1885 36.87 21.6385 36.6C21.8485 36.56 22.2185 36.5 22.3085 36.3V36.31Z" fill="#FAE9BC"/>
<path d="M11.5885 54.3C9.73853 54.25 7.76853 54.23 5.91853 54.32C5.82853 54.32 5.73853 54.29 5.64853 54.29L5.55853 54.34L5.61853 54.83C5.91853 54.81 6.20853 54.9 6.50853 54.92C7.51853 54.99 8.58853 54.84 9.59853 54.83C10.3485 54.83 11.1385 54.94 11.8685 54.88C11.9285 54.88 12.0785 54.86 12.1185 54.82L12.3685 54.37C12.1485 54.16 11.8285 54.29 11.5885 54.28V54.3Z" fill="#FAE9BC"/>
<path d="M9.27853 32.86L9.65852 32.97C9.78852 32.68 10.1085 32.4 10.2685 32.15C10.8285 31.24 11.3885 29.46 11.4985 28.4C11.5585 27.83 11.4785 27.21 11.5985 26.64L11.1685 26.44C11.0685 26.69 11.1685 26.97 11.1685 27.18C11.0985 28.65 10.4085 30.82 9.72853 32.13C9.60853 32.36 9.44853 32.63 9.28853 32.85L9.27853 32.86Z" fill="#FAE9BC"/>
<path d="M23.2585 29.69C22.9585 29.49 22.6485 29.2 22.3885 28.94C21.2385 27.8 20.2785 26.43 19.5685 24.93C19.4685 24.71 19.2385 24.54 19.2885 24.26C19.2185 24.18 18.9985 24.56 18.9885 24.61C18.9085 24.85 19.2285 25.19 19.3385 25.4C19.9585 26.6 20.6685 27.47 21.4685 28.54C21.7285 28.89 22.1085 29.53 22.4185 29.82C22.7585 30.14 23.0585 30.11 23.2585 29.68V29.69Z" fill="#FAE9BC"/>
<path d="M8.74854 33.32C8.71854 33.79 8.66853 34.3 8.45853 34.72C8.54853 34.72 8.62854 34.67 8.71854 34.68C9.33854 34.7 10.4085 35.16 10.9285 35.52C11.0285 35.59 10.9885 35.72 11.1185 35.69C11.0285 35.21 10.8885 34.67 11.0185 34.19C10.5985 34.07 10.1385 33.97 9.73853 33.8C9.61853 33.75 8.79854 33.25 8.74854 33.31V33.32Z" fill="#FAE9BC"/>
<path d="M9.08852 23.64C9.05852 23.32 8.92852 23.02 8.89852 22.7C8.85852 22.25 8.93853 21.81 8.91853 21.37C8.80853 21.21 7.97853 21.48 7.82853 21.59C7.67853 21.7 7.50852 22.17 7.48852 22.37C7.38852 23.23 8.24853 23.94 9.07853 23.64H9.08852Z" fill="#FAE9BC"/>
<path d="M23.0885 6.37C23.1585 6.37 23.5785 6.41999 23.6585 6.42999C23.9685 6.49999 24.3485 6.75999 24.4985 7.04999C24.5485 7.04999 24.6185 6.97002 24.6885 6.96002C25.0085 6.91002 25.6685 6.87 25.9985 6.87C26.1085 6.87 26.1985 6.94 26.2785 6.94C26.7885 6.94 27.9585 7.05 27.9485 6.31C27.9485 6.08 27.5885 5.90002 27.3985 5.90002C27.3485 5.90002 26.8185 6.00002 26.7885 6.02002C26.6185 6.12002 26.5585 6.47 26.1685 6.56C25.5985 6.69 25.4385 6.36998 25.0685 6.03998H24.9985C24.6285 6.67998 23.9885 6.52999 23.6185 5.98999C23.2985 6.49999 22.8585 6.28999 22.4785 5.98999L22.5285 6.47003C22.7385 6.56003 22.9285 6.38 23.0785 6.38L23.0885 6.37Z" fill="#FAE9BC"/>
<path d="M19.1185 19.88C19.3785 20.39 19.6185 20.89 19.6285 21.47C19.6385 21.48 19.9885 21.32 19.9985 21.31C20.0185 21.29 20.3585 20.87 20.3785 20.84C20.3885 20.81 20.5285 20.4 20.5385 20.37C20.5985 20.04 20.2485 19.46 19.9985 19.24C19.6285 18.92 19.1885 18.81 18.7685 19.12C18.6985 19.17 18.7485 19.24 18.7785 19.3C18.8685 19.48 19.0285 19.69 19.1185 19.88Z" fill="#FAE9BC"/>
<path d="M15.1185 28.69C15.1185 28.69 15.1785 28.79 15.2385 28.84C15.5485 29.11 16.2985 29.58 16.7085 29.35C17.1585 29.09 17.3985 27.72 17.4185 27.23L16.9885 27.84C16.3385 28.35 15.5585 28.65 14.7585 28.3C14.8585 28.46 14.9985 28.58 15.1285 28.7L15.1185 28.69Z" fill="#FAE9BC"/>
<path d="M19.5885 7.17001C19.8385 7.30001 20.1385 7.10005 20.4085 7.15005L20.2685 6.35C20.0185 6.39 19.7785 6.19003 19.5585 6.38003C19.2885 6.61003 19.2485 6.99002 19.5885 7.18002V7.17001Z" fill="#FAE9BC"/>
<path d="M10.3085 8.58003C10.5785 8.91003 11.3985 8.45999 11.0885 7.91999C10.7185 7.26999 9.99854 8.20003 10.3085 8.58003Z" fill="#FAE9BC"/>
<path d="M29.5785 7.02C28.8285 6.56 28.4085 7.85996 29.3285 7.72996C29.6585 7.67996 29.9085 7.22 29.5785 7.02Z" fill="#FAE9BC"/>
<path d="M28.4185 30.53L27.8585 30.13C28.0585 30.56 28.2385 30.99 28.4085 31.43C28.4285 31.47 28.3885 31.54 28.4085 31.62C28.4585 31.76 28.6485 32.14 28.7485 32.25C28.8785 32.41 28.9485 32.48 29.1585 32.42C29.5685 32.31 29.4185 31.93 29.3085 31.64C29.1685 31.29 28.6985 30.78 28.4185 30.52V30.53Z" fill="#FAE9BC"/>
<path d="M30.9185 26.43C30.9185 26.43 30.8585 26.33 30.7985 26.28C30.6185 26.13 30.2085 25.86 29.9785 25.89C30.2585 26.29 30.5185 26.69 30.7285 27.13C30.9985 27.34 31.1685 27.69 31.5685 27.56C31.5685 27.45 31.5985 27.29 31.5685 27.19C31.4985 27.02 31.0785 26.58 30.9185 26.44V26.43Z" fill="#FAE9BC"/>
<path d="M5.70853 16.06C6.23853 16.21 6.64853 16.19 7.16853 16.24C7.34853 16.26 7.54853 16.39 7.72853 16.31C7.61853 16.21 7.48853 16.05 7.36853 15.97C6.86853 15.59 5.61854 15 5.21854 15.74C5.23854 15.99 5.51853 16.01 5.69853 16.06H5.70853Z" fill="#FAE9BC"/>
<path d="M14.5985 33.08C14.4285 33.05 14.2685 32.97 14.0885 32.98C14.0285 32.98 13.7185 33.08 13.6785 33.11C13.6085 33.16 13.6085 33.46 13.6485 33.52C13.7485 33.67 14.6885 33.45 14.5985 33.08Z" fill="#FAE9BC"/>
<path d="M14.5085 32.23C14.1085 31.97 13.6285 32 13.7385 32.59C14.0185 32.5 14.3685 32.56 14.5085 32.23Z" fill="#FAE9BC"/>
<path d="M4.42163 21.1957C5.10988 20.8683 5.51975 20.2917 5.33708 19.9076C5.1544 19.5236 4.44836 19.4777 3.76011 19.8051C3.07186 20.1325 2.66201 20.7092 2.84469 21.0932C3.02737 21.4773 3.73338 21.5231 4.42163 21.1957Z" fill="#FAE9BC"/>
<path d="M19.3285 6.18997C19.8085 6.18997 20.7185 6.10995 20.7185 6.16995C20.7185 6.22995 20.7985 7.15997 20.7485 7.18997C20.6985 7.21997 19.2385 7.38999 19.2385 7.38999C19.2385 7.38999 18.8685 6.70998 18.8785 6.62998C18.8885 6.54998 19.3185 6.18997 19.3185 6.18997H19.3285Z" fill="#D6A078"/>
<path d="M22.2085 5.79C22.2085 5.79 22.9285 6.12004 23.0085 6.08004C23.0885 6.04004 23.5885 5.75 23.6985 5.85C23.8085 5.95 23.9185 6.16002 24.1885 6.12002C24.4585 6.08002 25.0885 5.87002 25.0885 5.87002C25.0885 5.87002 25.3985 6.09002 25.6985 6.12002C25.9985 6.15002 26.2185 6.19002 26.2585 6.12002C26.2985 6.05002 26.9485 5.63001 27.1085 5.61001C27.2685 5.59001 27.9185 5.70002 27.9585 5.75002C27.9985 5.80002 28.2285 6.64002 28.2285 6.69002C28.2285 6.74002 27.6185 7.16003 27.3585 7.20003C27.0985 7.24003 26.9285 7.16006 26.5085 7.16006H24.5585C24.5085 7.16006 24.3285 7.25006 24.2285 7.16006C24.1285 7.07006 23.1585 6.56 23.0385 6.6C22.9185 6.64 22.2585 6.78005 22.2585 6.78005L22.2185 6.31002L22.1985 5.79H22.2085Z" fill="#D6A078"/>
<path d="M10.9685 26.12C10.9685 26.12 10.4485 29.5 10.3685 29.86C10.2885 30.22 9.28853 32.85 9.28853 32.85L11.0285 34.18L11.2985 36.06L12.7885 34.41C12.7885 34.41 12.6585 34.7 13.1085 34.71C13.5585 34.72 13.2785 35.01 13.2485 35.15C13.2185 35.29 12.3385 35.63 12.9385 35.86C13.5385 36.09 14.4085 36.14 14.5585 36.2C14.7085 36.26 15.1585 36.48 15.1585 36.48L15.4885 37.19L15.8685 38.04L21.7985 37.36C21.7985 37.36 22.3685 36.79 22.4185 36.65C22.4685 36.51 23.2985 32.59 23.2985 32.59L22.8985 30.86L23.6685 29.67L21.0885 27.06L19.1885 23.8L17.0285 25.9L15.2685 26.84C15.2685 26.84 12.9685 26.67 12.7985 26.61C12.6285 26.55 11.7485 26.3 11.7485 26.3L10.9785 26.11L10.9685 26.12Z" fill="#D6A078"/>
<path d="M12.4385 54.1H5.26852V54.94H12.4385V54.1Z" fill="#D6A078"/>
<path d="M29.4385 53.72H22.2685V54.94H29.4385V53.72Z" fill="#D6A078"/>
<path d="M4.79854 21.19C4.43854 21.56 4.11853 21.77 3.58853 21.85C3.43853 21.87 3.19854 21.82 3.07854 21.73C2.58854 21.36 2.49853 20.72 2.81853 20.21C3.28853 19.46 5.15853 19.16 5.91853 19.57C6.35853 19.8 5.76853 20.04 5.56853 20.26C5.28853 20.55 5.06853 20.9 4.78853 21.2L4.79854 21.19ZM5.07854 19.97C4.65854 19.9 3.56853 20.22 3.34853 20.58C3.23853 20.76 3.24853 21.04 3.38853 21.19C3.55853 21.39 4.03853 21.05 4.22853 20.98L5.07854 19.97Z" fill="#1A1A1A"/>
<path d="M14.7685 17.03C14.6285 17.15 14.3585 17.45 14.2785 17.63C14.1785 17.83 14.0385 18.47 13.8785 18.54C13.3285 18.79 13.6185 17.69 13.7085 17.45C13.8685 17.03 14.4885 16.37 14.8785 16.16C15.8285 15.63 17.0585 15.98 17.7885 15.1C17.8985 14.97 17.8785 14.71 18.1485 14.74C18.6285 14.79 18.0485 15.62 17.8885 15.78C17.3485 16.31 16.8885 16.39 16.1685 16.47C15.6485 16.53 15.1885 16.66 14.7585 17.03H14.7685Z" fill="#1A1A1A"/>
<path d="M13.1285 16.51C13.0285 16.64 12.6785 17.13 12.6385 17.25C12.5785 17.43 12.5185 17.83 12.4685 18.05C12.4085 18.32 12.4585 18.6 12.2685 18.84C12.0685 18.9 11.9585 18.81 11.9085 18.61C11.8385 18.29 11.9785 17.37 12.0985 17.05C12.3285 16.42 13.0385 15.45 13.6785 15.2C13.8185 15.14 13.9785 15.14 14.0985 15.09C14.4185 14.95 15.1985 14.46 15.5285 14.56C15.7585 14.63 15.7385 14.88 15.5585 15.01C15.0285 15.41 14.1785 15.61 13.6085 16.01C13.3885 16.17 13.2785 16.3 13.1185 16.51H13.1285Z" fill="#1A1A1A"/>
<path d="M8.74853 24.37L7.90852 24.17C6.89852 23.58 6.63853 22.48 7.20853 21.45C7.47853 20.96 8.54853 20.67 9.03853 20.94C9.12853 20.77 9.10852 20.5501 9.15852 20.4101C9.37852 19.7701 9.77854 18.98 10.2985 18.54C10.0885 17.63 10.5285 16.5801 11.1385 15.9101C11.3285 15.7001 11.6985 15.34 11.9985 15.43C12.3185 15.77 11.8885 15.92 11.6885 16.13C11.1185 16.77 10.7685 17.72 10.8685 18.6C10.8985 18.89 11.2985 19.14 10.9885 19.34C10.6785 19.54 10.5185 19.08 10.4185 19.1C10.3185 19.21 10.2385 19.35 10.1785 19.49C9.07853 21.77 9.31853 24.89 11.8485 26.04C13.7685 26.91 15.6585 26.52 17.3285 25.3C17.6885 25.04 17.9885 24.69 18.2985 24.39C18.3385 24.35 18.4285 24.37 18.4785 24.3C18.7285 24 19.0185 23.17 19.0785 22.79C19.3285 21.2 18.3685 19.4 17.2285 18.34C17.0685 18.19 16.7885 18.0501 16.6585 17.9101C16.5985 17.8401 16.5885 17.7 16.5085 17.67C16.3285 17.61 15.8885 17.89 15.7685 18.04C15.5685 18.3 15.4285 18.9201 14.9985 18.7201C14.9485 18.1501 15.2685 17.5 15.7685 17.21C16.6685 16.68 17.4185 17.21 18.3085 16.8C18.3985 16.76 18.8285 16.45 18.8885 16.39C19.0685 16.18 19.2385 15.38 19.5585 15.36C19.8985 15.39 19.8585 15.72 19.7985 15.98C19.7385 16.22 19.3885 16.96 19.2285 17.14C18.8585 17.54 17.8085 17.8001 17.2685 17.7201C17.6585 18.0601 18.0485 18.39 18.4085 18.78C18.9285 18.3 19.7185 18.2 20.2485 18.73L20.9485 17.89L21.7285 17.38L21.1785 16.5C21.0485 15.59 20.9985 14.97 21.4285 14.15C21.4685 14.07 21.4685 13.94 21.4985 13.9C21.4985 13.9 21.6085 13.95 21.6385 13.87L21.5385 13.8C21.7685 13.77 21.7385 13.4901 21.9485 13.4101L21.9685 13.35C21.9385 13.13 21.7185 13.03 21.6385 12.9C21.4485 12.61 21.2285 11.85 21.1985 11.5C21.1285 10.52 21.5785 9.50003 22.1085 8.70003C21.5885 8.39003 21.0685 8.09003 20.6585 7.64003L19.8785 7.71004C19.8785 7.79004 19.8785 7.88004 19.8685 7.96004C19.2785 10.33 17.3485 12.37 14.8285 12.45C13.4385 12.49 11.6285 12.02 10.6185 11.09C9.09853 9.71005 8.28852 5.86999 9.62852 4.09999C11.3585 1.81999 14.9385 0.670009 17.3985 2.49001C18.2885 3.15001 19.1285 4.01001 19.5585 5.05001C19.6185 5.19001 19.6485 5.86004 19.8185 5.90004L20.3685 5.84999C20.4085 5.74999 20.4085 5.64 20.4685 5.54C20.5085 5.48 20.7285 5.19002 20.7785 5.13002C21.1485 4.71002 21.4785 4.55005 22.0085 4.84005C22.0285 4.53005 22.1385 3.96002 22.2885 3.69002C22.2985 3.67002 22.6085 3.36005 22.6285 3.34005C24.0085 2.26005 26.6785 2.64004 27.0385 4.58004L26.9985 5.39003C27.0385 5.51003 27.4285 5.5 27.4985 5.42C27.5085 5.41 27.5185 5.14003 27.5385 5.07003C27.9685 3.43003 29.8785 1.72004 31.4785 1.27004C32.4585 1.00004 34.4085 1.36999 35.3285 1.84999C37.4485 2.93999 38.6485 5.36002 38.1485 7.75002C37.9385 8.77002 37.5085 9.63001 36.8585 10.43C36.0885 11.36 34.3185 12.12 33.1085 12.29C31.0585 12.57 28.7585 10.87 27.8685 9.12001C27.5985 8.59001 27.5085 8.05005 27.4185 7.47005C27.3085 7.40005 26.8785 7.50003 26.8085 7.57003C26.7785 7.60003 26.6585 8.18004 26.5785 8.33004C26.4285 8.60004 26.1885 8.70004 25.9785 8.90004C26.2785 9.31004 26.7085 9.72002 26.9085 10.19C26.9485 10.29 27.0785 10.68 27.0885 10.78C27.1185 10.95 27.0085 12.15 26.9685 12.31C26.9385 12.42 26.7485 12.5901 26.7585 12.6601C26.8885 12.7601 27.0185 12.91 27.1385 13C27.2585 13.09 27.3585 13.06 27.4885 13.23C27.8585 13.73 28.2085 14.65 28.2485 15.27C28.3085 16.15 27.9485 16.9 27.3885 17.55C27.3785 17.67 27.7585 18.0801 27.8185 18.2201C27.9485 18.5001 28.0485 19.12 28.0385 19.42C28.0385 19.65 27.5485 20.86 27.3985 21.05C27.2285 21.27 26.5385 21.7901 26.2885 21.9701C26.2385 22.0101 26.1785 22.02 26.1185 22.02C26.1185 22.13 26.1985 22.23 26.2085 22.34C26.3685 23.41 26.4685 24.75 26.3585 25.82C26.2985 26.41 26.1485 26.99 25.9485 27.54C25.6985 28.25 25.1485 29.24 24.5685 29.74C24.3085 29.96 23.8685 30.18 23.6285 30.39C23.4585 30.54 23.3385 30.7901 23.1285 30.9101C23.2585 31.2201 23.3485 31.54 23.4085 31.88C23.4685 32.19 23.5185 32.72 23.5085 33.04C23.5085 33.16 23.4185 33.26 23.4185 33.34C23.4185 33.41 23.4985 33.46 23.5085 33.53C23.5885 34.56 22.9085 36.04 22.6185 37.03C22.5185 37.37 22.4085 37.67 22.5785 37.99C22.8085 38.44 23.2185 38.89 23.4585 39.38C23.8085 40.09 24.1885 40.98 24.4285 41.71C24.6985 42.53 24.5585 43.66 24.4285 44.5C24.3885 44.76 24.3685 45.02 24.2885 45.28C24.8785 45.89 25.2385 46.55 25.4285 47.38C25.6685 48.42 25.3985 49.16 25.4085 50.17C25.4085 50.49 25.4985 50.79 25.5285 51.11C25.5585 51.49 25.5185 51.86 25.5685 52.25C25.6185 52.41 26.3285 52.27 26.5085 52.28C27.1785 52.3 28.5885 52.6 29.1285 52.95C29.6685 53.3 30.0285 53.64 29.9485 54.33C29.8785 54.91 29.6785 55.16 29.1385 55.36C28.1685 55.71 26.4485 55.42 25.3885 55.38C24.5785 55.35 23.1285 55.48 22.4185 55.2C22.0685 55.06 22.1685 54.95 22.1185 54.69C22.1185 54.66 22.0385 54.66 22.0185 54.59C21.5885 53.37 21.1885 52.19 20.7785 50.99C20.7385 50.88 20.6685 50.7701 20.6185 50.6601L20.7185 50.61C20.5985 50.48 20.4785 50.31 20.3885 50.17C19.8385 49.28 19.6785 48.19 19.6285 47.11L19.0985 46.57C18.8285 46.15 18.5285 45.73 18.2085 45.35C18.0585 44.64 17.7285 43.97 17.6585 43.23C17.2785 43.29 16.8985 43.26 16.5185 43.19C16.3985 43.21 16.4585 44 16.4485 44.12C16.4385 44.29 16.3885 44.69 16.3585 44.84C16.1885 45.51 15.5485 46.67 15.1185 47.23C14.9985 47.38 14.8285 47.49 14.7185 47.65C14.8685 48.69 14.8185 49.7201 14.3385 50.6601C13.6185 52.0801 13.1285 53.7201 12.6085 55.2201C12.5685 55.3501 12.5285 55.4 12.3985 55.44C11.5985 55.67 10.6185 55.49 9.79854 55.51C8.44854 55.53 6.89853 55.71 5.53853 55.51C5.02853 55.43 4.92854 54.91 4.93854 54.48C4.95854 53.87 5.06853 53.41 5.53853 53C6.38853 52.26 7.56853 52.32 8.60853 52.56L8.99853 50.03C8.61853 48.45 9.10853 47.2 10.0885 46.03C10.1485 45.96 10.2885 45.92 10.3085 45.86C10.3085 45.61 10.1585 45.4 10.0885 45.18C10.0485 45.03 9.89853 44.62 9.88853 44.51C9.79853 43.88 9.88853 43.01 10.0085 42.4C10.1485 41.69 10.3885 41.0601 10.6985 40.4101C10.6585 40.2401 10.0285 40.02 9.95853 39.8C9.61853 40.13 9.00853 40.41 8.53853 40.5C8.45853 40.51 7.43853 40.4401 7.31853 40.4101C6.71853 40.2801 5.90853 39.65 5.66853 39.08C5.31853 39.19 4.66853 39.17 4.31853 39.06C3.92853 38.94 3.23853 38.44 2.99853 38.11C2.44853 37.36 2.10853 36.16 2.47853 35.28C2.47853 35.24 2.33853 35.19 2.28853 35.14C1.55853 34.3 1.17853 33.17 1.42853 32.06C1.45853 31.94 1.93852 30.92 2.01852 30.81C2.15852 30.62 2.56853 30.32 2.74853 30.13C2.81853 29.81 2.72853 29.46 2.77853 29.14C2.86853 28.46 3.56853 26.73 4.05853 26.26C4.19853 26.12 4.58852 25.96 4.76852 25.82C4.96852 25.67 5.14853 25.45 5.41853 25.3C5.80853 25.07 7.38853 24.42 7.77853 24.42H8.76852L8.74853 24.37ZM29.3785 5.52004C29.8785 6.08004 30.4285 5.93003 30.9885 5.57003C31.5885 5.18003 31.9385 4.46004 32.0385 3.77004C32.0785 3.47004 32.0685 3.20004 31.8585 2.96004C31.2785 2.27004 30.0785 3.01004 29.6085 3.52004C29.1085 4.06004 28.8085 4.91004 29.3685 5.52004H29.3785ZM25.7885 5.97005C26.0185 6.11005 26.3485 5.66005 26.4085 5.47005C26.5085 5.13005 26.3685 4.19001 26.1185 3.93001C25.7885 3.60001 24.9085 3.30001 24.4485 3.30001C23.3485 3.31001 22.4185 3.97 22.6485 5.17C22.7285 5.58 23.1785 6.09 23.4185 5.48C23.4985 5.27 23.4185 5.14004 23.4285 4.96004C23.4385 4.80004 23.6085 4.18001 23.7485 4.12001C24.3885 3.83001 23.9285 5.18001 23.9585 5.37001C23.9785 5.49001 24.2585 6.00005 24.4285 5.91005C24.5185 5.86005 24.7385 5.47 24.7585 5.36C24.8185 5.08 24.5985 4.07005 25.1285 4.09005C25.4785 4.10005 25.3085 4.84001 25.3585 5.12001C25.3785 5.24001 25.5085 5.64 25.5785 5.73C25.5885 5.75 25.7885 5.95004 25.8085 5.96004L25.7885 5.97005ZM10.7585 4.22005C10.2885 4.70005 9.83853 5.35002 9.86853 6.06002C9.88853 6.46002 10.2285 7.06002 10.6685 7.06002C10.7485 7.06002 11.2085 6.84 11.2685 6.79C11.6185 6.53 12.2285 5.54001 12.3585 5.12001C12.5185 4.59001 12.4185 3.62001 11.6985 3.68001C11.2885 3.71001 11.0285 3.95005 10.7585 4.22005ZM26.1885 7.48C25.7085 7.48 25.2385 7.48 24.7585 7.48C24.8585 7.73 24.7985 8.54 24.4085 8.29C24.2585 8.2 24.2985 7.88004 24.2185 7.71004C24.1985 7.67004 24.0185 7.4 23.9885 7.36C23.9085 7.26 23.4085 7.00001 23.2885 6.99001C22.8885 6.96001 22.6185 7.31 22.2385 7.23C21.8185 7.14 21.9985 6.46002 21.9385 6.13002C21.9185 6.03002 21.7285 5.37999 21.6885 5.34999C21.3985 5.13999 21.1185 5.61999 21.0285 5.84999C20.8785 6.21999 20.8885 6.68001 21.0685 7.05001C21.3285 7.58001 22.5185 8.33005 23.0985 8.41005C23.2785 8.44005 23.7185 8.33001 23.6985 8.62001C23.6785 9.07001 22.8785 8.98003 22.5885 8.89003C21.9085 10.22 21.4885 11.55 22.3385 12.92C22.3685 12.97 22.4685 12.99 22.5285 13.08C22.5785 13.16 22.6885 13.37 22.6785 13.46C22.6685 13.68 22.4985 13.65 22.3985 13.76C21.9285 14.28 21.6785 15.25 21.7385 15.92C21.7585 16.16 21.8685 16.56 21.9885 16.77C22.0785 16.94 22.4285 17.23 22.3985 17.42C22.3585 17.72 20.8485 18.69 20.6585 19.07C21.0685 19.58 21.2685 20.03 21.1285 20.7C21.0385 21.11 20.5485 21.68 20.1585 21.86C20.0285 21.92 19.8385 21.96 19.6885 22C19.7885 22.47 19.5585 22.99 19.5585 23.43C19.5585 23.89 19.8985 24.24 20.0885 24.61C20.7385 25.83 21.5085 27.04 22.4385 28.06C22.5985 28.23 22.9685 28.47 23.1585 28.64C23.2785 28.75 23.6985 29.29 23.8185 29.29C23.8685 29.29 23.9785 29.21 24.0185 29.18C25.2585 27.95 25.7185 26.18 25.7285 24.48C25.7285 24 25.7485 23.41 25.7285 22.93C25.7085 22.57 25.4685 21.79 25.6985 21.52C25.7585 21.45 25.9385 21.37 26.0185 21.29C26.1585 21.16 26.3485 20.99 26.4685 20.88C26.8885 20.46 27.3585 19.6 27.2485 18.99C27.2485 18.95 27.0285 18.37 26.9985 18.28C26.8985 18.03 26.6785 17.82 26.6985 17.52C26.7185 17.26 27.1185 16.82 27.2485 16.56C27.6785 15.66 27.5685 14.42 26.8785 13.67C26.6885 13.46 26.1885 13.15 26.1385 12.86C26.0785 12.55 26.3785 11.68 26.3985 11.3C26.4185 10.88 25.9785 9.89002 25.7185 9.56002C25.6085 9.42002 25.0285 8.96 25.0185 8.86C25.0185 8.61 25.3185 8.63001 25.4785 8.55001C25.7185 8.43001 26.1185 8.04001 26.2285 7.80001C26.2385 7.77001 26.3185 7.52003 26.3185 7.51003C26.3185 7.39003 26.2085 7.49001 26.1985 7.49001L26.1885 7.48ZM22.5385 6.46004C22.7485 6.55004 22.9385 6.37001 23.0885 6.37001C23.1585 6.37001 23.5785 6.42001 23.6585 6.43001C23.9685 6.50001 24.3485 6.76001 24.4985 7.05001C24.5485 7.05001 24.6185 6.97004 24.6885 6.96004C25.0085 6.91004 25.6685 6.87001 25.9985 6.87001C26.1085 6.87001 26.1985 6.94002 26.2785 6.94002C26.7885 6.94002 27.9585 7.05002 27.9485 6.31002C27.9485 6.08002 27.5885 5.90004 27.3985 5.90004C27.3485 5.90004 26.8185 6.00004 26.7885 6.02004C26.6185 6.12004 26.5585 6.47002 26.1685 6.56002C25.5985 6.69002 25.4385 6.37 25.0685 6.04H24.9985C24.6285 6.68 23.9885 6.53001 23.6185 5.99001C23.2985 6.50001 22.8585 6.29001 22.4785 5.99001L22.5285 6.47005L22.5385 6.46004ZM20.4085 7.15004L20.2685 6.34999C20.0185 6.38999 19.7785 6.19002 19.5585 6.38002C19.2885 6.61002 19.2485 6.99001 19.5885 7.18001C19.8385 7.31001 20.1385 7.11005 20.4085 7.16005V7.15004ZM29.5785 7.02004C28.8285 6.56004 28.4085 7.86 29.3285 7.73C29.6585 7.68 29.9085 7.22004 29.5785 7.02004ZM10.3085 8.58004C10.5785 8.91004 11.3985 8.46 11.0885 7.92C10.7185 7.27 9.99853 8.20004 10.3085 8.58004ZM20.0085 21.31C20.0085 21.31 20.3685 20.87 20.3885 20.84C20.3985 20.81 20.5385 20.4 20.5485 20.37C20.6085 20.04 20.2585 19.46 20.0085 19.24C19.6385 18.92 19.1985 18.81 18.7785 19.12C18.7085 19.17 18.7585 19.24 18.7885 19.3C18.8785 19.48 19.0385 19.69 19.1285 19.88C19.3885 20.39 19.6285 20.8901 19.6385 21.4701C19.6485 21.4801 19.9985 21.32 20.0085 21.31ZM9.08853 23.64C9.05853 23.32 8.92853 23.02 8.89853 22.7C8.85853 22.25 8.93853 21.81 8.91853 21.37C8.80853 21.21 7.97854 21.48 7.82854 21.59C7.67854 21.7 7.50852 22.17 7.48852 22.37C7.38852 23.23 8.24854 23.94 9.07854 23.64H9.08853ZM19.2985 24.27C19.2285 24.19 19.0085 24.57 18.9985 24.62C18.9185 24.86 19.2385 25.2001 19.3485 25.4101C19.9685 26.6101 20.6785 27.48 21.4785 28.55C21.7385 28.9 22.1185 29.54 22.4285 29.83C22.7685 30.15 23.0685 30.12 23.2685 29.69C22.9685 29.49 22.6585 29.2 22.3985 28.94C21.2485 27.8 20.2885 26.43 19.5785 24.93C19.4785 24.71 19.2485 24.54 19.2985 24.26V24.27ZM9.98852 25.35C9.07852 25.04 8.15852 25.05 7.23852 25.3C6.21852 25.58 4.68853 26.49 4.13853 27.37C3.93853 27.7 3.68854 28.27 3.57854 28.65C3.50854 28.86 3.30853 29.5501 3.30853 29.7201C3.30853 29.8901 3.46853 30.12 3.36853 30.32C3.30853 30.44 3.16853 30.39 3.10853 30.43C3.07853 30.45 3.07854 30.54 3.04854 30.58C2.19854 31.6 1.64853 32.9601 2.41853 34.2201C2.61853 34.5501 3.44852 35.19 3.51852 35.44C3.62852 35.83 3.22853 35.85 2.99853 35.65C2.99853 36.1 2.99852 36.49 3.15852 36.92C3.54852 37.99 4.82853 38.73 5.95853 38.4C6.19853 38.33 6.39852 38.08 6.65852 38.21C7.06852 38.4 6.46852 38.84 6.23852 38.88C6.77852 39.62 7.88852 39.87 8.76852 39.67C9.06852 39.6 9.75854 39.12 9.93854 39.15C10.0285 39.16 10.3885 39.47 10.5185 39.54C11.0585 39.83 11.6885 39.99 12.2285 40.25C12.6185 40.43 13.0885 40.81 13.5285 40.89C13.7285 40.93 13.9385 40.89 14.1385 40.95L14.1985 40.85C14.1785 40.74 13.8285 40.34 13.7285 40.3C13.6485 40.26 13.5385 40.28 13.4485 40.24C13.3485 40.2 13.2985 40.08 13.2085 40.05C13.0285 39.99 12.6085 39.95 12.4685 39.82C12.3285 39.69 12.2985 39.49 12.4185 39.34C12.6085 39.12 13.0685 39.3 13.3185 39.31C13.6385 39.32 14.2285 39.34 14.5285 39.31C14.7485 39.29 14.9585 39.15 15.1785 39.14C14.9085 38.92 14.3285 38.83 13.9985 38.84C13.6685 38.85 12.1485 39.3 12.3985 38.54C12.4485 38.39 12.6485 38.32 12.7885 38.3C13.1985 38.22 13.6985 38.25 14.0885 38.2C14.2385 38.18 15.5485 38.03 15.0985 37.68C14.8085 37.46 14.2885 37.46 13.9385 37.48C13.5085 37.5 12.8985 37.71 12.5285 37.7C12.1985 37.7 12.1085 37.3301 12.3685 37.1601C12.4485 37.1101 13.1485 36.91 13.2685 36.89C13.4685 36.86 14.8885 36.8801 14.8885 36.7201C14.5485 36.5201 14.1285 36.36 13.7285 36.33C13.3285 36.3 12.8285 36.41 12.4385 36.4C12.3385 36.4 12.2285 36.33 12.1285 36.3C12.0085 35.91 12.3985 35.96 12.5985 35.74C12.6485 35.68 12.9985 35.1 13.0385 35.02C13.0785 34.94 13.1085 34.86 13.0885 34.76C13.0485 34.72 12.7485 34.89 12.6985 34.92C12.4085 35.11 12.2085 35.3801 12.0385 35.6601C11.8485 35.9701 11.6685 36.61 11.2285 36.64C10.8885 36.66 10.8985 36.46 10.6985 36.3C9.75853 35.56 8.84852 35.39 7.65852 35.49C7.26852 35.52 6.55853 35.9 6.66853 35.19C7.00853 34.98 7.41853 34.88 7.81853 34.84C7.71853 34.45 7.93854 34.0701 7.96854 33.6601C8.03854 32.3901 7.36853 31.52 6.30853 30.96C6.16853 30.88 5.81853 30.87 5.74853 30.65C5.70853 30.52 5.77853 30.35 5.91853 30.31C6.12853 30.25 6.89853 30.54 7.10853 30.65C7.17853 30.69 7.17853 30.76 7.22853 30.79C7.28853 30.82 7.59853 30.93 7.61853 30.95C7.66853 30.99 8.36853 31.88 8.39853 31.94C8.53853 32.22 8.42853 32.43 8.80853 32.58C8.85853 32.6 8.83852 32.66 8.90852 32.58C8.93852 32.54 9.15853 32.09 9.19853 32C9.90853 30.46 10.7585 28 10.5785 26.32C10.5785 26.26 10.6185 26.19 10.6185 26.13L9.98852 25.39V25.35ZM13.2985 34.04C13.3685 34.13 13.4885 34.15 13.5885 34.26C13.9985 34.7 13.6185 35.23 13.3485 35.64C13.9085 35.63 14.4485 35.69 14.9585 35.95C15.1585 36.05 15.2685 36.18 15.4585 36.27C17.7085 36.26 20.0185 35.7901 22.1885 35.2201C22.3085 35.1901 22.5385 35.24 22.6085 35.11C22.6585 35.04 22.7485 34.36 22.7685 34.21C22.8585 33.57 22.8885 32.56 22.8185 32C22.6885 30.85 22.0585 30.32 21.3885 29.46C20.7785 28.67 20.0185 27.7501 19.4885 26.9101C19.1685 26.4001 18.9485 25.85 18.6385 25.34C18.6285 25.56 18.8385 25.79 18.8885 26.01C18.9485 26.24 18.9885 26.62 18.9985 26.87C19.0885 28.33 18.7885 31.06 17.1185 31.53C16.3085 31.76 15.4585 31.55 14.7385 31.12C13.6985 30.51 12.7285 28.94 12.4285 27.81C12.3985 27.68 12.2885 26.92 12.2585 26.89H12.0185C12.0585 27.11 12.1085 27.41 12.1185 27.64C12.1885 29.28 11.6985 30.59 10.9985 32.03C10.7885 32.47 10.5585 32.91 10.3285 33.34C10.5185 33.54 11.4785 33.69 11.5585 33.85L11.6285 35.1601C11.7485 35.1901 11.7085 35.14 11.7385 35.1C12.0185 34.69 12.4185 34.21 12.9385 34.07C13.0685 34.04 13.1785 34.07 13.2785 34.05C13.1985 33.95 13.1485 33.81 13.1385 33.68C13.1085 33.37 13.1485 32.43 13.2385 32.14C13.4885 31.3 15.6285 31.68 14.6885 32.67C15.4985 33.21 14.7185 33.86 14.0385 33.95C13.7585 33.99 13.5785 33.99 13.2885 34.05L13.2985 34.04ZM17.7785 30.11C18.3485 29.17 18.5385 27.24 18.3785 26.14C18.3685 26.05 18.1585 25.49 18.1185 25.48C17.9585 25.62 17.7585 25.69 17.6685 25.9C17.7185 26.03 17.7985 26.11 17.8385 26.24C18.0985 27.07 17.9985 28.97 17.3485 29.62C16.8385 30.13 16.3185 30.09 15.6785 29.84C14.9085 29.55 14.5285 28.89 13.9785 28.34C13.8285 28.14 13.5185 27.23 13.3785 27.12C13.3085 27.07 12.9185 27 12.8585 27.06C12.9885 27.45 13.1085 27.89 13.2685 28.27C13.7685 29.43 14.5585 30.33 15.7085 30.81C16.5085 31.15 17.3485 30.78 17.7685 30.09L17.7785 30.11ZM11.6085 26.65L11.1785 26.45C11.0785 26.7 11.1785 26.98 11.1785 27.19C11.1085 28.66 10.4185 30.83 9.73852 32.14C9.61852 32.37 9.45854 32.64 9.29854 32.86L9.67853 32.9701C9.80853 32.6801 10.1285 32.4 10.2885 32.15C10.8485 31.24 11.4085 29.46 11.5185 28.4C11.5785 27.83 11.4985 27.21 11.6185 26.64L11.6085 26.65ZM15.1185 28.69C15.1185 28.69 15.1785 28.79 15.2385 28.84C15.5485 29.11 16.2985 29.58 16.7085 29.35C17.1585 29.09 17.3985 27.72 17.4185 27.23L16.9885 27.84C16.3385 28.35 15.5585 28.65 14.7585 28.3C14.8585 28.46 14.9985 28.58 15.1285 28.7L15.1185 28.69ZM13.7285 32.59C14.0085 32.5 14.3585 32.56 14.4985 32.23C14.0985 31.97 13.6185 32 13.7285 32.59ZM14.5985 33.08C14.4285 33.05 14.2685 32.97 14.0885 32.98C14.0285 32.98 13.7185 33.08 13.6785 33.11C13.6085 33.16 13.6085 33.46 13.6485 33.52C13.7485 33.67 14.6885 33.45 14.5985 33.08ZM11.0285 34.19C10.6085 34.07 10.1485 33.97 9.74853 33.8C9.62853 33.75 8.80853 33.25 8.75853 33.31C8.72853 33.78 8.67854 34.29 8.46854 34.71C8.55854 34.71 8.63853 34.66 8.72853 34.67C9.34853 34.69 10.4185 35.15 10.9385 35.51C11.0385 35.58 10.9985 35.71 11.1285 35.68C11.0385 35.2 10.8985 34.66 11.0285 34.18V34.19ZM22.4885 35.69C21.9885 35.77 21.4985 35.98 20.9885 36.1C19.6385 36.44 17.2685 36.9 15.9285 36.85C15.8085 36.85 15.6885 36.79 15.5685 36.8L15.4685 37.2L15.6985 37.48C16.1985 37.36 16.7285 37.39 17.2385 37.33C18.7185 37.16 20.1885 36.87 21.6385 36.6C21.8485 36.56 22.2185 36.5 22.3085 36.3C22.3785 36.15 22.4085 35.85 22.4885 35.68V35.69ZM23.0085 40.35C22.8785 40.21 22.7785 40.3901 22.6885 40.4101C22.0285 40.5901 21.7585 40.72 21.1685 41.07C20.4785 41.48 19.5485 42.07 18.9785 42.61C18.8985 42.69 18.3785 43.27 18.3785 43.31C18.3685 43.45 18.5285 43.62 18.5585 43.75C18.7085 44.34 18.8285 44.86 19.1785 45.4C19.3785 45.71 19.6785 45.99 19.9085 46.25C19.9685 46.31 20.3185 46.76 20.3285 46.81C20.3485 46.88 20.2985 46.95 20.3185 47.02C20.3385 47.12 20.4385 47.2 20.4485 47.29C20.4685 47.43 20.3685 47.7401 20.3885 47.9101C20.4285 48.3801 20.6485 49.11 20.8385 49.56C20.9685 49.87 21.2485 50.24 21.4085 50.55C21.7285 50.47 22.0885 50.46 22.4085 50.4C23.0385 50.28 23.6685 50.19 24.2985 50.07C24.3885 50.05 24.4885 50.07 24.5785 50.07C24.7085 50.04 24.7585 49.08 24.6585 48.93L24.7485 48.89C24.7185 48.09 24.6785 47.2101 24.2585 46.4701C24.1185 46.2301 23.9085 46.14 23.7585 45.95C23.6985 45.87 23.4685 45.47 23.4485 45.38C23.4085 45.2 23.5385 45.07 23.5585 44.96C23.6685 44.3 23.6585 43.57 23.7785 42.92C23.8585 42.47 23.5885 41.86 23.4585 41.46C23.3585 41.15 23.2985 40.83 23.1485 40.53L23.0485 40.58C23.0485 40.51 23.0385 40.4 22.9885 40.35H23.0085ZM15.3985 42.54C15.1185 42.23 14.6085 41.82 14.2285 41.65C13.7985 41.46 13.4485 41.55 13.0085 41.42L11.3685 40.62C11.2885 41.15 10.9785 41.59 10.8485 42.11C10.7285 42.59 10.5885 43.7301 10.6385 44.2201C10.6885 44.7101 11.0885 45.67 10.8485 46.12C10.7885 46.24 10.6585 46.34 10.5785 46.48C10.1485 47.2 9.59854 48.14 9.54854 48.98C9.54854 49.06 9.60853 49.13 9.60853 49.21C9.60853 49.34 9.53853 49.9 9.58853 49.96L13.5485 50.52C13.6185 50.32 13.7785 50.25 13.8585 50.06C14.1685 49.27 14.1585 47.69 14.0185 46.86C13.9885 46.66 13.8985 46.51 13.8885 46.32C14.0885 46.14 14.2685 46.13 14.4185 46.37C14.4585 46.43 14.5185 46.76 14.6185 46.68C14.7185 46.3 14.9885 46.04 15.1585 45.7C15.5585 44.9 15.6685 44.3 15.6785 43.42C15.6785 43.29 15.7485 43.17 15.7285 43.04C15.7085 42.89 15.5085 42.67 15.4085 42.56L15.3985 42.54ZM29.3085 53.98C28.2585 53.98 27.1985 53.9101 26.1485 53.9101C25.3085 53.9101 24.4585 54.01 23.6285 54.03C23.2985 54.03 22.9385 53.93 22.6085 53.98C22.5385 53.98 22.5285 53.95 22.5385 54.05L22.6785 54.54C22.8785 54.52 23.0685 54.6301 23.2385 54.6601C23.8585 54.7501 24.5285 54.59 25.1185 54.65C25.9385 54.72 26.7685 54.76 27.5885 54.76C27.8685 54.76 28.2485 54.81 28.4985 54.79C28.5885 54.79 29.0585 54.64 29.1185 54.59C29.2785 54.47 29.3385 54.17 29.3085 53.98ZM12.1285 54.83L12.3785 54.38C12.1585 54.17 11.8385 54.3 11.5985 54.29C9.74853 54.24 7.77853 54.22 5.92853 54.31C5.83853 54.31 5.74852 54.28 5.65852 54.28L5.56853 54.33L5.62852 54.82C5.92852 54.8 6.21852 54.8901 6.51852 54.9101C7.52852 54.9801 8.59853 54.83 9.60853 54.82C10.3585 54.82 11.1485 54.93 11.8785 54.87C11.9385 54.87 12.0885 54.85 12.1285 54.81V54.83Z" fill="#1A1A1A"/>
<path d="M15.7785 22.52C15.8885 22.64 16.0685 22.54 16.1785 22.54C16.5085 22.56 16.8585 22.65 17.1985 22.68C17.5785 22.71 17.9685 22.68 18.3485 22.74C18.6085 22.95 18.3885 23.02 18.2885 23.14C17.6585 23.88 16.3985 24.04 15.4785 23.78C15.2885 23.72 15.1885 23.6 14.9985 23.61C14.6485 23.63 14.7585 23.79 14.6285 24.02C14.1785 24.82 13.2585 25.34 12.3185 25.3C11.9785 25.28 11.8785 25.15 11.5685 25.05L11.6385 24.81L12.6785 24.21C12.8385 24.09 13.7585 23.26 13.7785 23.14C13.7885 23.08 13.7285 22.99 13.7385 22.91C13.8285 22.01 14.8785 21.35 15.5585 22.11C15.6685 22.23 15.7285 22.47 15.7885 22.53L15.7785 22.52ZM14.7885 22.2C14.0985 22.24 13.9385 23.32 14.7585 23.19C15.5285 23.08 15.3885 22.16 14.7885 22.2Z" fill="#1A1A1A"/>
<path d="M29.5685 30.98C29.8885 31.43 30.1785 31.82 30.0085 32.41C29.8885 32.82 29.4385 33.1 29.0185 33.1C28.8785 33.1 28.5085 32.94 28.3885 32.86C27.9485 32.58 27.6485 31.12 27.4385 30.61C27.3785 30.46 27.2585 30.2 27.1785 30.05C27.0685 29.82 26.5085 29.38 26.9785 29.23C27.1585 29.18 27.1885 29.34 27.3285 29.41C27.4685 29.48 27.6585 29.5 27.7985 29.57C28.5385 29.92 29.0785 30.31 29.5585 30.98H29.5685ZM28.4185 30.53L27.8585 30.13C28.0585 30.56 28.2385 30.99 28.4085 31.43C28.4285 31.47 28.3885 31.54 28.4085 31.62C28.4585 31.76 28.6485 32.14 28.7485 32.25C28.8785 32.41 28.9485 32.48 29.1585 32.42C29.5685 32.31 29.4185 31.93 29.3085 31.64C29.1685 31.29 28.6985 30.78 28.4185 30.52V30.53Z" fill="#1A1A1A"/>
<path d="M31.6585 26.27C31.7185 26.34 32.0485 26.77 32.0785 26.84C32.2185 27.12 32.2485 27.6401 32.1085 27.9101C32.0985 27.9401 31.6585 28.23 31.6085 28.25C31.5185 28.27 31.0385 28.2 30.9485 28.17C30.8385 28.14 30.4685 27.79 30.3685 27.68C29.8585 27.13 29.6185 26.3 29.0885 25.77C28.9185 25.6 28.6885 25.63 28.7985 25.33C28.9285 24.96 29.9785 25.21 30.2685 25.32C30.6285 25.46 31.3985 25.99 31.6585 26.27ZM30.9185 26.43C30.9185 26.43 30.8585 26.33 30.7985 26.28C30.6185 26.13 30.2085 25.86 29.9785 25.89C30.2585 26.29 30.5185 26.69 30.7285 27.13C30.9985 27.34 31.1685 27.69 31.5685 27.56C31.5685 27.45 31.5985 27.29 31.5685 27.19C31.4985 27.02 31.0785 26.58 30.9185 26.44V26.43Z" fill="#1A1A1A"/>
<path d="M7.84852 15.79C8.08852 16.02 8.44853 16.46 8.58853 16.76C8.83853 17.3 8.04852 16.93 7.78852 16.88C7.25852 16.86 6.63853 16.8101 6.10853 16.7201C5.61853 16.6401 4.93853 16.52 4.74853 16C4.58853 15.58 4.86853 15.08 5.29853 14.95C6.23853 14.67 7.17853 15.16 7.83853 15.79H7.84852ZM7.37852 15.9701C6.87852 15.5901 5.62853 15 5.22853 15.74C5.24853 15.99 5.52852 16.01 5.70852 16.06C6.23852 16.21 6.64853 16.19 7.16853 16.24C7.34853 16.26 7.54853 16.39 7.72853 16.31C7.61853 16.21 7.48853 16.0501 7.36853 15.9701H7.37852Z" fill="#1A1A1A"/>
<path d="M16.3785 19.94C16.6485 20.27 16.9285 20.91 16.7085 21.32C16.2785 22.12 15.2185 21.59 14.7285 21.13C14.5285 20.95 14.0885 20.51 14.2685 20.23C14.4985 19.93 14.9585 20.66 15.1285 20.79C15.2485 20.88 15.6485 21.11 15.7985 21.13C15.8485 21.13 16.1485 21.12 16.1585 21.1C16.3085 20.96 16.1285 20.42 16.0485 20.24C15.9785 20.1 15.6285 19.79 15.9185 19.65C16.0885 19.56 16.2785 19.81 16.3885 19.94H16.3785Z" fill="#1A1A1A"/>
<path d="M13.7685 22.22C13.7685 22.22 13.4985 22.38 13.4785 22.39C13.2385 22.48 12.8685 22.45 12.6385 22.36C12.3685 22.25 11.8385 21.74 11.7385 21.47C11.6385 21.2 11.6385 20.94 11.9985 20.99C12.0285 21.06 12.0485 21.15 12.0885 21.21C12.2785 21.49 12.6385 21.89 12.9985 21.9C13.5085 21.92 13.6985 21.45 13.6485 21.01C13.6285 20.86 13.3585 20.33 13.5885 20.26C13.7785 20.2 13.9685 20.43 14.0285 20.59C14.2085 21.03 14.1685 21.9 13.7885 22.23L13.7685 22.22Z" fill="#1A1A1A"/>
<path d="M23.7485 24.13C23.8385 24.15 23.9385 24.18 24.0185 24.22C24.2385 24.32 25.0785 24.68 25.0485 24.93C25.0085 25.35 24.1785 24.82 23.9785 24.74C23.9085 24.71 23.4685 24.54 23.4485 24.57C23.4585 25.07 23.6385 25.55 23.6885 26.05C23.7085 26.33 23.7985 27.28 23.3785 27.28C23.0885 27.2 23.2585 26.82 23.2385 26.59C23.1685 25.6 22.8385 24.63 22.5385 23.71L21.9085 22.65C22.1585 22.35 22.6585 22.8599 22.8085 23.0999C22.9885 23.3799 23.0685 23.7 23.2285 23.99C23.3485 23.99 23.6385 23.1799 23.6785 23.0399C23.7085 22.9399 23.6885 22.37 23.9785 22.52C24.3585 22.72 23.8785 23.86 23.7385 24.14L23.7485 24.13Z" fill="#1A1A1A"/>
<path d="M24.6085 17.95C24.6085 17.95 24.6985 18.1 24.7085 18.12C24.7485 18.35 24.4685 18.47 24.3685 18.63C24.2485 18.83 24.0385 19.75 24.0385 20C24.0385 20.25 24.2985 20.98 23.8485 20.92C23.5285 20.88 23.4285 20.13 23.4285 19.86C23.4385 19.32 23.7585 18.14 24.3385 17.97C24.4185 17.95 24.5585 17.92 24.6185 17.96L24.6085 17.95Z" fill="#1A1A1A"/>
<path d="M7.70853 27.48C7.47853 27.61 6.99853 28.12 6.84853 28.34C6.73853 28.5 6.67853 28.88 6.55853 28.97C6.35853 29.12 6.13853 28.94 6.13853 28.7C6.14853 27.81 7.18853 26.86 8.02853 26.71C8.25853 26.67 8.89853 26.64 8.89853 26.95C8.89853 27.26 8.53853 27.16 8.39853 27.18C8.31853 27.19 7.79853 27.42 7.70853 27.47V27.48Z" fill="#1A1A1A"/>
<path d="M4.45853 34.46C4.01853 34.08 3.85854 33.36 3.85854 32.81C3.85854 32.57 3.92853 31.9 4.22853 31.88C4.56853 31.85 4.37853 32.56 4.38853 32.81C4.40853 33.27 4.57854 33.81 4.85854 34.18C4.94854 34.3 5.24853 34.38 5.09853 34.62C4.96853 34.83 4.58853 34.57 4.45853 34.46Z" fill="#1A1A1A"/>
<path d="M7.60854 37.7C7.48854 37.58 7.30854 37.32 7.43854 37.16C7.60854 36.94 7.85854 37.24 8.02854 37.31C8.30854 37.43 8.76853 37.57 9.06853 37.58C9.19853 37.58 9.42854 37.52 9.49854 37.54C9.70854 37.59 9.71854 37.86 9.52854 37.99C9.10854 38.27 7.96854 38.06 7.60854 37.71V37.7Z" fill="#1A1A1A"/>
<path d="M19.1885 31.9C19.0985 31.99 18.6585 32.15 18.5985 32.25L18.6285 32.44C18.7885 32.36 18.9685 32.37 19.1085 32.32C19.2485 32.27 19.5585 32.02 19.6685 32.25C19.8485 32.62 19.0285 32.77 18.8285 32.96C18.7885 33.08 19.2185 33.97 18.7585 33.84C18.4985 33.77 18.3385 32.86 18.2485 32.61C18.1985 32.49 18.0685 32.41 18.0785 32.25C17.8585 32.45 17.4685 32.46 17.2085 32.58C17.0585 32.65 17.1085 32.63 17.1385 32.78C17.3585 32.78 18.0485 32.53 18.0085 32.9C17.9785 33.06 17.7685 33.11 17.6285 33.15C17.4485 33.21 16.8485 33.21 17.2585 33.55C17.4285 33.69 17.8385 33.4 18.0585 33.43L18.1585 33.58C18.0185 34.05 17.2485 34.34 16.9185 33.89C16.7185 33.62 16.5985 32.93 16.6085 32.6C16.6185 32.21 17.6685 31.9 17.9485 32.03C18.0485 32.08 18.0185 32.18 18.0985 32.19C18.0985 31.87 18.8985 31.5 19.1285 31.57C19.2685 31.61 19.2985 31.79 19.1985 31.89L19.1885 31.9Z" fill="#1A1A1A"/>
<path d="M15.6285 33.23C15.6085 33.33 15.6485 33.52 15.7485 33.56C15.9285 33.62 16.8685 33.48 16.5385 33.93C16.3985 34.13 15.4685 34.15 15.2885 33.99C15.0285 33.75 15.1585 32.75 15.0785 32.38C15.0985 32.12 16.0485 32.04 16.2585 32.07C16.3285 32.07 16.5285 32.11 16.5585 32.16C16.7885 32.68 15.7085 32.37 15.6185 32.63C15.5185 32.92 15.8085 32.8 15.9285 32.79C16.1685 32.79 16.5785 32.72 16.3985 33.06L15.6285 33.23Z" fill="#1A1A1A"/>
<path d="M20.7785 33.31C20.6685 33.42 20.5785 33.34 20.4985 33.25C20.2985 33.01 20.2985 32.62 20.1085 32.39C20.0085 32.27 19.8585 32.23 19.7485 32.12C19.6285 31.99 19.1385 31.53 19.3885 31.42C19.6385 31.31 20.0785 31.86 20.1085 31.83C20.1285 31.69 20.3385 30.94 20.4285 30.91C20.5285 30.88 20.6785 31.03 20.6885 31.13C20.7085 31.32 20.4885 31.83 20.4985 32.1C20.4985 32.35 20.9785 33.11 20.7785 33.32V33.31Z" fill="#1A1A1A"/>
<path d="M22.5485 46.78C22.5485 46.78 22.6985 46.72 22.7485 46.72C23.0385 46.74 23.0585 47.09 23.1585 47.28C23.2685 47.5 23.4685 47.83 23.5285 48.07C23.5885 48.28 23.6185 49.15 23.3685 49.22C22.9185 49.35 23.0285 48.69 22.9885 48.45C22.9085 48.03 22.7285 47.57 22.6085 47.15C22.5785 47.05 22.4385 46.9 22.5485 46.78Z" fill="#1A1A1A"/>
<path d="M19.8085 43.1C20.1285 43.07 20.0785 43.67 20.1385 43.86C20.1685 43.98 20.3785 44.42 20.4485 44.57C20.5085 44.7 20.8485 44.99 20.4585 45.1C20.0685 45.21 19.7885 44.37 19.7085 44.1C19.6485 43.89 19.4785 43.12 19.8085 43.1Z" fill="#1A1A1A"/>
<path d="M12.7485 47.46C12.7485 47.46 12.8485 47.64 12.8485 47.68C12.8785 47.9 12.6885 48.78 12.6185 49.03C12.5785 49.18 12.4585 49.28 12.4585 49.43C12.3085 49.52 12.1685 49.63 11.9785 49.58C11.6785 49.49 11.9585 49.04 12.0085 48.85C12.0785 48.59 12.1485 48.43 12.2185 48.19C12.2785 47.99 12.2385 47.7 12.2885 47.53C12.3385 47.36 12.6485 47.36 12.7485 47.46Z" fill="#1A1A1A"/>
<path d="M12.1985 42.67C12.1985 42.67 12.2685 42.63 12.3185 42.62C12.4085 42.62 12.4985 42.68 12.5385 42.76C12.6185 42.93 12.4185 43.51 12.3885 43.75C12.3585 43.96 12.4485 44.77 12.1185 44.78C11.8785 44.79 11.8085 44.36 11.8085 44.18C11.8085 44.05 11.8885 43.57 11.9185 43.42C11.9485 43.27 12.1085 42.75 12.1985 42.66V42.67Z" fill="#1A1A1A"/>
<path d="M24.7285 16.13C24.7285 16.13 24.5485 15.96 24.5285 15.93C24.0985 15.46 23.7885 14.43 23.9685 13.82C23.9785 13.78 24.2385 13.26 24.2585 13.24C24.3985 13.11 24.6985 13.16 24.7185 13.36C24.7285 13.46 24.5385 13.83 24.5285 14.04C24.5085 14.31 24.6885 15.11 24.8285 15.34C24.9685 15.57 25.2785 15.68 25.1285 16C25.0685 16.13 24.8385 16.18 24.7285 16.13Z" fill="#1A1A1A"/>
</svg>
