<svg width="51" height="47" viewBox="0 0 51 47" fill="none" xmlns="http://www.w3.org/2000/svg">
<path d="M49.4526 24.85C48.9726 23.26 48.1526 21.91 46.9526 20.73C46.2026 19.99 44.6626 18.68 42.7526 18.23C42.4526 18.16 42.0926 18.12 41.6526 18.12C41.1826 18.12 40.6526 18.16 40.2126 18.23C39.1726 18.39 38.0626 19.13 37.4026 19.72C37.5626 19.21 37.6826 18.7201 37.7526 18.2401C37.9026 17.1901 37.8826 16.42 37.6926 15.81C37.3426 14.71 36.4526 13.66 35.3526 13.09C35.3226 13.08 35.2926 13.06 35.2726 13.05C35.3426 13 35.4126 12.94 35.4826 12.89C36.2426 12.27 37.0526 11.32 36.5726 10.28C36.3226 9.72003 35.5926 9.35004 35.5826 9.35004C35.1526 9.15004 34.5826 8.99003 34.0226 8.84003C33.7826 8.77003 33.5526 8.71003 33.3826 8.66003C33.1826 8.60003 32.9726 8.52 32.7626 8.44C32.6826 8.41 32.5926 8.38004 32.5126 8.35004C32.8826 7.89004 33.1826 7.38003 33.4526 6.78003C34.1926 5.12003 34.0526 3.35002 33.0126 1.52002C32.8426 1.21002 32.2726 0.680029 31.9026 0.530029C31.6826 0.440029 31.4526 0.390015 31.2226 0.390015C30.6726 0.390015 30.1826 0.660015 29.8626 1.14001C29.7026 1.38001 29.6226 1.63 29.5626 1.81C29.5626 1.83 29.5426 1.85 29.5426 1.88C28.8426 2.8 27.6226 4.01001 26.8026 4.45001C26.7426 4.48001 26.6626 4.52001 26.5626 4.57001C25.2126 3.79001 23.1326 3.28003 21.2326 3.28003C20.1526 3.28003 19.2226 3.44 18.4626 3.75C17.7426 4.05 17.1926 4.39003 16.6526 4.72003C16.5826 4.77003 16.5026 4.81005 16.4326 4.86005C16.3226 4.85005 16.2226 4.84002 16.1426 4.83002C16.0826 4.83002 16.0026 4.83001 15.9826 4.82001C15.8726 4.80001 15.4326 4.61003 14.7326 4.03003C14.1326 3.54003 13.6926 3.06 13.5426 2.81C13.5026 2.75 13.4526 2.64004 13.4026 2.54004C13.3326 2.40004 13.2626 2.25003 13.1626 2.09003C13.0826 1.96003 12.9626 1.74004 12.9026 1.60004C12.9026 1.58004 12.8826 1.53005 12.8726 1.49005C12.8226 1.33005 12.7626 1.10001 12.6526 0.890015C12.3726 0.330015 11.8726 0 11.3026 0C11.0226 0 10.5926 0.0800513 10.1826 0.490051C9.47257 1.18005 9.04257 2.17 8.93257 3.38C8.85257 4.31 8.97257 5.34001 9.27257 6.20001C9.59257 7.11001 10.2626 8.13005 11.0326 8.93005C9.68257 9.63005 8.15257 10.2 6.21257 10.72C5.95257 10.79 5.37257 11.02 5.36257 11.02C4.79257 11.24 4.20257 11.82 4.18257 12.61C4.15257 13.44 4.44257 14.17 4.68257 14.63C5.11257 15.45 5.69257 16.1 6.40257 16.57C7.11257 17.04 8.01257 17.42 8.80257 17.59C9.22257 17.68 9.75257 17.73 10.3026 17.73C10.5026 17.73 10.7326 17.73 10.9826 17.7C10.9826 18.03 11.0026 18.39 11.0226 18.76C11.0426 19.09 11.0426 19.42 11.0426 19.77C11.0426 20.09 11.0426 20.43 11.0626 20.78L11.0826 21.29C11.1626 23.06 11.2526 24.88 11.2826 26.69C10.5126 26.87 10.1026 27.43 9.86257 27.75C9.01257 28.89 8.89257 30.39 9.56257 31.48C9.60257 31.54 9.64257 31.6101 9.69257 31.6801C9.47257 33.0201 10.0726 34.24 11.3526 34.95L11.4826 44.33C11.4826 44.57 11.5626 44.81 11.6926 45.01V45.12C11.6926 45.46 11.8126 45.79 12.0526 46.03C12.2926 46.27 12.6126 46.41 12.9526 46.41L39.6326 46.32C39.8526 46.43 40.0926 46.5 40.3526 46.5C41.0426 46.5 41.6426 46.05 41.8326 45.41C42.0026 44.83 41.8126 44.27 41.4626 43.44C42.7826 42.55 44.2426 41.53 45.4626 40.11C47.1326 38.17 48.7826 35.32 49.5626 33.04C50.4226 30.51 50.3926 27.92 49.4726 24.89L49.4526 24.85ZM34.7326 23.94C34.7326 23.94 34.7326 23.95 34.7326 23.96C34.7326 23.96 34.7326 23.96 34.7426 23.95L34.7326 23.94Z" fill="#FAE9BC"/>
<path d="M47.5826 24.15C46.8626 21.7 42.6226 20.02 42.6226 20.02C42.6226 20.02 39.8326 22.3601 39.6726 22.3001C39.7826 22.1701 39.9926 22.08 40.1326 21.97L40.0626 21.72C39.7126 21.53 39.0226 22.31 39.0726 22.58C39.0726 22.6 39.1326 22.69 39.1526 22.7C39.2426 22.78 39.3226 22.76 39.3926 22.7C38.9126 23.57 38.0326 25.52 38.0326 25.52C38.0126 25.49 37.4526 25.68 37.3526 25.69C37.2726 25.7 37.0226 25.7301 36.9326 25.7401C36.7726 25.7401 36.5726 25.68 36.4126 25.73L37.3726 26.38C37.2726 26.51 37.1626 26.66 37.0426 26.81C37.0026 26.8 36.9726 26.78 36.9526 26.76C36.9126 26.72 36.8826 26.66 36.8626 26.65C36.4226 26.32 35.5526 26.0701 35.0126 26.1801C34.3226 26.3101 33.7426 26.9 34.1326 27.61L34.7726 27.47C34.7726 27.06 35.2826 26.77 35.6526 26.77C35.9226 26.77 36.4326 27.03 36.7026 27.26C36.4926 27.54 36.2726 27.84 36.0426 28.14C36.0426 28.13 36.0226 28.12 36.0126 28.11C35.9426 28.09 35.3326 28.47 35.2126 28.5C35.0326 28.55 34.8026 28.53 34.6326 28.66C34.6026 28.7 34.7326 28.85 34.7526 28.92C34.8326 29.15 34.9026 29.39 34.9726 29.63C34.4226 30.41 34.0026 31.06 33.9326 31.31L32.2226 31.89C31.9126 32.03 31.6126 31.68 31.8226 31.44C31.8626 31.4 32.1326 31.25 32.2026 31.22C32.6626 31.01 33.1326 30.91 33.6126 30.73C33.8226 30.65 34.0326 30.5 34.2526 30.45L34.2826 30.27L33.8726 28.9901C33.6726 29.0101 33.4826 29.06 33.2926 29.13C32.7426 29.31 32.2026 29.53 31.6626 29.72C31.4126 29.81 29.8526 30.28 29.8126 30.41L30.8626 33.34C30.6226 33.32 30.3826 33.3 30.1326 33.29L29.7526 32.28C29.0026 32.53 28.2926 32.92 27.5226 33.1C27.4026 33.1 27.2826 33.08 27.1626 33.07C27.0826 32.95 27.1326 32.74 27.2526 32.65C27.4226 32.51 28.0326 32.26 28.2726 32.16C28.4626 32.08 28.6726 32.07 28.8426 31.9L29.5326 31.6801L29.1126 30.57C29.1126 30.57 28.6626 30.7 28.5926 30.72C27.9826 30.96 27.3626 31.19 26.7326 31.4C26.3326 31.54 25.9126 31.65 25.5026 31.77C25.4926 31.94 25.6126 32.06 25.6626 32.23C25.7426 32.48 25.8326 32.73 25.9126 32.97C25.6726 32.95 25.4326 32.93 25.1926 32.91C25.0926 32.63 24.9926 32.35 24.8426 32.09L22.8026 32.72C22.1526 32.67 21.5126 32.61 20.8926 32.56L32.7026 28.57L30.8226 24.79C30.6926 24.76 30.1926 24.97 30.0326 25C29.0326 25.22 27.7826 25.29 26.7726 25.1C26.7126 25.09 26.6726 25.05 26.6326 25.02C25.8326 25.76 24.7126 26.21 23.6326 26.42C22.6126 26.62 21.2526 26.6201 20.2226 26.4901C19.9026 26.4501 18.9326 26.27 18.6726 26.15C18.6526 26.15 18.3926 25.92 18.3726 25.89C18.2526 25.76 18.2326 25.53 18.4126 25.45C18.6426 25.35 18.7726 25.6 18.9826 25.65C20.3126 25.99 23.4226 25.96 24.6726 25.41C24.9326 25.3 25.0526 25.24 25.3326 25.14C25.4726 25.09 25.7026 24.92 25.8326 24.83C25.4626 24.64 25.0226 24.51 24.6426 24.33C24.4326 24.23 24.2026 24.11 23.9926 24.01C23.8126 23.92 23.6826 23.65 23.4426 23.63C23.3126 23.63 23.2426 23.7301 23.1526 23.7401C21.0226 24.1201 18.4826 24.18 16.5226 23.12C15.7726 22.72 15.1526 21.68 15.3126 20.84C15.3426 20.68 15.4426 20.36 15.5126 20.21C15.6526 19.87 16.1626 19.19 16.5226 19.09C18.6726 18.5 19.5626 19.71 21.1226 20.81L21.0826 20.9C21.1726 20.92 21.2726 20.96 21.3526 21.02C21.9626 21.47 22.5026 22.0401 23.1126 22.4901C23.9926 23.1401 25.6526 24.12 26.7026 24.35C29.4026 24.94 32.5426 23.7901 34.3126 21.6801C35.5226 20.2401 35.8326 18.28 35.9026 16.44C35.4626 15.42 34.4326 14.69 33.3326 14.48C33.2226 14.46 32.9426 14.39 32.8726 14.39C32.6726 14.37 32.2626 14.46 32.0526 14.47C30.0326 14.6 28.0226 14.9401 26.0226 14.5501C25.6126 14.4701 25.1726 14.31 24.8226 14.21C23.8826 13.93 23.2426 13.83 22.5626 13.07C22.5226 13.02 22.5226 12.9701 22.4326 12.9901C22.4126 13.1901 22.4326 13.5501 22.3726 13.7401C22.2126 14.2001 21.7426 14.88 21.3826 15.21C21.3226 15.26 20.9526 15.48 20.9526 15.51C21.0226 15.61 21.1326 15.72 21.2226 15.81C21.6026 16.17 21.9126 16.45 22.2526 16.86C22.3526 16.98 22.4926 17.13 22.5726 17.22C22.7026 17.4 22.7226 17.71 22.4626 17.75C22.0626 17.81 21.3526 16.85 21.0326 16.59C19.9026 15.68 18.1326 15.33 16.7326 15.66C16.1526 15.8 15.5626 16.24 15.0526 16.52C14.9726 16.56 14.5726 16.75 14.5126 16.77C14.3326 16.81 14.1926 16.71 14.1726 16.53C14.1726 16.45 14.3426 16.31 14.4026 16.25C14.7226 15.97 15.1726 15.63 15.5426 15.45C15.6926 15.38 15.8926 15.37 16.0126 15.23C15.8226 15.04 15.6126 14.89 15.4326 14.7C15.3626 14.62 15.3326 14.52 15.2726 14.44C15.0126 14.13 15.0626 14.24 14.8626 13.88C14.7726 13.71 14.6226 13.55 14.5526 13.36C14.4026 13.36 14.3826 13.8001 14.3426 13.9301C14.1926 14.3601 13.8826 14.86 13.5426 15.16C13.3726 15.31 13.1626 15.39 13.0126 15.56C13.0826 15.89 12.9126 16.22 12.9126 16.52C12.9226 17.22 12.9526 17.9 13.0126 18.6C13.0826 19.42 13.0026 20.27 13.0526 21.09C13.0726 21.41 13.1926 21.74 13.1526 22.04C13.4626 22.08 13.8126 22.18 14.0926 22.33C14.2626 22.42 14.8326 22.92 14.9526 23.08C15.4526 23.73 15.8726 24.63 16.0126 25.44C16.0726 25.78 15.9526 26.36 16.2226 26.57C16.5926 26.86 17.4826 26.99 17.8826 27.35C17.9626 27.42 17.9626 27.53 18.0026 27.57C18.0526 27.62 18.1726 27.61 18.2426 27.67C18.5526 27.91 19.0526 28.91 19.1226 29.29C19.2926 30.17 19.2326 31.2001 19.0126 32.0501C18.9826 32.1601 18.9526 32.26 18.9226 32.37C16.7526 32.18 14.9526 31.99 13.9926 31.84L14.1026 31.75C14.1226 31.65 13.9726 31.63 13.9326 31.58C13.8626 31.49 13.8426 31.4 13.7326 31.29C13.4326 30.99 12.4126 30.63 12.0526 30.95C11.7826 31.19 11.4226 31.93 11.4926 32.29C11.5626 32.64 11.9126 33.16 12.2126 33.32C12.4826 33.47 12.8626 33.52 13.1726 33.53C13.0826 37.24 12.9326 45.09 12.9326 45.09L40.6026 45L39.6626 42.71C43.6126 41.04 46.3226 35.67 47.7526 33.16C49.2026 30.59 48.3126 26.58 47.5826 24.13V24.15ZM27.1126 19.01C26.9126 19.18 26.0526 19.26 25.8326 19.09C25.5126 18.84 25.5226 18 25.8026 17.7C26.1626 17.31 26.6126 17.35 26.9626 17.73C27.2026 17.99 27.4126 18.76 27.1126 19.01ZM33.8626 21.25C33.8626 21.25 33.5726 21.55 33.5426 21.57C33.4726 21.63 33.1826 21.86 33.1126 21.91C33.0226 21.97 32.4926 22.24 32.4126 22.25C32.2026 22.26 32.0926 22.1 32.2026 21.91C32.2026 21.9 32.3926 21.72 32.4026 21.71C32.4526 21.68 32.5326 21.68 32.5926 21.64C32.9226 21.39 33.2626 21.14 33.5926 20.89C33.8926 20.76 34.0126 21.01 33.8626 21.25ZM32.0326 17.32C31.9326 16.68 32.4526 16.09 33.1126 16.38C33.4726 16.54 33.7526 17.43 33.3926 17.71C33.2626 17.81 32.7326 17.93 32.5526 17.91C32.2726 17.88 32.0726 17.58 32.0326 17.32ZM31.0426 16.22C31.2826 15.69 31.6226 15.39 32.1426 15.15C32.4726 15 32.9526 14.92 33.3126 14.98C33.5126 15.01 33.7426 15.14 33.8926 15.28C34.4226 15.77 34.7526 16.47 34.7926 17.2C34.8026 17.42 34.7126 17.97 34.6026 18.16C34.5126 18.32 34.1726 18.52 34.0226 18.36C33.8626 18.2 34.0526 18.01 34.0726 17.87C34.1526 17.45 34.0726 16.86 33.9026 16.47C33.8126 16.28 33.4326 15.71 33.2326 15.66C33.1626 15.64 33.0926 15.68 33.0326 15.67C32.9826 15.67 32.9326 15.62 32.8826 15.62C32.6326 15.62 32.0526 15.93 31.8726 16.11C31.3026 16.71 31.2926 17.4701 31.4226 18.2401C31.3826 18.3801 31.1726 18.4 31.0726 18.31C31.0426 18.28 30.8026 17.66 30.7926 17.59C30.7226 17.19 30.8826 16.58 31.0526 16.21L31.0426 16.22ZM31.4126 21.39C31.6726 21.26 31.8926 20.99 32.1926 21.06C32.3826 21.39 31.9626 21.59 31.7226 21.75C31.6726 21.78 31.6526 21.86 31.6126 21.88C31.5226 21.94 30.8626 22.2301 30.7826 22.2401C30.6926 22.2401 30.6026 22.19 30.5626 22.11C30.3726 21.7 31.1426 21.52 31.4126 21.39ZM29.7626 23.25C29.9626 23.12 30.5026 23.03 30.7726 22.92C31.0226 22.82 31.2626 22.66 31.4926 22.53C31.6126 22.51 31.7226 22.57 31.7426 22.69C31.7426 22.72 31.5726 22.94 31.5426 22.97C31.3426 23.15 30.6726 23.47 30.4126 23.53C30.2626 23.56 29.9626 23.62 29.8226 23.59C29.6626 23.56 29.6226 23.34 29.7526 23.25H29.7626ZM23.9926 17.71C24.1526 16.69 25.5126 15.86 26.4926 16.13C26.8326 16.22 27.4326 16.52 27.6826 16.79C27.8126 16.93 28.2126 17.67 28.2626 17.85C28.3126 18.04 28.3126 18.67 28.1326 18.79C27.7026 19.07 27.7226 18.34 27.6426 18.13C27.5926 18 27.4626 17.71 27.4026 17.59C27.3426 17.47 26.8826 17.08 26.7426 17C26.6026 16.92 26.1726 16.79 26.0126 16.79C25.9526 16.79 25.4926 16.9101 25.4226 16.9301C25.1726 17.0301 24.7226 17.52 24.6626 17.79C24.6226 17.96 24.6226 18.23 24.6426 18.41C24.6926 18.79 25.0226 19.24 25.2326 19.52C25.3426 19.66 25.8326 20.2 25.8626 20.28C25.8826 20.34 25.9026 20.4 25.8626 20.47C25.8026 20.53 25.7326 20.56 25.6526 20.54C25.6026 20.54 25.2126 20.27 25.1426 20.21C24.4826 19.67 23.8526 18.59 23.9926 17.72V17.71ZM13.1826 33.48L13.1626 33.19C12.6526 33.07 12.2026 32.76 12.1726 32.2C12.1226 31.49 12.7126 31.3701 13.2426 31.6801C13.2326 31.7701 13.2026 32.4601 13.1826 33.4901V33.48ZM13.2426 31.6801C13.2426 31.6801 13.2826 31.71 13.3026 31.72C13.2626 31.7 13.2426 31.6901 13.2426 31.6801ZM32.5426 33.46C32.5326 33.35 32.5426 33.26 32.6026 33.2L34.0726 32.64C34.1226 32.93 34.1826 33.25 34.2526 33.58C33.7626 33.55 33.1926 33.51 32.5426 33.46Z" fill="#FAE9BC"/>
<path d="M13.6926 13.87C13.8526 13.56 13.8826 12.94 14.3826 13.15L14.1826 12.6801C14.1226 12.6201 14.0126 12.66 13.9626 12.63C13.2026 12.28 12.2226 11.7 11.9226 10.83C11.8926 10.73 11.8926 10.65 11.8926 10.56C11.8726 10.53 11.3026 10.9 11.2326 10.94C10.9326 11.09 10.5626 11.21 10.2426 11.34C9.98255 11.45 9.74256 11.62 9.44256 11.63C9.38256 11.69 9.50255 12.46 9.49255 12.62C9.43255 13.14 9.05256 14.0801 8.79256 14.5501C8.73256 14.6501 8.28256 15.26 8.34256 15.32C8.62256 15.4 8.91256 15.45 9.18256 15.52C9.29256 15.55 9.33256 15.63 9.47256 15.65C10.9626 15.83 12.9626 15.28 13.7026 13.87H13.6926Z" fill="#FAE9BC"/>
<path d="M18.7926 7.19999C19.3926 7.33999 20.2126 7.47001 20.7326 7.84001C21.1926 8.17001 21.6126 8.89999 21.7626 9.44999C21.7826 9.52999 21.7726 9.60998 21.7726 9.68998H21.9126C21.9126 9.62998 21.9226 9.57 21.9526 9.52C22.2026 8.96 22.4726 8.21998 22.8226 7.74998C23.0826 7.39998 23.5926 6.88003 23.9026 6.61003C24.1726 6.37003 24.3326 6.16999 24.6226 6.00999C24.6826 5.96999 24.8426 5.95998 24.7426 5.86998C24.5626 5.83998 24.3026 5.65999 24.1526 5.62999C23.7326 5.52999 23.2926 5.44003 22.8826 5.36003C21.5926 5.12003 20.2926 5.11003 19.0526 5.55003L18.2226 5.92002C18.4826 6.29002 18.5526 6.74998 18.5426 7.18998C18.6226 7.18998 18.7126 7.16998 18.7926 7.18998V7.19999Z" fill="#FAE9BC"/>
<path d="M27.0026 6.48004C27.3826 6.78004 27.6226 6.96004 27.9326 7.35004C28.2926 7.80004 28.5325 8.18002 28.9925 8.58002C29.0625 8.64002 29.1726 8.74003 29.2526 8.72003C29.2826 8.72003 29.6826 8.45003 29.7326 8.41003C30.4026 7.92003 31.0926 7.01002 31.4726 6.27002C31.5226 6.18002 31.8026 5.64003 31.8126 5.59003C31.8526 5.46003 31.7826 5.39005 31.7926 5.30005C31.8426 4.97005 31.9926 4.64003 31.9226 4.28003C31.7226 3.72003 31.6626 3.09003 31.3026 2.59003L30.8826 3.23004C29.8626 4.36004 28.9126 5.60005 27.4726 6.24005C27.3026 6.32005 27.1226 6.4 26.9326 6.37C26.9026 6.48 26.9525 6.45004 26.9925 6.48004H27.0026ZM30.2226 6.35004L30.8226 5.47003L30.9426 5.40002C31.3426 5.40002 31.0026 6.02 30.9126 6.19C30.7426 6.49 30.2926 7.06 29.9526 7.13C29.8726 7.15 29.7926 7.15003 29.7326 7.09003C29.4826 6.83003 30.0826 6.51003 30.2326 6.34003L30.2226 6.35004Z" fill="#FAE9BC"/>
<path d="M11.8925 6.89002C12.2525 7.38002 12.5825 7.83001 13.1025 8.19001C13.4025 8.40001 13.7425 8.51004 13.9925 8.78004L16.4625 6.70002C15.8225 6.70002 15.2825 6.58005 14.7125 6.30005C13.1725 5.54005 11.9325 4.07004 11.1725 2.54004C11.1425 2.49004 11.1525 2.41004 11.1525 2.35004C11.0925 2.27004 11.0725 2.35005 11.0625 2.42005C11.0425 2.56005 11.0625 2.72005 11.0325 2.86005C11.0025 3.06005 10.9025 3.34003 10.8825 3.53003C10.7825 4.33003 11.0125 5.11 11.3125 5.81C11.5025 6.26 11.6025 6.48001 11.8925 6.88001V6.89002ZM12.2625 6.02003C12.4925 5.91003 12.5725 6.23004 12.6925 6.35004C12.7525 6.42004 12.8725 6.46003 12.9325 6.52003C13.1525 6.73003 13.3125 7.00004 13.6225 7.10004C13.7025 7.37004 13.4325 7.49002 13.1925 7.39002C13.1525 7.37002 12.6725 6.98006 12.6225 6.93006C12.4825 6.78006 11.9625 6.17003 12.2525 6.02003H12.2625Z" fill="#FAE9BC"/>
<path d="M22.6426 9.63999C22.6426 9.63999 22.3826 10.29 22.3726 10.33C22.3526 10.48 22.4926 10.72 22.3726 10.9C22.8426 10.85 23.3126 10.87 23.7826 10.86C24.8026 10.84 25.8526 10.82 26.8726 10.81C26.9526 10.81 27.0126 10.83 27.0826 10.86C27.0826 10.59 27.0926 10.22 26.9826 9.97C26.8926 9.78 26.3926 9.30003 26.2026 9.18003C25.4426 8.66003 24.7426 8.54998 23.8626 8.81998C23.4826 8.93998 22.8926 9.33 22.6526 9.65L22.6426 9.63999Z" fill="#FAE9BC"/>
<path d="M21.6326 10.89C21.6326 10.69 21.4726 10.6 21.3926 10.46C21.3626 10.4 21.3626 10.31 21.3326 10.25C21.2726 10.16 20.9826 9.76003 20.9326 9.70003C20.6926 9.46003 19.7826 9.20007 19.4426 9.18007C18.1626 9.11007 17.0726 9.97007 16.7326 11.1801C16.7126 11.2701 16.6826 11.35 16.6926 11.44L21.6326 10.89Z" fill="#FAE9BC"/>
<path d="M20.4426 12.7401C19.6526 13.5601 18.0226 13.26 17.4826 12.3C17.4326 12.21 17.4026 12.11 17.3826 12.01L16.6926 12.15V12.45C16.8726 12.71 16.9526 13.11 17.1326 13.35C17.2826 13.56 17.8226 14.03 18.0526 14.14C18.5726 14.37 19.0526 14.46 19.6226 14.36C19.9726 14.3 20.5526 14.07 20.8526 13.88C20.8826 13.86 21.2926 13.36 21.3326 13.3C21.4026 13.2 21.5726 12.67 21.6026 12.52C21.6626 12.25 21.6526 12 21.6726 11.73L20.9326 11.78C20.9326 12.18 20.7026 12.4701 20.4326 12.7401H20.4426Z" fill="#FAE9BC"/>
<path d="M26.1426 11.9901C26.0826 12.1001 25.4826 12.53 25.3326 12.59C24.7726 12.84 24.2726 12.7 23.8026 12.35C23.5726 12.18 23.2426 11.87 23.1426 11.6C23.0326 11.6 22.4626 11.55 22.4626 11.66C22.7726 12.58 23.3226 13.21 24.3026 13.42C25.2226 13.62 26.3826 13.17 26.7626 12.27C26.8726 12.02 26.9326 11.83 26.8926 11.55L26.2826 11.6C26.2126 11.64 26.1826 11.92 26.1426 12V11.9901Z" fill="#FAE9BC"/>
<path d="M21.6626 22.22C21.6026 22.17 21.5126 22.18 21.4426 22.13C21.3726 22.08 21.3526 21.99 21.3026 21.95C21.1226 21.82 20.5326 22.03 20.2926 21.92L20.4326 23.31C20.9026 23.38 21.3326 23.28 21.7926 23.22C21.9126 23.2 22.0426 23.23 22.1626 23.22C22.3026 23.2 22.4626 23.07 22.6526 23.13C22.5626 23 22.3526 22.93 22.2426 22.83C22.0626 22.66 21.8726 22.39 21.6726 22.23L21.6626 22.22Z" fill="#FAE9BC"/>
<path d="M19.3026 23.27C19.5026 23.27 19.7026 23.16 19.9226 23.31C19.8926 23.16 19.8926 22.98 19.8626 22.84C19.8426 22.76 19.7726 22.7 19.7626 22.63C19.7126 22.38 19.8226 22.12 19.6926 21.91L18.0926 21.89C18.0026 22.04 18.1926 22.7801 18.2226 22.9901C18.2926 23.0701 19.1526 23.27 19.3026 23.28V23.27Z" fill="#FAE9BC"/>
<path d="M19.5626 20.61C19.5626 20.61 19.1926 20.28 19.1426 20.25C19.0326 20.18 18.3026 19.75 18.2526 19.73C18.1726 19.71 18.1126 19.71 18.0326 19.71L18.0526 21.28L19.6526 21.37C19.6526 21.37 19.6026 20.68 19.5626 20.61Z" fill="#FAE9BC"/>
<path d="M11.6425 30.06C11.6125 29.69 12.0825 29.11 12.4925 29.31C12.4725 29.17 12.5325 28.91 12.4725 28.8C12.4225 28.72 12.0425 28.52 11.9425 28.5C11.3725 28.39 10.9425 29.54 10.9725 29.98C10.9825 30.19 11.1426 30.92 11.4526 30.74C11.9026 30.48 11.6725 30.37 11.6425 30.06Z" fill="#FAE9BC"/>
<path d="M16.5126 19.97C16.3926 20.09 16.3526 20.24 16.2326 20.35L16.0026 21.14L17.4326 21.26C17.5526 21.17 17.4326 20.79 17.4326 20.66C17.4326 20.59 17.4726 20.5201 17.4726 20.4301C17.4726 20.1901 17.3926 19.93 17.4726 19.66C17.1126 19.7 16.7826 19.7 16.5126 19.97Z" fill="#FAE9BC"/>
<path d="M32.0226 25.72L32.4325 26.53C32.7125 26.47 32.9925 26.33 33.2825 26.47C33.3725 26.51 33.4326 26.64 33.5226 26.64L33.8826 26C34.0226 25.95 34.2226 25.89 34.1926 25.71C33.5226 25.39 32.7026 25.38 32.0226 25.71V25.72Z" fill="#FAE9BC"/>
<path d="M17.5926 22.85C17.7126 22.87 17.6326 22.82 17.6226 22.77C17.5926 22.46 17.4526 22.18 17.5126 21.84L16.1326 21.65C16.0826 21.7 16.4726 22.24 16.5326 22.3C16.6626 22.42 17.4226 22.82 17.5826 22.85H17.5926Z" fill="#FAE9BC"/>
<path d="M40.5025 20.28C40.2125 20.34 39.3425 20.67 39.3225 20.99C39.3225 21.03 39.4025 21.22 39.4125 21.23C39.4525 21.26 39.5925 21.25 39.6525 21.23C39.7225 21.21 40.1225 20.89 40.2925 20.81C40.5025 20.71 41.1725 20.58 40.9725 20.3C40.8925 20.19 40.6325 20.26 40.5025 20.28Z" fill="#FAE9BC"/>
<path d="M37.7326 23.2201C37.8226 23.2501 37.8825 23.1701 37.9325 23.1101C38.2525 22.7301 38.4625 22.2001 38.8525 21.8501L38.7326 21.6101C38.5826 21.6001 38.5125 21.7 38.4225 21.77C38.1625 21.99 37.8825 22.3701 37.7425 22.6801C37.6625 22.8601 37.5325 23.0701 37.7425 23.2201H37.7326Z" fill="#FAE9BC"/>
<path d="M38.4026 13.58C39.0026 13.95 39.3726 14.2 39.8026 14.79C39.8426 14.84 39.9626 15.17 40.0326 15.19C40.1326 15.21 40.0826 15.16 40.1026 15.12C40.3426 14.66 40.7026 14.19 41.1426 13.9C41.2126 13.85 41.7026 13.68 41.6226 13.57C41.4326 13.5 41.2026 13.41 41.0226 13.31C40.5926 13.06 40.1826 12.67 39.8926 12.27C39.8426 12.2 39.7326 11.72 39.6626 11.72L39.0426 12.84C38.9426 12.98 38.3626 13.42 38.3526 13.5C38.3326 13.59 38.3826 13.56 38.4126 13.58H38.4026Z" fill="#FAE9BC"/>
<path d="M18.6226 41.36L33.8926 35.57L34.6226 36.4L34.3626 36.95L26.2426 39.7L24.3826 40.14C24.3826 40.14 23.7126 40.1 23.6326 40.22C23.5526 40.34 22.7026 40.97 22.7026 40.97L20.2326 41.8L18.6226 41.37V41.36Z" fill="#D6A078"/>
<path d="M38.3826 36.6L40.5126 35.79L40.8526 36.64L39.6326 37.32L38.9426 37.6L38.3826 36.6Z" fill="#D6A078"/>
<path d="M18.6826 26.15C18.6826 26.15 21.2726 27.86 27.1126 26.4C27.1126 26.4 30.0826 26.62 31.4926 26.02L30.8426 24.79C30.8426 24.79 29.0626 24.88 28.8426 24.88C28.6226 24.88 26.3026 24.77 26.3026 24.77L24.6826 25.8L21.4426 26.23L19.6026 26.07L18.6926 26.14L18.6826 26.15Z" fill="#D6A078"/>
<path d="M11.1326 2.07001C11.1326 2.07001 10.8626 6.48004 15.0826 8.17004L13.8126 9.13C13.8126 9.13 11.7426 7.29001 11.6626 7.14001C11.5826 6.99001 10.7826 5.49005 10.7826 5.49005L10.3226 4.11005C10.3226 4.11005 10.3226 3.07002 10.4026 2.96002C10.4826 2.85002 11.1326 2.08002 11.1326 2.08002V2.07001Z" fill="#D6A078"/>
<path d="M31.3026 2.59003C31.3026 2.59003 32.0326 6.41005 28.4726 8.49005L29.2426 9.37L31.5026 6.84003L32.4626 4.73004L32.0026 2.93005L31.3026 2.60004V2.59003Z" fill="#D6A078"/>
<path d="M12.0626 2.74004C12.2026 2.96004 12.3126 3.25003 12.4526 3.48003C12.9926 4.33003 14.7226 5.84004 15.7026 6.05004C16.0326 6.12004 16.3626 6.05004 16.6626 6.24004C16.6926 6.24004 16.6826 6.17001 16.7226 6.15001C17.5026 5.69001 18.0926 5.27002 18.9426 4.91002C20.8226 4.13002 24.2626 4.64999 25.9926 5.68999C26.1026 5.75999 26.2526 5.99003 26.3926 5.98003C26.5326 5.97003 27.2226 5.64004 27.3926 5.55004C28.4726 4.97004 29.8726 3.53003 30.6126 2.54003C30.8226 2.26003 30.8226 1.44999 31.4226 1.68999C31.5026 1.71999 31.8626 2.04999 31.9026 2.12999C32.6426 3.43999 32.9226 4.82999 32.2926 6.24999C31.8426 7.25999 31.3026 7.92001 30.4326 8.59001C30.3926 8.62001 30.0226 8.94001 30.0426 8.96001C30.4626 9.14001 30.9526 9.18999 31.3826 9.30999C31.9326 9.45999 32.4526 9.69003 33.0026 9.86003C33.5826 10.05 34.5426 10.26 35.0426 10.5C35.1226 10.54 35.3926 10.75 35.4226 10.81C35.5726 11.14 34.9326 11.72 34.6826 11.92C33.7826 12.66 32.3226 13.22 31.2026 13.43C30.1626 13.62 29.1826 13.38 28.2326 12.98C28.1626 12.95 28.1826 12.93 28.1126 13.01C28.2326 13.18 28.2526 13.39 28.3326 13.57C28.4026 13.73 28.6226 13.86 28.5226 14.05C28.6826 14.09 28.8326 13.97 28.9626 13.96C29.2326 13.95 29.6626 14 29.9326 13.98C31.6626 13.85 33.1226 13.37 34.7726 14.23C35.5226 14.63 36.2226 15.38 36.4926 16.21C36.6626 16.74 36.5926 17.51 36.5126 18.07C36.3326 19.32 35.7826 20.58 35.2026 21.65C35.0426 21.95 34.7526 22.15 34.5126 22.39C33.7426 23.19 32.8626 23.96 31.8426 24.47C31.7426 24.52 31.5926 24.5 31.5026 24.6L31.7626 25.25C31.7626 25.25 32.0026 25.11 32.0726 25.08C33.0226 24.66 34.1026 24.82 34.8426 25.57C35.3026 25.52 35.7426 25.57 36.1926 25.67C36.1726 25.59 36.0726 25.59 36.0026 25.51C35.9826 25.49 35.7926 25.23 35.7926 25.21C35.7626 25.08 35.8426 24.69 35.8826 24.55C36.1226 23.7 36.7626 22.84 37.2026 22.08C37.5426 21.49 37.7226 21.17 38.2226 20.7C38.7226 20.23 39.6726 19.6 40.4226 19.48C40.9726 19.39 41.9426 19.33 42.4726 19.46C43.7826 19.77 45.0926 20.65 46.0726 21.63C47.0526 22.61 47.8126 23.79 48.2526 25.22C49.0126 27.7 49.2126 30.1 48.3626 32.6C47.6126 34.79 46.0326 37.47 44.5026 39.26C43.3626 40.58 41.9826 41.54 40.5626 42.49C40.3626 42.62 40.1426 42.71 39.9526 42.85C39.9226 42.89 40.0326 43.22 40.0526 43.3C40.1626 43.67 40.7026 44.72 40.6126 45.03C40.5526 45.24 40.2026 45.29 40.1026 45.05C40.0626 44.96 40.1026 44.89 40.0826 44.83C40.0526 44.75 39.9226 44.61 39.8726 44.5C39.5326 43.74 39.1626 42.93 38.8726 42.17C38.6226 41.51 38.4126 40.79 38.1226 40.16C38.0026 39.91 37.7626 39.69 37.7626 39.41C37.7626 39.19 37.8826 39.04 38.1126 39.06C38.5626 39.11 38.8126 40.44 39.1526 40.71C39.2726 41.2 39.5026 41.67 39.6626 42.15C39.7126 42.2 40.6126 41.61 40.6926 41.49L41.7726 40.81L41.7926 40.75C41.6926 40.58 41.5426 40.32 41.4826 40.13C41.3426 39.68 41.2026 38.61 41.3126 38.15C41.6326 36.82 42.5726 35.57 43.8026 34.94C43.8926 34.89 44.3126 34.69 44.3726 34.68C44.5726 34.63 44.7926 34.68 44.9926 34.5L45.1826 33.41C45.4326 32.66 45.7526 31.94 46.3426 31.39C46.7326 31.03 47.2126 30.91 47.7326 30.84C47.9926 30.81 48.1626 31 48.2526 30.58C48.3126 30.29 48.2026 30.12 48.2026 29.84C48.2026 29 48.2526 28.05 48.1126 27.21C48.0926 27.11 47.9926 26.72 47.9526 26.6C47.7226 25.83 47.5226 25.04 47.1626 24.28C46.8026 23.52 46.1726 22.88 45.6226 22.25C45.3226 21.91 45.1326 21.81 44.8026 21.53C44.6326 21.39 44.6926 21.38 44.4526 21.21C44.3026 21.11 43.8226 20.72 43.6926 20.72C43.6026 20.72 42.6026 21.67 42.4426 21.78V21.91C42.5126 21.91 42.6026 21.93 42.6826 21.96C43.3826 22.23 44.1926 22.36 44.8726 22.68C44.9426 22.72 45.4026 22.99 45.4126 23.02C45.4426 23.07 45.4226 23.16 45.4126 23.22C45.3726 23.76 44.7526 24.84 44.4026 25.25C44.0526 25.66 43.5726 26.01 43.2026 26.43C43.9026 26.52 44.5226 26.4 45.1926 26.18C45.3326 26.13 45.6326 25.89 45.7726 26.11C45.9226 26.37 45.5726 26.55 45.3826 26.64C44.7926 26.94 44.0126 27.09 43.3526 27.03C43.4026 27.22 43.2926 27.5 43.3126 27.65C43.3126 27.73 43.4026 27.8 43.3926 27.87C43.3826 27.94 43.2826 28.09 43.2726 28.21C43.2226 29.12 43.2126 29.24 42.8726 30.07C42.7526 30.37 42.9526 30.73 43.0226 31.03C43.2626 32.06 43.3326 32.85 43.1026 33.9C42.7826 35.43 41.3826 36.75 39.9926 37.39C39.7026 37.53 38.8726 37.88 38.6026 37.94C38.5026 37.96 38.4126 37.98 38.3126 37.95C37.7326 37.6 37.0726 37.34 36.5726 36.88L36.0926 35.7L34.8226 35.06C34.8226 35.53 35.5826 36.3 35.0726 36.67C34.4426 37.12 33.4126 37.31 32.6926 37.57C31.7026 37.92 30.7826 38.46 29.8026 38.84C28.8826 39.2 27.9326 39.41 26.9826 39.71C26.0926 39.99 25.2226 40.41 24.3026 40.59C23.7626 40.04 23.7326 40.46 23.4226 40.82C23.0726 41.24 21.8726 41.45 21.3226 41.63C20.9926 41.73 20.2526 42.1 19.9426 42.09C19.8026 42.09 18.9426 41.85 18.7626 41.79C18.6226 41.75 18.1026 41.52 18.0326 41.42C17.9326 41.28 17.8826 40.93 17.8126 40.76C17.4526 39.85 17.1226 38.91 16.7726 37.97C16.6026 37.53 16.4026 37.09 16.2526 36.64C15.9626 36.87 15.5626 36.98 15.2126 37.06C15.2126 37.11 15.2426 37.16 15.2426 37.21C15.1926 37.79 15.0626 38.44 14.7726 38.95C14.5926 39.28 14.1026 39.76 13.8026 40.01C13.6926 40.1 13.4826 40.14 13.4226 40.32C13.3326 40.78 13.4426 41.24 13.4426 41.7C13.4426 42.26 13.4026 42.81 13.3826 43.36C13.3826 43.5 13.4426 43.69 13.4326 43.84C13.4026 44.25 13.1826 44.61 12.7726 44.27L12.6326 34.12C12.6026 33.98 12.3426 33.97 12.2026 33.91C11.0726 33.39 10.6426 32.4 11.1626 31.24C10.9826 31.22 10.7726 30.93 10.6726 30.78C10.2326 30.06 10.4326 29.12 10.9126 28.47C11.2126 28.07 11.4326 27.82 11.9726 27.87C12.2326 27.89 12.3626 28.02 12.5926 28.1C12.5726 27.93 12.6426 27.73 12.6426 27.57C12.6426 27.46 12.5926 27.36 12.5926 27.25C12.5726 25.05 12.4626 22.86 12.3626 20.69C12.3326 20.01 12.3626 19.34 12.3126 18.66C12.2626 17.78 12.2526 16.88 12.3626 16.01C12.2026 15.97 12.1726 16.13 12.0526 16.18C11.2926 16.48 9.90257 16.49 9.11257 16.32C8.48257 16.19 7.73257 15.87 7.14257 15.48C6.59257 15.11 6.16257 14.6 5.85257 14C5.63257 13.58 5.48257 13.09 5.49257 12.61C5.49257 12.41 5.69257 12.23 5.87257 12.16C6.02257 12.1 6.44257 11.94 6.58257 11.9C8.76257 11.32 10.8226 10.58 12.7526 9.39C12.9426 9.27 13.1226 9.10999 13.3326 8.99999C13.2526 8.88999 13.1026 8.90001 12.9926 8.84001C12.0026 8.26001 10.8826 6.83004 10.5026 5.74004C10.0426 4.44004 10.0226 2.39003 11.0926 1.36003C11.5526 0.910034 11.6426 1.72002 11.7626 2.03002C11.8526 2.25002 12.0126 2.54001 12.1126 2.71001L12.0626 2.74004ZM11.1526 2.35002C11.0926 2.27002 11.0726 2.35003 11.0626 2.42003C11.0426 2.56003 11.0626 2.72003 11.0326 2.86003C11.0026 3.06003 10.9026 3.34002 10.8826 3.53002C10.7826 4.33002 11.0126 5.10999 11.3126 5.80999C11.5026 6.25999 11.6026 6.47999 11.8926 6.87999C12.2526 7.36999 12.5826 7.82004 13.1026 8.18004C13.4026 8.39004 13.7426 8.50001 13.9926 8.77001L16.4626 6.68999C15.8226 6.68999 15.2826 6.57003 14.7126 6.29003C13.1726 5.53003 11.9326 4.06002 11.1726 2.53002C11.1426 2.48002 11.1526 2.40001 11.1526 2.34001V2.35002ZM28.9926 8.56999C29.0626 8.62999 29.1726 8.73001 29.2526 8.71001C29.2826 8.71001 29.6826 8.44001 29.7326 8.40001C30.4026 7.91001 31.0926 7 31.4726 6.26C31.5226 6.17 31.8026 5.63 31.8126 5.58C31.8526 5.45 31.7826 5.38003 31.7926 5.29003C31.8426 4.96003 31.9926 4.63001 31.9226 4.27001C31.7226 3.71001 31.6626 3.08 31.3026 2.58L30.8826 3.22002C29.8626 4.35002 28.9126 5.59003 27.4726 6.23003C27.3026 6.31003 27.1226 6.39003 26.9326 6.36003C26.9026 6.47003 26.9526 6.44002 26.9926 6.47002C27.3726 6.77002 27.6126 6.95001 27.9226 7.34001C28.2826 7.79001 28.5226 8.16999 28.9826 8.56999H28.9926ZM24.6026 6.02001C24.6626 5.98001 24.8226 5.96999 24.7226 5.87999C24.5426 5.84999 24.2826 5.67 24.1326 5.64C23.7126 5.54 23.2726 5.44998 22.8626 5.36998C21.5726 5.12998 20.2726 5.11999 19.0326 5.55999L18.2026 5.93004C18.4626 6.30004 18.5326 6.76 18.5226 7.2C18.6026 7.2 18.6926 7.18 18.7726 7.2C19.3726 7.34 20.1926 7.47001 20.7126 7.84001C21.1726 8.17001 21.5926 8.9 21.7426 9.45C21.7626 9.53 21.7526 9.60999 21.7526 9.68999H21.8926C21.8926 9.62999 21.9026 9.57001 21.9326 9.52001C22.1826 8.96001 22.4526 8.21999 22.8026 7.74999C23.0626 7.39999 23.5726 6.88003 23.8826 6.61003C24.1526 6.37003 24.3126 6.17 24.6026 6.01V6.02001ZM27.0826 10.85C27.0826 10.58 27.0926 10.21 26.9826 9.96001C26.8926 9.77001 26.3926 9.29003 26.2026 9.17003C25.4426 8.65003 24.7426 8.53999 23.8626 8.80999C23.4826 8.92999 22.8926 9.32 22.6526 9.64C22.6326 9.67 22.3926 10.29 22.3826 10.33C22.3626 10.48 22.5026 10.72 22.3826 10.9C22.8526 10.85 23.3226 10.87 23.7926 10.86C24.8126 10.84 25.8626 10.82 26.8826 10.81C26.9626 10.81 27.0226 10.83 27.0926 10.86L27.0826 10.85ZM20.9326 9.71001C20.6926 9.47001 19.7826 9.20999 19.4426 9.18999C18.1626 9.11999 17.0726 9.97999 16.7326 11.19C16.7126 11.28 16.6826 11.36 16.6926 11.45L21.6326 10.9C21.6326 10.7 21.4726 10.61 21.3926 10.47C21.3626 10.41 21.3626 10.32 21.3326 10.26C21.2726 10.17 20.9826 9.77001 20.9326 9.71001ZM11.8926 10.57C11.8926 10.57 11.3026 10.91 11.2326 10.95C10.9326 11.1 10.5626 11.22 10.2426 11.35C9.98257 11.46 9.74257 11.63 9.44257 11.64C9.38257 11.7 9.50257 12.47 9.49257 12.63C9.43257 13.15 9.05257 14.09 8.79257 14.56C8.73257 14.66 8.28257 15.27 8.34257 15.33C8.62257 15.41 8.91257 15.46 9.18257 15.53C9.29257 15.56 9.33257 15.64 9.47257 15.66C10.9626 15.84 12.9626 15.29 13.7026 13.88C13.8626 13.57 13.8926 12.95 14.3926 13.16L14.1926 12.69C14.1326 12.63 14.0226 12.67 13.9726 12.64C13.2126 12.29 12.2326 11.71 11.9326 10.84C11.9026 10.74 11.9026 10.66 11.9026 10.57H11.8926ZM26.8926 11.54L26.2826 11.59C26.2126 11.63 26.1826 11.91 26.1426 11.99C26.0826 12.1 25.4826 12.53 25.3326 12.59C24.7726 12.84 24.2726 12.7 23.8026 12.35C23.5726 12.18 23.2426 11.87 23.1426 11.6C23.0326 11.6 22.4626 11.55 22.4626 11.66C22.7726 12.58 23.3226 13.21 24.3026 13.42C25.2226 13.62 26.3826 13.17 26.7626 12.27C26.8726 12.02 26.9326 11.83 26.8926 11.55V11.54ZM21.6826 11.73L20.9426 11.78C20.9426 12.18 20.7126 12.47 20.4426 12.74C19.6526 13.56 18.0226 13.26 17.4826 12.3C17.4326 12.21 17.4026 12.11 17.3826 12.01L16.6926 12.15V12.45C16.8726 12.71 16.9526 13.11 17.1326 13.35C17.2826 13.56 17.8226 14.03 18.0526 14.14C18.5726 14.37 19.0526 14.46 19.6226 14.36C19.9726 14.3 20.5526 14.07 20.8526 13.88C20.8826 13.86 21.2926 13.36 21.3326 13.3C21.4026 13.2 21.5726 12.67 21.6026 12.52C21.6626 12.25 21.6526 12 21.6726 11.73H21.6826ZM24.8026 14.24C23.8626 13.96 23.2226 13.86 22.5426 13.1C22.5026 13.05 22.5026 13 22.4126 13.02C22.3926 13.22 22.4126 13.58 22.3526 13.77C22.1926 14.23 21.7226 14.91 21.3626 15.24C21.3026 15.29 20.9326 15.51 20.9326 15.54C21.0026 15.64 21.1126 15.75 21.2026 15.84C21.5826 16.2 21.8926 16.48 22.2326 16.89C22.3326 17.01 22.4726 17.16 22.5526 17.25C22.6826 17.43 22.7026 17.74 22.4426 17.78C22.0426 17.84 21.3326 16.88 21.0126 16.62C19.8826 15.71 18.1126 15.36 16.7126 15.69C16.1326 15.83 15.5426 16.27 15.0326 16.55C14.9526 16.59 14.5526 16.78 14.4926 16.8C14.3126 16.84 14.1726 16.74 14.1526 16.56C14.1526 16.48 14.3226 16.34 14.3826 16.28C14.7026 16 15.1526 15.66 15.5226 15.48C15.6726 15.41 15.8726 15.4 15.9926 15.26C15.8026 15.07 15.5926 14.92 15.4126 14.73C15.3426 14.65 15.3126 14.55 15.2526 14.47C14.9926 14.16 15.0426 14.27 14.8426 13.91C14.7526 13.74 14.6026 13.58 14.5326 13.39C14.3826 13.39 14.3626 13.83 14.3226 13.96C14.1726 14.39 13.8626 14.89 13.5226 15.19C13.3526 15.34 13.1426 15.42 12.9926 15.59C13.0626 15.92 12.8926 16.25 12.8926 16.55C12.9026 17.25 12.9326 17.93 12.9926 18.63C13.0626 19.45 12.9826 20.3 13.0326 21.12C13.0526 21.44 13.1726 21.77 13.1326 22.07C13.4426 22.11 13.7926 22.21 14.0726 22.36C14.2426 22.45 14.8126 22.95 14.9326 23.11C15.4326 23.76 15.8526 24.66 15.9926 25.47C16.0526 25.81 15.9326 26.39 16.2026 26.6C16.5726 26.89 17.4626 27.02 17.8626 27.38C17.9426 27.45 17.9426 27.56 17.9826 27.6C18.0326 27.65 18.1526 27.64 18.2226 27.7C18.5326 27.94 19.0326 28.94 19.1026 29.32C19.2726 30.2 19.2126 31.23 18.9926 32.08C18.8726 32.54 18.7126 32.97 18.4726 33.38L32.6926 28.58L30.8126 24.8C30.6826 24.77 30.1826 24.98 30.0226 25.01C29.0226 25.23 27.7726 25.3 26.7626 25.11C26.7026 25.1 26.6626 25.06 26.6226 25.03C25.8226 25.77 24.7026 26.22 23.6226 26.43C22.5426 26.64 21.2426 26.63 20.2126 26.5C19.8926 26.46 18.9226 26.28 18.6626 26.16C18.6426 26.16 18.3826 25.93 18.3626 25.9C18.2426 25.77 18.2226 25.54 18.4026 25.46C18.6326 25.36 18.7626 25.61 18.9726 25.66C20.3026 26 23.4126 25.97 24.6626 25.42C24.9226 25.31 25.0426 25.25 25.3226 25.15C25.4626 25.1 25.6926 24.93 25.8226 24.84C25.4526 24.65 25.0126 24.52 24.6326 24.34C24.4226 24.24 24.1926 24.12 23.9826 24.02C23.8026 23.93 23.6726 23.66 23.4326 23.64C23.3026 23.64 23.2326 23.74 23.1426 23.75C21.0126 24.13 18.4726 24.19 16.5126 23.13C15.7626 22.73 15.1426 21.69 15.3026 20.85C15.3326 20.69 15.4326 20.37 15.5026 20.22C15.6426 19.88 16.1526 19.2 16.5126 19.1C18.6626 18.51 19.5526 19.72 21.1126 20.82L21.0726 20.91C21.1626 20.93 21.2626 20.97 21.3426 21.03C21.9526 21.48 22.4926 22.05 23.1026 22.5C23.9826 23.15 25.6426 24.13 26.6926 24.36C29.3926 24.95 32.5326 23.8 34.3026 21.7C35.5126 20.26 35.8226 18.3 35.8926 16.46C35.4526 15.44 34.4226 14.71 33.3226 14.5C33.2126 14.48 32.9326 14.41 32.8626 14.41C32.6626 14.39 32.2526 14.48 32.0426 14.49C30.0226 14.62 28.0126 14.96 26.0126 14.57C25.6026 14.49 25.1626 14.33 24.8126 14.23L24.8026 14.24ZM17.4726 19.67C17.1126 19.71 16.7826 19.71 16.5126 19.98C16.3926 20.1 16.3526 20.25 16.2326 20.36L16.0026 21.15L17.4326 21.27C17.5526 21.18 17.4326 20.8 17.4326 20.67C17.4326 20.6 17.4726 20.53 17.4726 20.44C17.4726 20.2 17.3926 19.94 17.4726 19.67ZM18.2526 19.73C18.1726 19.71 18.1126 19.71 18.0326 19.71L18.0526 21.28L19.6526 21.37C19.6526 21.37 19.6026 20.68 19.5626 20.61C19.5426 20.58 19.1926 20.28 19.1426 20.25C19.0326 20.18 18.3026 19.75 18.2526 19.73ZM39.4126 21.23C39.4126 21.23 39.5926 21.25 39.6526 21.23C39.7226 21.21 40.1226 20.89 40.2926 20.81C40.5026 20.71 41.1726 20.58 40.9726 20.3C40.8926 20.19 40.6326 20.26 40.5026 20.28C40.2126 20.34 39.3426 20.67 39.3226 20.99C39.3226 21.03 39.4026 21.22 39.4126 21.23ZM38.4226 21.77C38.1626 21.99 37.8826 22.37 37.7426 22.68C37.6626 22.86 37.5326 23.07 37.7426 23.22C37.8326 23.25 37.8926 23.17 37.9426 23.11C38.2626 22.73 38.4726 22.2 38.8626 21.85L38.7426 21.61C38.5926 21.6 38.5226 21.7 38.4326 21.77H38.4226ZM17.5226 21.84L16.1426 21.65C16.0926 21.7 16.4826 22.24 16.5426 22.3C16.6726 22.42 17.4326 22.82 17.5926 22.85C17.7126 22.87 17.6326 22.82 17.6226 22.77C17.5926 22.46 17.4526 22.18 17.5126 21.84H17.5226ZM39.1426 22.7C39.3926 22.92 39.5426 22.43 39.6626 22.3C39.7826 22.17 39.9826 22.08 40.1226 21.97L40.0526 21.72C39.7026 21.53 39.0126 22.31 39.0626 22.58C39.0626 22.6 39.1226 22.69 39.1426 22.7ZM19.9226 23.31C19.8926 23.16 19.8926 22.98 19.8626 22.84C19.8426 22.76 19.7726 22.7 19.7626 22.63C19.7126 22.38 19.8226 22.12 19.6926 21.91L18.0926 21.89C18.0026 22.04 18.1926 22.78 18.2226 22.99C18.2926 23.07 19.1526 23.27 19.3026 23.28C19.5026 23.28 19.7026 23.17 19.9226 23.32V23.31ZM21.6626 22.22C21.6026 22.17 21.5126 22.18 21.4426 22.13C21.3726 22.08 21.3526 21.99 21.3026 21.95C21.1226 21.82 20.5326 22.03 20.2926 21.92L20.4326 23.31C20.9026 23.38 21.3326 23.28 21.7926 23.22C21.9126 23.2 22.0426 23.23 22.1626 23.22C22.3026 23.2 22.4626 23.07 22.6526 23.13C22.5626 23 22.3526 22.93 22.2426 22.83C22.0626 22.66 21.8726 22.39 21.6726 22.23L21.6626 22.22ZM34.1926 25.72C33.5226 25.4 32.7026 25.39 32.0226 25.72L32.4326 26.53C32.7126 26.47 32.9926 26.33 33.2826 26.47C33.3726 26.51 33.4326 26.64 33.5226 26.64L33.8826 26C34.0226 25.95 34.2226 25.89 34.1926 25.71V25.72ZM38.0226 25.53C38.0226 25.53 37.4426 25.69 37.3426 25.7C37.2626 25.71 37.0126 25.74 36.9226 25.75C36.7626 25.75 36.5626 25.69 36.4026 25.74L37.4426 26.45C37.5326 26.34 38.0926 25.62 38.0226 25.54V25.53ZM36.8526 26.65C36.4126 26.32 35.5426 26.07 35.0026 26.18C34.3126 26.31 33.7326 26.9 34.1226 27.61L34.7626 27.47C34.7626 27.06 35.2726 26.77 35.6426 26.77C35.9626 26.77 36.6326 27.14 36.8226 27.4C37.0126 27.66 36.9526 27.93 36.9326 28.21L37.6526 28.72L37.6926 28.2C37.3226 27.97 37.0326 27.82 37.0926 27.31C37.1126 27.14 37.2626 27.03 37.1126 26.87C37.0626 26.81 36.9826 26.81 36.9326 26.77C36.8826 26.73 36.8626 26.67 36.8426 26.66L36.8526 26.65ZM42.5026 29.22C42.5226 28.95 42.5926 28.68 42.6226 28.4C42.6726 28.02 42.6926 27.67 42.7326 27.3C42.7426 27.16 42.7226 27.04 42.6826 26.91C42.4426 27.02 41.8226 27.12 41.8026 27.44C41.7926 27.62 41.9626 27.83 41.9626 28.03L42.5026 29.22ZM40.9126 34.89C41.4426 34.26 41.8526 32.99 41.8526 32.16C41.8526 31.43 41.0626 29.61 40.8026 28.82C40.7426 28.65 40.6726 28.07 40.5426 27.97C40.3526 27.83 39.8926 28.1 39.6926 28.15C39.4026 28.22 39.1026 28.17 38.8226 28.25C38.7326 28.37 39.0526 29 39.1026 29.18C39.2326 29.62 39.3326 29.92 39.1226 30.35C38.7926 30.99 38.1926 31.06 37.5426 30.85C36.9826 30.37 36.7126 29.89 36.4426 29.21C36.3026 28.87 36.2826 28.42 36.0026 28.13C35.9326 28.11 35.3226 28.49 35.2026 28.52C35.0226 28.57 34.7926 28.55 34.6226 28.68C34.5926 28.72 34.7226 28.87 34.7426 28.94C34.9226 29.48 35.0626 30.08 35.2826 30.61C35.5026 31.14 36.1626 32.36 36.5426 32.77C36.7026 32.95 37.2226 33.39 37.4426 33.39C37.6426 33.39 38.3326 33.33 38.5426 33.29C38.7726 33.25 39.0626 33.15 39.2726 33.05C39.4326 32.98 40.0626 32.46 40.1326 32.77C40.0926 32.96 40.0526 33.2 39.9626 33.38C39.5826 34.14 38.5826 34.53 37.8226 34.79C37.5026 34.98 37.0926 35.08 36.7226 35.19C36.6926 35.23 36.9726 35.82 37.0226 35.93C37.1226 36.18 37.1326 36.6 37.4726 36.66C38.3126 36.28 39.4726 36.12 40.2126 35.56C40.3926 35.42 40.7626 35.07 40.9126 34.9V34.89ZM12.4926 29.32C12.4726 29.18 12.5326 28.92 12.4726 28.81C12.4226 28.73 12.0426 28.53 11.9426 28.51C11.3726 28.4 10.9426 29.55 10.9726 29.99C10.9826 30.2 11.1426 30.93 11.4526 30.75C11.9026 30.49 11.6726 30.38 11.6426 30.07C11.6126 29.7 12.0826 29.12 12.4926 29.32ZM33.8626 28.99C33.6626 29.01 33.4726 29.06 33.2826 29.13C32.7326 29.31 32.1926 29.53 31.6526 29.72C31.4026 29.81 29.8426 30.28 29.8026 30.41L31.8526 36.1L33.3926 35.52L33.1626 35.07C33.0526 34.84 33.0326 34.72 32.9226 34.43C32.8126 34.14 32.3626 33.44 32.5826 33.2L34.8226 32.34L35.0026 32.2C34.9026 32.02 34.8726 31.81 34.7926 31.63C34.7426 31.52 34.5726 31.13 34.4726 31.11L32.2026 31.89C31.8926 32.03 31.5926 31.68 31.8026 31.44C31.8426 31.4 32.1126 31.25 32.1826 31.22C32.6426 31.01 33.1126 30.91 33.5826 30.73C33.7926 30.65 34.0026 30.5 34.2226 30.45L34.2526 30.27L33.8426 28.99H33.8626ZM29.1126 30.56C29.1126 30.56 28.6626 30.69 28.5926 30.71C27.9826 30.95 27.3626 31.18 26.7326 31.39C26.3326 31.53 25.9126 31.64 25.5026 31.76C25.4926 31.93 25.6126 32.05 25.6626 32.22C26.1426 33.71 26.7826 35.15 27.2626 36.62C27.3726 36.95 27.4926 37.28 27.5726 37.62L31.3626 36.33C31.1326 36.15 30.7126 34.56 30.5926 34.53C30.4126 34.49 29.9826 34.76 29.7926 34.83C29.4726 34.95 28.7626 35.27 28.4726 35.31C28.1826 35.35 27.7826 35.16 27.9726 34.86C28.1126 34.64 28.8826 34.51 29.1426 34.42C29.5326 34.27 29.9126 33.98 30.3426 33.89L29.7426 32.28C28.9226 32.55 28.1326 33 27.2826 33.15C27.0526 33.13 27.0726 32.78 27.2426 32.65C27.4126 32.51 28.0226 32.26 28.2626 32.16C28.4526 32.08 28.6626 32.07 28.8326 31.9L29.5226 31.68L29.1026 30.57L29.1126 30.56ZM13.9326 31.61C13.8626 31.52 13.8426 31.43 13.7326 31.32C13.4326 31.02 12.4126 30.66 12.0526 30.98C11.7826 31.22 11.4226 31.96 11.4926 32.32C11.5626 32.68 11.9126 33.19 12.2126 33.35C12.4826 33.5 12.8726 33.55 13.1826 33.56L13.1626 33.19C12.6526 33.07 12.2026 32.76 12.1726 32.2C12.1226 31.49 12.7226 31.37 13.2526 31.68C13.3926 31.76 13.6226 32.06 13.7626 32.04L14.1126 31.78C14.1326 31.68 13.9826 31.66 13.9426 31.61H13.9326ZM24.8526 32.09L20.9826 33.29C20.9826 33.29 21.1626 33.68 21.1926 33.75C21.7526 35.35 22.2626 36.95 22.9026 38.51C22.9626 38.66 22.9126 38.84 23.1126 38.94C23.4826 39.14 23.7426 38.9 24.0726 38.8C25.0726 38.47 26.0826 38.16 27.0826 37.81C26.9626 37.61 26.5326 36.23 26.4126 36.2C26.1926 36.25 25.9926 36.37 25.7826 36.44C25.4926 36.55 25.1826 36.64 24.8926 36.75C24.6926 36.83 23.8226 37.3 23.7226 36.95C23.6726 36.76 23.8226 36.52 23.9826 36.43C24.4226 36.18 24.9426 36.05 25.4126 35.84C25.6526 35.73 25.9226 35.56 26.1626 35.44C25.9426 34.96 25.7726 34.48 25.6126 33.98C25.1326 34.18 24.6326 34.39 24.1326 34.56C23.9326 34.63 23.3826 34.83 23.2226 34.85C23.0626 34.87 22.9926 34.85 22.9326 34.7C22.7626 34.26 23.6626 34.06 23.9326 33.94C24.4026 33.74 24.8826 33.5 25.3826 33.38C25.2226 32.96 25.1026 32.5 24.8626 32.09H24.8526ZM16.1826 34.02C16.3826 34 16.8226 33.93 16.7726 33.68C16.7726 33.65 16.5326 33.18 16.4926 33.12C15.7526 31.93 13.5326 31.96 13.6826 33.62C13.7026 33.84 13.9826 34.39 14.1226 34.57C14.3826 34.89 15.2926 35.33 15.6726 35.05L15.4326 34.44C14.9226 34.34 14.1426 34.03 14.2426 33.39C14.2826 33.15 14.6426 32.98 14.8626 32.97C15.3326 32.94 16.2226 33.46 16.1826 34.01V34.02ZM20.1526 36.61L20.5126 36.07C20.9226 35.17 20.8326 33.99 19.6226 33.98C18.8726 33.98 18.1226 34.32 17.4226 34.55C17.0526 34.67 16.6426 34.74 16.2826 34.91L18.5426 41.05C19.3326 40.66 20.1826 40.46 20.9826 40.1C21.7326 39.76 22.3926 39.16 22.2626 38.27C22.1626 37.52 21.6026 37.02 20.9226 36.75C20.6926 36.66 20.4026 36.63 20.1526 36.62V36.61ZM33.9126 36.66C33.7926 36.48 33.5226 36.44 33.3626 36.36C33.2626 36.31 33.1226 36.13 33.0026 36.12C32.9326 36.12 32.3826 36.32 32.3826 36.36L33.1926 36.89L33.9026 36.66H33.9126ZM38.8526 36.56C38.7826 36.66 39.1126 36.77 39.1726 36.82C39.3026 36.91 39.4026 37.1 39.5726 37.11C39.6826 37.11 40.3626 36.74 40.4826 36.65C40.7126 36.48 40.1826 36.22 40.0326 36.11L38.8426 36.56H38.8526ZM31.6526 37.4L30.8426 36.95L30.2726 37.13C30.2526 37.23 30.2926 37.2 30.3326 37.24C30.4026 37.29 31.0826 37.66 31.1326 37.67C31.1926 37.67 31.6926 37.46 31.6626 37.41L31.6526 37.4ZM30.4026 37.86C30.1026 37.81 29.8826 37.39 29.5426 37.4C29.5126 37.4 29.0726 37.53 29.0126 37.55C28.9126 37.59 28.7626 37.69 28.6426 37.74C28.9726 37.85 29.1926 38.12 29.5426 38.22L30.3726 37.95L30.4026 37.86ZM27.5926 38.83L26.8626 38.37L26.2526 38.55L27.0726 39.1C27.1526 39.11 27.6326 38.89 27.5926 38.83ZM26.4826 39.29L25.5726 38.84L24.4526 39.2L25.4026 39.74C25.5126 39.75 26.2026 39.47 26.3426 39.41C26.3926 39.38 26.4726 39.36 26.4826 39.3V39.29ZM19.8826 41.04L20.7826 41.48L22.3326 40.83L21.4326 40.39C20.9526 40.59 20.4126 40.73 19.9526 40.94C19.9026 40.96 19.8726 40.92 19.8926 41.04H19.8826Z" fill="#1A1A1A"/>
<path d="M7.85256 20.65C7.95256 20.75 7.98256 20.96 7.92256 21.09C7.70256 21.61 6.72256 21.04 6.40256 20.93C5.52256 20.64 4.64256 20.38 3.75256 20.12C3.65256 20.09 3.10256 19.88 3.07256 19.9L3.55256 20.69C4.08256 21.48 4.73256 22.16 5.31256 22.9C5.41256 23.03 5.56256 23.24 5.49256 23.4C5.48256 23.42 5.07256 23.64 5.01256 23.66C4.66256 23.79 3.99256 23.91 3.58256 24.03C2.77256 24.27 1.96256 24.49 1.18256 24.82C1.48256 25.06 1.87256 25.03 2.21256 25.13C2.40256 25.19 2.58256 25.31 2.76256 25.36C3.52256 25.59 4.42256 25.76 5.16256 26.05C6.34256 26.51 5.34256 27.06 4.85256 27.51C4.02256 28.27 3.14256 28.99 2.31256 29.75C2.17256 29.88 2.05256 30.03 1.92256 30.17C1.98256 30.27 2.00256 30.21 2.05256 30.21C3.39256 30.16 4.71256 29.98 6.04256 29.94C6.17256 29.94 6.23256 29.82 6.44256 29.91C6.49256 29.93 6.72256 30.11 6.75256 30.15C6.90256 30.36 6.73256 30.62 6.64256 30.83C6.21256 31.89 5.50256 32.82 5.11256 33.89C5.20256 33.96 5.83256 33.58 5.96256 33.51C6.48256 33.26 6.97256 33.03 7.51256 32.8C7.72256 32.71 8.01256 32.42 8.20256 32.72C8.26256 32.89 8.08256 33.05 7.95256 33.15C7.46256 33.53 6.58256 33.84 6.02256 34.12C5.69256 34.29 4.80256 34.93 4.46256 34.78C4.21256 34.67 4.18256 34.35 4.26256 34.12C4.46256 33.5 4.87256 32.71 5.17256 32.12C5.34256 31.8 5.61256 31.46 5.75256 31.13C5.79256 31.04 5.99256 30.57 5.94256 30.51L3.89256 30.79C2.98256 30.85 2.08256 30.85 1.18256 30.95C0.822559 30.99 0.712561 30.61 0.832561 30.32C0.922561 30.08 1.45256 29.53 1.66256 29.33C2.55256 28.48 3.65256 27.65 4.59256 26.81C4.65256 26.76 4.70256 26.62 4.79256 26.57C4.79256 26.53 4.06256 26.31 3.97256 26.28C3.88256 26.25 3.76256 26.28 3.67256 26.26C2.53256 25.96 1.38256 25.6 0.262561 25.23C-0.0974387 25.11 -0.0574401 24.69 0.20256 24.47C0.35256 24.35 0.502559 24.35 0.662559 24.29C1.19256 24.07 1.84256 23.8 2.38256 23.61C3.01256 23.39 3.76256 23.29 4.40256 23.09C4.46256 23.07 4.51256 23.05 4.55256 23C4.57256 22.93 4.09256 22.5 4.01256 22.41C3.71256 22.05 3.42256 21.63 3.14256 21.27C2.83256 20.86 2.52256 20.36 2.23256 19.88C2.21256 19.85 2.15256 19.84 2.14256 19.81C1.84256 19.25 2.42256 19.04 2.90256 19.11C4.21256 19.3 5.46256 19.87 6.70256 20.3C6.92256 20.38 7.75256 20.54 7.85256 20.65Z" fill="#1A1A1A"/>
<path d="M43.0426 13.26C43.1726 13.36 43.1026 13.8101 42.9926 13.9001C42.8826 13.9801 42.4726 14.0001 42.3126 14.0501C41.6326 14.2501 40.8026 15.01 40.5926 15.7C40.4926 16.01 40.5426 16.8801 40.0026 16.6101C39.7926 16.5101 39.7126 16.0401 39.6226 15.8401C39.3326 15.2501 38.9326 14.63 38.3526 14.25C38.1526 14.12 37.8326 14.05 37.5926 14.08C37.4226 14.1 37.2726 14.3601 37.0626 14.1501C36.7526 13.8401 37.4926 13.3501 37.7126 13.1801C37.7726 13.1401 37.8626 13.13 37.9326 13.08C38.4926 12.67 39.0626 11.75 39.2626 11.08C39.3226 10.86 39.3626 10.2201 39.4426 10.1001C39.5226 9.96006 39.7726 9.95002 39.9026 10.06C40.0126 10.15 40.1226 10.82 40.1826 11.02C40.3326 11.49 40.4526 11.92 40.8326 12.27C41.0626 12.48 41.6326 12.8701 41.9226 12.9901C42.2526 13.1201 42.8026 13.06 43.0626 13.26H43.0426ZM41.6226 13.57C41.4326 13.5 41.2026 13.41 41.0226 13.31C40.5926 13.06 40.1826 12.67 39.8926 12.27C39.8426 12.2 39.7326 11.7201 39.6626 11.7201L39.0426 12.8401C38.9426 12.9801 38.3626 13.42 38.3526 13.5C38.3326 13.59 38.3826 13.56 38.4126 13.58C39.0126 13.95 39.3826 14.2001 39.8126 14.7901C39.8526 14.8401 39.9726 15.17 40.0426 15.19C40.1426 15.21 40.0926 15.16 40.1126 15.12C40.3526 14.66 40.7126 14.1901 41.1526 13.9001C41.2226 13.8501 41.7126 13.68 41.6326 13.57H41.6226Z" fill="#1A1A1A"/>
<path d="M34.6826 38.51C34.9726 38.48 35.4826 39.87 35.5826 40.13C35.6126 40.19 35.6826 40.24 35.7126 40.32C35.7926 40.52 35.8626 40.95 35.5726 41.02C35.2226 41.1 35.1226 40.39 35.0326 40.17C34.8626 39.73 34.6826 39.27 34.4626 38.84C34.4026 38.7 34.5326 38.52 34.6726 38.51H34.6826Z" fill="#1A1A1A"/>
<path d="M14.2326 40.96C14.8426 40.77 14.6226 41.99 14.6226 42.27C14.6226 42.55 14.7726 43 14.5726 43.24C14.4526 43.38 14.2726 43.34 14.2126 43.18C14.1726 43.08 14.0726 42.47 14.0726 42.35C14.0726 42.16 14.1326 41.87 14.1326 41.66C14.1326 41.48 13.9826 41.03 14.2326 40.95V40.96Z" fill="#1A1A1A"/>
<path d="M47.3625 29.26C47.3625 29.26 47.3625 28.66 47.3525 28.51C47.3325 28.23 47.0025 26.97 47.0825 26.83C47.6025 26.58 47.7426 27.8801 47.7726 28.2301C47.7926 28.4301 47.8325 29.24 47.6025 29.31C47.5325 29.32 47.4225 29.31 47.3625 29.26Z" fill="#1A1A1A"/>
<path d="M36.8626 39.62C36.8626 39.62 36.9226 39.84 36.9626 39.92C37.1426 40.32 37.2926 40.63 37.4526 41.04C37.5226 41.21 37.7626 41.54 37.7326 41.69C37.6926 41.9 37.3926 41.93 37.2726 41.77C37.2526 41.74 36.9726 41.19 36.9426 41.13C36.8826 40.98 36.8926 40.83 36.8526 40.71C36.7826 40.52 36.2626 39.59 36.6626 39.56C36.7126 39.58 36.8326 39.58 36.8626 39.61V39.62Z" fill="#1A1A1A"/>
<path d="M15.3826 42.85C15.5326 42.81 15.6726 42.95 15.6726 43.09C15.6026 43.43 15.7026 44.32 15.5726 44.56C15.4826 44.73 15.2926 44.66 15.2226 44.51C15.1726 44.42 15.1226 43.96 15.1226 43.82C15.1226 43.67 15.1526 43.19 15.2026 43.07C15.2326 42.99 15.3026 42.86 15.3926 42.84L15.3826 42.85Z" fill="#1A1A1A"/>
<path d="M46.4826 30.09C46.3826 29.99 46.4326 29.39 46.4226 29.2C46.4126 29 46.2226 28.27 46.5426 28.27C47.0026 28.27 46.8726 29.8 46.8226 30.1C46.7726 30.18 46.5426 30.15 46.4826 30.09Z" fill="#1A1A1A"/>
<path d="M35.7326 38.1C35.9626 38.07 36.0726 38.41 35.8526 38.52C35.4726 38.7 35.5126 38.13 35.7326 38.1Z" fill="#1A1A1A"/>
<path d="M28.1326 18.78C27.7026 19.06 27.7226 18.33 27.6426 18.12C27.5926 17.99 27.4626 17.7 27.4026 17.58C27.3426 17.46 26.8826 17.0701 26.7426 16.9901C26.6026 16.9101 26.1726 16.78 26.0126 16.78C25.9526 16.78 25.4926 16.9001 25.4226 16.9201C25.1726 17.0201 24.7226 17.51 24.6626 17.78C24.6226 17.95 24.6226 18.22 24.6426 18.4C24.6926 18.78 25.0226 19.23 25.2326 19.51C25.3426 19.65 25.8326 20.19 25.8626 20.27C25.8826 20.33 25.9026 20.39 25.8626 20.46C25.8026 20.52 25.7326 20.55 25.6526 20.53C25.6026 20.53 25.2126 20.26 25.1426 20.2C24.4826 19.66 23.8526 18.58 23.9926 17.71C24.1526 16.69 25.5126 15.86 26.4926 16.13C26.8326 16.22 27.4326 16.5201 27.6826 16.7901C27.8126 16.9301 28.2126 17.6701 28.2626 17.8501C28.3126 18.0401 28.3126 18.6701 28.1326 18.7901V18.78Z" fill="#1A1A1A"/>
<path d="M34.0126 18.3601C33.8526 18.2001 34.0426 18.01 34.0626 17.87C34.1426 17.45 34.0626 16.8601 33.8926 16.4701C33.8026 16.2801 33.4226 15.7101 33.2226 15.6601C33.1526 15.6401 33.0826 15.6801 33.0226 15.6701C32.9726 15.6701 32.9226 15.62 32.8726 15.62C32.6226 15.62 32.0426 15.9301 31.8626 16.1101C31.2926 16.7101 31.2826 17.4701 31.4126 18.2401C31.3726 18.3801 31.1626 18.4 31.0626 18.31C31.0326 18.28 30.7926 17.66 30.7826 17.59C30.7126 17.19 30.8726 16.58 31.0426 16.21C31.2826 15.68 31.6226 15.38 32.1426 15.14C32.4726 14.99 32.9526 14.9101 33.3126 14.9701C33.5126 15.0001 33.7426 15.13 33.8926 15.27C34.4226 15.76 34.7526 16.46 34.7926 17.19C34.8026 17.41 34.7126 17.96 34.6026 18.15C34.5126 18.31 34.1726 18.5101 34.0226 18.3501L34.0126 18.3601Z" fill="#1A1A1A"/>
<path d="M27.1126 19.01C26.9126 19.18 26.0526 19.26 25.8326 19.09C25.5126 18.84 25.5226 18 25.8026 17.7C26.1626 17.31 26.6126 17.35 26.9626 17.73C27.2026 17.99 27.4126 18.76 27.1126 19.01Z" fill="#1A1A1A"/>
<path d="M33.3926 17.71C33.2626 17.81 32.7326 17.93 32.5526 17.91C32.2726 17.88 32.0726 17.58 32.0326 17.32C31.9326 16.68 32.4526 16.09 33.1126 16.38C33.4726 16.54 33.7526 17.43 33.3926 17.71Z" fill="#1A1A1A"/>
<path d="M33.1126 21.91C33.0226 21.97 32.4926 22.24 32.4126 22.25C32.2026 22.26 32.0926 22.1 32.2026 21.91C32.2026 21.9 32.3926 21.72 32.4026 21.71C32.4526 21.68 32.5326 21.68 32.5926 21.64C32.9226 21.39 33.2626 21.14 33.5926 20.89C33.8926 20.76 34.0126 21.01 33.8626 21.25C33.8526 21.27 33.5726 21.55 33.5426 21.57C33.4726 21.63 33.1826 21.86 33.1126 21.91Z" fill="#1A1A1A"/>
<path d="M31.5425 22.97C31.3425 23.15 30.6726 23.47 30.4126 23.53C30.2626 23.56 29.9625 23.62 29.8225 23.59C29.6625 23.56 29.6225 23.34 29.7525 23.25C29.9525 23.12 30.4925 23.0301 30.7625 22.9201C31.0125 22.8201 31.2526 22.66 31.4826 22.53C31.6026 22.51 31.7126 22.57 31.7326 22.69C31.7326 22.72 31.5625 22.94 31.5325 22.97H31.5425Z" fill="#1A1A1A"/>
<path d="M32.2026 21.06C32.3926 21.39 31.9726 21.59 31.7326 21.75C31.6826 21.78 31.6626 21.86 31.6226 21.88C31.5326 21.94 30.8726 22.23 30.7926 22.24C30.7126 22.25 30.6126 22.19 30.5726 22.11C30.3826 21.7 31.1526 21.52 31.4226 21.39C31.6926 21.26 31.9026 20.99 32.2026 21.06Z" fill="#1A1A1A"/>
<path d="M19.3226 39.75C19.3626 39.55 19.1426 39.36 19.1126 39.2C19.0926 39.12 19.1426 39.0501 19.1126 38.9701C19.0826 38.8501 18.8626 38.7201 18.9626 38.5501C19.0026 38.4901 19.6926 38.22 19.8026 38.19C19.9926 38.15 20.4926 38.12 20.6426 38.25C20.6926 38.29 20.8726 38.64 20.8726 38.71C20.8926 39.3 19.7426 39.61 19.3026 39.75H19.3226Z" fill="#1A1A1A"/>
<path d="M19.3126 35.33C19.3726 35.41 19.3926 35.57 19.3726 35.66C19.3526 35.77 18.9426 36.2 18.8326 36.28C18.7426 36.34 18.2826 36.56 18.2126 36.5L17.8226 35.5C17.8826 35.42 17.9526 35.38 18.0426 35.35C18.1626 35.3 18.8326 35.15 18.9426 35.15C19.0126 35.15 19.2726 35.29 19.3126 35.33Z" fill="#1A1A1A"/>
<path d="M29.7225 7.10004C29.4725 6.84004 30.0725 6.52004 30.2225 6.35004L30.8225 5.47003L30.9425 5.40002C31.3425 5.40002 31.0026 6.02 30.9126 6.19C30.7426 6.49 30.2926 7.06 29.9526 7.13C29.8726 7.15 29.7925 7.15003 29.7325 7.09003L29.7225 7.10004Z" fill="#1A1A1A"/>
<path d="M12.6926 6.35004C12.7526 6.42004 12.8725 6.46003 12.9325 6.52003C13.1525 6.73003 13.3126 7.00004 13.6226 7.10004C13.7026 7.37004 13.4326 7.49002 13.1926 7.39002C13.1526 7.37002 12.6726 6.98006 12.6226 6.93006C12.4826 6.78006 11.9625 6.17003 12.2525 6.02003C12.4825 5.91003 12.5625 6.23004 12.6825 6.35004H12.6926Z" fill="#1A1A1A"/>
</svg>
